<svg width="42" height="48" viewBox="0 0 42 48" fill="none" xmlns="http://www.w3.org/2000/svg">
<path d="M42 33.75V2.25C42 1.00312 40.9969 0 39.75 0H9C4.03125 0 0 4.03125 0 9V39C0 43.9688 4.03125 48 9 48H39.75C40.9969 48 42 46.9969 42 45.75V44.25C42 43.5469 41.6719 42.9094 41.1656 42.4969C40.7719 41.0531 40.7719 36.9375 41.1656 35.4938C41.6719 35.0906 42 34.4531 42 33.75ZM12 12.5625C12 12.2531 12.2531 12 12.5625 12H32.4375C32.7469 12 33 12.2531 33 12.5625V14.4375C33 14.7469 32.7469 15 32.4375 15H12.5625C12.2531 15 12 14.7469 12 14.4375V12.5625ZM12 18.5625C12 18.2531 12.2531 18 12.5625 18H32.4375C32.7469 18 33 18.2531 33 18.5625V20.4375C33 20.7469 32.7469 21 32.4375 21H12.5625C12.2531 21 12 20.7469 12 20.4375V18.5625ZM35.7562 42H9C7.34062 42 6 40.6594 6 39C6 37.35 7.35 36 9 36H35.7562C35.5781 37.6031 35.5781 40.3969 35.7562 42Z" fill="#46B754"/>
</svg>
