<svg width="249" height="78" viewBox="0 0 249 78" fill="none" xmlns="http://www.w3.org/2000/svg">
<path d="M0.5 46.6302C0.5 43.5487 2.99812 41.0505 6.07971 41.0505H89.2391C92.3207 41.0505 94.8188 43.5487 94.8188 46.6302V71.6302C94.8188 74.7118 92.3207 77.21 89.2391 77.21H6.07971C2.99812 77.21 0.5 74.7118 0.5 71.6302V46.6302Z" fill="#FD7E14"/>
<path d="M19.6974 62.0209C19.2599 63.2395 18.4215 63.8489 17.1821 63.8489C15.9114 63.8489 14.8646 63.3697 14.0418 62.4115C13.1877 61.422 12.7607 60.1566 12.7607 58.6151C12.7607 56.9903 13.219 55.6883 14.1355 54.7093C15.0209 53.7615 16.1614 53.2876 17.557 53.2876C18.5048 53.2876 19.2964 53.4959 19.9317 53.9125C20.5775 54.3187 21.0827 54.9645 21.4472 55.8498L19.5568 56.2872C19.0048 55.4019 18.3069 54.9593 17.4633 54.9593C16.6925 54.9593 16.052 55.2873 15.5416 55.9435C15.0104 56.6101 14.7448 57.5006 14.7448 58.6151C14.7448 59.667 14.9844 60.5211 15.4635 61.1773C15.9322 61.823 16.5571 62.1459 17.3383 62.1459C18.0049 62.1459 18.5517 61.9324 18.9787 61.5054C19.4162 61.0679 19.6349 60.469 19.6349 59.7087V59.6462L17.3539 59.5993V58.412H21.4003V63.6301H19.9005L19.6974 62.0209ZM29.0988 62.2553C28.6197 63.2656 27.8489 63.7707 26.7865 63.7707C25.4429 63.7707 24.5576 63.2448 24.1306 62.1928C23.9744 61.8283 23.8963 61.3856 23.8963 60.8648V56.0216H25.7398V60.6773C25.7398 61.1773 25.8596 61.5522 26.0991 61.8022C26.3387 62.0418 26.6303 62.1615 26.974 62.1615C27.3281 62.1615 27.625 62.1147 27.8645 62.0209C28.1041 61.9168 28.3124 61.7658 28.4895 61.5679C28.8748 61.12 29.0779 60.5211 29.0988 59.7712V56.0216H30.9423V63.6301H29.0988V62.2553ZM34.0037 56.0216H35.8473V63.6301H34.0037V56.0216ZM33.785 53.5844C33.785 53.2511 33.8839 52.9907 34.0818 52.8033C34.2797 52.6054 34.561 52.5064 34.9255 52.5064C35.2796 52.5064 35.5556 52.6054 35.7535 52.8033C35.9618 52.9907 36.066 53.2511 36.066 53.5844C36.066 53.9177 35.9618 54.1833 35.7535 54.3812C35.5556 54.5687 35.2796 54.6624 34.9255 54.6624C34.561 54.6624 34.2797 54.5687 34.0818 54.3812C33.8839 54.1833 33.785 53.9177 33.785 53.5844ZM43.9264 62.4584C43.4577 63.3854 42.739 63.8489 41.7704 63.8489C40.8018 63.8489 39.9894 63.4791 39.3332 62.7396C38.6562 61.9689 38.3177 60.9898 38.3177 59.8024C38.3177 58.6151 38.6406 57.6517 39.2863 56.9122C39.9217 56.1935 40.7132 55.8342 41.661 55.8342C42.6088 55.8342 43.3223 56.2143 43.8014 56.9746V52.9126H45.6606V63.6301H44.1451L43.9264 62.4584ZM42.0047 57.4902C41.484 57.4902 41.0465 57.7037 40.6924 58.1308C40.3487 58.5474 40.1768 59.1098 40.1768 59.8181C40.1768 60.5263 40.3539 61.0992 40.708 61.5366C41.0621 61.9637 41.51 62.1772 42.0516 62.1772C42.4995 62.1772 42.9005 62.0001 43.2546 61.646C43.6191 61.2814 43.8014 60.8232 43.8014 60.2711V59.2869C43.7806 58.7453 43.5983 58.3026 43.2546 57.9589C42.9421 57.6464 42.5255 57.4902 42.0047 57.4902ZM53.8668 56.9434C54.1272 57.2767 54.3198 57.6621 54.4448 58.0995C54.5802 58.537 54.6479 58.938 54.6479 59.3025C54.6479 59.667 54.6271 59.9951 54.5854 60.2868H49.6798C49.7006 60.9013 49.8516 61.4012 50.1328 61.7866C50.4141 62.172 50.8411 62.3646 51.4139 62.3646C52.1743 62.3646 52.6273 62.0314 52.7732 61.3648H54.6323C54.5073 62.1251 54.1584 62.724 53.5856 63.1614C52.9919 63.6197 52.268 63.8489 51.4139 63.8489C50.4141 63.8489 49.5756 63.4843 48.8986 62.7552C48.2008 61.9949 47.8518 61.0211 47.8518 59.8337C47.8518 58.6151 48.2008 57.636 48.8986 56.8965C49.5652 56.1883 50.4036 55.8342 51.4139 55.8342C52.4659 55.8342 53.2835 56.2039 53.8668 56.9434ZM51.4296 57.3027C50.9088 57.3027 50.5026 57.4746 50.2109 57.8183C49.9193 58.1516 49.7475 58.5838 49.6954 59.115H52.9294C52.9294 58.2922 52.669 57.7402 52.1482 57.459C51.9503 57.3548 51.7108 57.3027 51.4296 57.3027ZM56.8551 52.9126H58.6986V63.6301H56.8551V52.9126ZM61.7562 56.0216H63.5998V63.6301H61.7562V56.0216ZM61.5375 53.5844C61.5375 53.2511 61.6365 52.9907 61.8344 52.8033C62.0323 52.6054 62.3135 52.5064 62.678 52.5064C63.0321 52.5064 63.3081 52.6054 63.506 52.8033C63.7143 52.9907 63.8185 53.2511 63.8185 53.5844C63.8185 53.9177 63.7143 54.1833 63.506 54.3812C63.3081 54.5687 63.0321 54.6624 62.678 54.6624C62.3135 54.6624 62.0323 54.5687 61.8344 54.3812C61.6365 54.1833 61.5375 53.9177 61.5375 53.5844ZM68.5387 57.3496C69.0386 56.3393 69.8406 55.8342 70.9446 55.8342C71.882 55.8342 72.5851 56.1414 73.0538 56.7559C73.5329 57.3704 73.7724 58.1828 73.7724 59.1931V63.6301H71.9289V59.1931C71.9289 58.6307 71.7935 58.2089 71.5227 57.9277C71.2519 57.636 70.8717 57.4902 70.3822 57.4902C69.8927 57.4902 69.4708 57.7089 69.1167 58.1464C68.773 58.5838 68.5907 59.24 68.5699 60.1149V63.6301H66.7264V56.0373H68.3356L68.5387 57.3496ZM81.7566 56.9434C82.017 57.2767 82.2097 57.6621 82.3347 58.0995C82.4701 58.537 82.5378 58.938 82.5378 59.3025C82.5378 59.667 82.5169 59.9951 82.4753 60.2868H77.5696C77.5904 60.9013 77.7414 61.4012 78.0227 61.7866C78.3039 62.172 78.7309 62.3646 79.3038 62.3646C80.0641 62.3646 80.5172 62.0314 80.663 61.3648H82.5221C82.3972 62.1251 82.0482 62.724 81.4754 63.1614C80.8817 63.6197 80.1578 63.8489 79.3038 63.8489C78.3039 63.8489 77.4654 63.4843 76.7884 62.7552C76.0906 61.9949 75.7417 61.0211 75.7417 59.8337C75.7417 58.6151 76.0906 57.636 76.7884 56.8965C77.455 56.1883 78.2935 55.8342 79.3038 55.8342C80.3557 55.8342 81.1733 56.2039 81.7566 56.9434ZM79.3194 57.3027C78.7986 57.3027 78.3924 57.4746 78.1008 57.8183C77.8091 58.1516 77.6373 58.5838 77.5852 59.115H80.8192C80.8192 58.2922 80.5588 57.7402 80.0381 57.459C79.8402 57.3548 79.6006 57.3027 79.3194 57.3027Z" fill="white"/>
<path d="M158.014 46.6298C158.014 43.5482 160.512 41.05 163.593 41.05H242.753C245.834 41.05 248.333 43.5482 248.333 46.6298V71.6298C248.333 74.7113 245.834 77.2095 242.753 77.2095H163.593C160.512 77.2095 158.014 74.7113 158.014 71.6298V46.6298Z" fill="#20C997"/>
<path d="M169.274 53.4902H177.398V55.0838H174.258V63.6296H172.414V55.0838H169.274V53.4902ZM182.948 56.9429C183.208 57.2762 183.401 57.6616 183.526 58.099C183.661 58.5365 183.729 58.9375 183.729 59.302C183.729 59.6666 183.708 59.9946 183.666 60.2863H178.761C178.781 60.9008 178.933 61.4007 179.214 61.7861C179.495 62.1715 179.922 62.3642 180.495 62.3642C181.255 62.3642 181.708 62.0309 181.854 61.3643H183.713C183.588 62.1246 183.239 62.7235 182.666 63.1609C182.073 63.6192 181.349 63.8484 180.495 63.8484C179.495 63.8484 178.656 63.4838 177.979 62.7547C177.282 61.9944 176.933 61.0206 176.933 59.8332C176.933 58.6146 177.282 57.6355 177.979 56.896C178.646 56.1878 179.485 55.8337 180.495 55.8337C181.547 55.8337 182.364 56.2034 182.948 56.9429ZM180.51 57.3022C179.99 57.3022 179.583 57.4741 179.292 57.8178C179 58.1511 178.828 58.5833 178.776 59.1145H182.01C182.01 58.2917 181.75 57.7397 181.229 57.4585C181.031 57.3543 180.792 57.3022 180.51 57.3022ZM192.685 57.4741C193.175 56.3805 194.034 55.8337 195.263 55.8337C196.169 55.8337 196.872 56.1409 197.372 56.7554C197.851 57.3387 198.091 58.1511 198.091 59.1927V63.6296H196.232V59.1927C196.232 58.6302 196.096 58.2084 195.825 57.9272C195.555 57.6355 195.174 57.4897 194.685 57.4897C194.195 57.4897 193.794 57.7032 193.482 58.1303C193.169 58.5573 193.003 59.2031 192.982 60.0676V63.6296H191.138V59.1927C191.138 58.6302 191.003 58.2084 190.732 57.9272C190.461 57.6355 190.081 57.4897 189.592 57.4897C189.102 57.4897 188.68 57.7085 188.326 58.1459C187.983 58.5833 187.8 59.2395 187.779 60.1144V63.6296H185.936V56.0368H187.545L187.748 57.3491C188.248 56.3388 189.05 55.8337 190.154 55.8337C190.79 55.8337 191.316 55.9795 191.732 56.2711C192.159 56.5627 192.477 56.9637 192.685 57.4741ZM202.453 57.0679C202.932 56.2451 203.661 55.8337 204.64 55.8337C205.578 55.8337 206.38 56.1878 207.046 56.896C207.755 57.646 208.109 58.625 208.109 59.8332C208.109 61.0518 207.749 62.0361 207.031 62.786C206.364 63.4942 205.567 63.8484 204.64 63.8484C203.713 63.8484 203.036 63.5724 202.609 63.0203V67.3323H200.766V56.0368H202.281L202.453 57.0679ZM204.312 62.1767C204.531 62.1767 204.755 62.1298 204.984 62.0361C205.224 61.9423 205.437 61.7965 205.625 61.5986C206.041 61.1612 206.25 60.5779 206.25 59.8488C206.25 59.1093 206.067 58.5313 205.703 58.1147C205.349 57.698 204.911 57.4897 204.39 57.4897C203.88 57.4897 203.458 57.6407 203.125 57.9428C202.802 58.2344 202.63 58.6563 202.609 59.2083V60.5675C202.609 61.057 202.781 61.4528 203.125 61.7549C203.448 62.0361 203.844 62.1767 204.312 62.1767ZM210.301 52.9121H212.145V63.6296H210.301V52.9121ZM217.546 59.1927C218.15 59.1927 218.848 59.2916 219.64 59.4895V58.7396C219.64 58.2084 219.53 57.8178 219.311 57.5678C219.103 57.3075 218.754 57.1773 218.265 57.1773C217.786 57.1773 217.416 57.2762 217.155 57.4741C216.895 57.6616 216.765 57.9324 216.765 58.2865H214.75C214.75 57.422 215.052 56.7971 215.656 56.4117C216.27 56.0264 217.124 55.8337 218.218 55.8337C219.78 55.8337 220.79 56.3805 221.249 57.4741C221.405 57.8491 221.483 58.2917 221.483 58.8021V63.6296H219.874L219.733 62.6141C219.244 63.437 218.494 63.8484 217.484 63.8484C216.505 63.8484 215.744 63.6088 215.203 63.1297C214.703 62.6714 214.453 62.0934 214.453 61.3955C214.453 60.6873 214.729 60.1457 215.281 59.7707C215.833 59.3853 216.588 59.1927 217.546 59.1927ZM219.64 60.6612C219.025 60.4946 218.452 60.4113 217.921 60.4113C216.921 60.4113 216.421 60.7446 216.421 61.4111C216.421 61.6924 216.536 61.9371 216.765 62.1454C216.994 62.3433 217.359 62.4423 217.859 62.4423C218.369 62.4423 218.786 62.2756 219.108 61.9423C219.442 61.5986 219.619 61.1716 219.64 60.6612ZM228.451 63.4422C227.763 63.713 227.222 63.8484 226.826 63.8484C226.43 63.8484 226.081 63.8015 225.779 63.7078C225.488 63.614 225.227 63.4734 224.998 63.2859C224.519 62.8589 224.279 62.2704 224.279 61.5205V57.271H223.217V56.0368H224.279V54.037H226.123V56.0368H228.185V57.271H226.123V61.458C226.123 62.0829 226.42 62.3954 227.013 62.3954C227.316 62.3954 227.706 62.3121 228.185 62.1454L228.451 63.4422ZM235.63 56.9429C235.891 57.2762 236.083 57.6616 236.208 58.099C236.344 58.5365 236.411 58.9375 236.411 59.302C236.411 59.6666 236.39 59.9946 236.349 60.2863H231.443C231.464 60.9008 231.615 61.4007 231.896 61.7861C232.177 62.1715 232.604 62.3642 233.177 62.3642C233.938 62.3642 234.391 62.0309 234.537 61.3643H236.396C236.271 62.1246 235.922 62.7235 235.349 63.1609C234.755 63.6192 234.031 63.8484 233.177 63.8484C232.177 63.8484 231.339 63.4838 230.662 62.7547C229.964 61.9944 229.615 61.0206 229.615 59.8332C229.615 58.6146 229.964 57.6355 230.662 56.896C231.329 56.1878 232.167 55.8337 233.177 55.8337C234.229 55.8337 235.047 56.2034 235.63 56.9429ZM233.193 57.3022C232.672 57.3022 232.266 57.4741 231.974 57.8178C231.683 58.1511 231.511 58.5833 231.459 59.1145H234.693C234.693 58.2917 234.432 57.7397 233.912 57.4585C233.714 57.3543 233.474 57.3022 233.193 57.3022Z" fill="white"/>
<path d="M99.9229 46.6298C99.9229 43.5482 102.421 41.05 105.503 41.05H146.662C149.744 41.05 152.242 43.5482 152.242 46.6298V71.6298C152.242 74.7113 149.744 77.2095 146.662 77.2095H105.503C102.421 77.2095 99.9229 74.7113 99.9229 71.6298V46.6298Z" fill="#FFC107"/>
<path d="M111.506 53.4902H119.63V55.0838H116.49V63.6296H114.646V55.0838H111.506V53.4902ZM122.746 55.8337C123.256 55.8337 123.735 55.917 124.183 56.0836C124.631 56.2399 125.016 56.4846 125.339 56.8179C126.058 57.547 126.417 58.5573 126.417 59.8488C126.417 61.1195 126.058 62.1194 125.339 62.8485C124.693 63.5151 123.829 63.8484 122.746 63.8484C121.662 63.8484 120.787 63.5151 120.121 62.8485C119.402 62.1298 119.043 61.1299 119.043 59.8488C119.043 58.5469 119.402 57.5366 120.121 56.8179C120.777 56.1618 121.652 55.8337 122.746 55.8337ZM124.573 59.8332C124.573 59.0312 124.417 58.4323 124.105 58.0365C123.792 57.6303 123.355 57.4272 122.792 57.4272C122.24 57.4272 121.787 57.6303 121.433 58.0365C121.079 58.4323 120.902 59.0312 120.902 59.8332C120.902 60.6352 121.058 61.2393 121.371 61.6455C121.694 62.0413 122.131 62.2392 122.683 62.2392C123.235 62.2392 123.688 62.0413 124.042 61.6455C124.396 61.2393 124.573 60.6352 124.573 59.8332ZM131.595 55.8337C132.105 55.8337 132.584 55.917 133.032 56.0836C133.48 56.2399 133.865 56.4846 134.188 56.8179C134.907 57.547 135.266 58.5573 135.266 59.8488C135.266 61.1195 134.907 62.1194 134.188 62.8485C133.542 63.5151 132.678 63.8484 131.595 63.8484C130.511 63.8484 129.637 63.5151 128.97 62.8485C128.251 62.1298 127.892 61.1299 127.892 59.8488C127.892 58.5469 128.251 57.5366 128.97 56.8179C129.626 56.1618 130.501 55.8337 131.595 55.8337ZM133.423 59.8332C133.423 59.0312 133.266 58.4323 132.954 58.0365C132.641 57.6303 132.204 57.4272 131.642 57.4272C131.089 57.4272 130.636 57.6303 130.282 58.0365C129.928 58.4323 129.751 59.0312 129.751 59.8332C129.751 60.6352 129.907 61.2393 130.22 61.6455C130.543 62.0413 130.98 62.2392 131.532 62.2392C132.084 62.2392 132.537 62.0413 132.891 61.6455C133.245 61.2393 133.423 60.6352 133.423 59.8332ZM137.46 52.9121H139.303V63.6296H137.46V52.9121Z" fill="white"/>
<path d="M157.788 5.57971C157.788 2.49812 160.286 0 163.367 0H242.921C246.002 0 248.5 2.49812 248.5 5.57971V30.5797C248.5 33.6613 246.002 36.1594 242.921 36.1594H163.367C160.286 36.1594 157.788 33.6613 157.788 30.5797V5.57971Z" fill="#D63384"/>
<path d="M172.42 12.4401H178.95V14.0337H174.263V16.7053H178.653V18.2988H174.263V20.9704H178.95V22.5796H172.42V12.4401ZM188.526 22.5796H186.276L184.402 20.1424L182.652 22.5796H180.386L183.339 18.7988L180.386 14.9711H182.652L184.511 17.4083L186.276 14.9711H188.526L185.589 18.7988L188.526 22.5796ZM192.74 18.1426C193.344 18.1426 194.042 18.2416 194.833 18.4394V17.6895C194.833 17.1583 194.724 16.7678 194.505 16.5178C194.297 16.2574 193.948 16.1272 193.459 16.1272C192.979 16.1272 192.61 16.2262 192.349 16.4241C192.089 16.6115 191.959 16.8823 191.959 17.2365H189.943C189.943 16.372 190.245 15.747 190.849 15.3617C191.464 14.9763 192.318 14.7836 193.412 14.7836C194.974 14.7836 195.984 15.3304 196.443 16.4241C196.599 16.799 196.677 17.2417 196.677 17.752V22.5796H195.068L194.927 21.5641C194.438 22.3869 193.688 22.7983 192.677 22.7983C191.698 22.7983 190.938 22.5588 190.396 22.0796C189.896 21.6214 189.646 21.0433 189.646 20.3455C189.646 19.6372 189.922 19.0956 190.474 18.7207C191.027 18.3353 191.782 18.1426 192.74 18.1426ZM194.833 19.6112C194.219 19.4445 193.646 19.3612 193.115 19.3612C192.115 19.3612 191.615 19.6945 191.615 20.3611C191.615 20.6423 191.73 20.8871 191.959 21.0954C192.188 21.2933 192.552 21.3922 193.052 21.3922C193.563 21.3922 193.979 21.2256 194.302 20.8923C194.635 20.5486 194.813 20.1215 194.833 19.6112ZM206.113 16.4241C206.603 15.3304 207.462 14.7836 208.691 14.7836C209.597 14.7836 210.3 15.0909 210.8 15.7054C211.279 16.2887 211.519 17.1011 211.519 18.1426V22.5796H209.66V18.1426C209.66 17.5802 209.524 17.1583 209.253 16.8771C208.983 16.5855 208.602 16.4397 208.113 16.4397C207.623 16.4397 207.222 16.6532 206.91 17.0802C206.597 17.5073 206.431 18.153 206.41 19.0175V22.5796H204.566V18.1426C204.566 17.5802 204.431 17.1583 204.16 16.8771C203.889 16.5855 203.509 16.4397 203.02 16.4397C202.53 16.4397 202.108 16.6584 201.754 17.0959C201.41 17.5333 201.228 18.1895 201.207 19.0644V22.5796H199.364V14.9867H200.973L201.176 16.2991C201.676 15.2888 202.478 14.7836 203.582 14.7836C204.217 14.7836 204.743 14.9294 205.16 15.2211C205.587 15.5127 205.905 15.9137 206.113 16.4241ZM215.881 16.0179C216.36 15.195 217.089 14.7836 218.068 14.7836C219.006 14.7836 219.808 15.1377 220.474 15.846C221.182 16.5959 221.537 17.575 221.537 18.7832C221.537 20.0018 221.177 20.986 220.459 21.7359C219.792 22.4442 218.995 22.7983 218.068 22.7983C217.141 22.7983 216.464 22.5223 216.037 21.9703V26.2823H214.194V14.9867H215.709L215.881 16.0179ZM217.74 21.1266C217.959 21.1266 218.183 21.0798 218.412 20.986C218.651 20.8923 218.865 20.7465 219.052 20.5486C219.469 20.1111 219.677 19.5279 219.677 18.7988C219.677 18.0593 219.495 17.4812 219.131 17.0646C218.776 16.648 218.339 16.4397 217.818 16.4397C217.308 16.4397 216.886 16.5907 216.553 16.8927C216.23 17.1844 216.058 17.6062 216.037 18.1582V19.5174C216.037 20.007 216.209 20.4028 216.553 20.7048C216.876 20.986 217.271 21.1266 217.74 21.1266ZM223.729 11.8621H225.573V22.5796H223.729V11.8621ZM233.77 15.8929C234.031 16.2262 234.224 16.6115 234.349 17.049C234.484 17.4864 234.552 17.8874 234.552 18.252C234.552 18.6165 234.531 18.9446 234.489 19.2362H229.583C229.604 19.8507 229.755 20.3507 230.037 20.7361C230.318 21.1214 230.745 21.3141 231.318 21.3141C232.078 21.3141 232.531 20.9808 232.677 20.3142H234.536C234.411 21.0746 234.062 21.6734 233.489 22.1109C232.896 22.5692 232.172 22.7983 231.318 22.7983C230.318 22.7983 229.479 22.4338 228.802 21.7047C228.104 20.9444 227.756 19.9705 227.756 18.7832C227.756 17.5645 228.104 16.5855 228.802 15.846C229.469 15.1377 230.307 14.7836 231.318 14.7836C232.37 14.7836 233.187 15.1534 233.77 15.8929ZM231.333 16.2522C230.813 16.2522 230.406 16.4241 230.115 16.7678C229.823 17.1011 229.651 17.5333 229.599 18.0645H232.833C232.833 17.2417 232.573 16.6896 232.052 16.4084C231.854 16.3043 231.614 16.2522 231.333 16.2522Z" fill="white"/>
<path d="M1 5.57971C1 2.49812 3.49812 0 6.57971 0H145.739C148.821 0 151.319 2.49812 151.319 5.57971V30.5797C151.319 33.6613 148.821 36.1594 145.739 36.1594H6.57971C3.49812 36.1594 1 33.6613 1 30.5797V5.57971Z" fill="#F0880D"/>
<path d="M12.3489 12.4401H20.473V14.0337H17.3327V22.5796H15.4892V14.0337H12.3489V12.4401ZM22.5394 16.4865C22.9976 15.3929 23.6851 14.8461 24.6016 14.8461C24.7787 14.8461 25.0026 14.8826 25.2734 14.9555L25.2422 16.799C24.9505 16.7365 24.6641 16.7053 24.3829 16.7053C23.1539 16.7053 22.5394 17.5541 22.5394 19.2519V22.5796H20.6958V14.9711H22.5394V16.4865ZM29.695 18.1426C30.2991 18.1426 30.997 18.2416 31.7885 18.4394V17.6895C31.7885 17.1583 31.6792 16.7678 31.4604 16.5178C31.2521 16.2574 30.9032 16.1272 30.4137 16.1272C29.9346 16.1272 29.5648 16.2262 29.3044 16.4241C29.0441 16.6115 28.9139 16.8823 28.9139 17.2365H26.8985C26.8985 16.372 27.2005 15.747 27.8046 15.3617C28.4191 14.9763 29.2732 14.7836 30.3668 14.7836C31.9291 14.7836 32.9394 15.3304 33.3977 16.4241C33.554 16.799 33.6321 17.2417 33.6321 17.752V22.5796H32.0229L31.8823 21.5641C31.3927 22.3869 30.6428 22.7983 29.6325 22.7983C28.6535 22.7983 27.8932 22.5588 27.3515 22.0796C26.8516 21.6214 26.6016 21.0433 26.6016 20.3455C26.6016 19.6372 26.8776 19.0956 27.4297 18.7207C27.9817 18.3353 28.7368 18.1426 29.695 18.1426ZM31.7885 19.6112C31.174 19.4445 30.6012 19.3612 30.07 19.3612C29.0701 19.3612 28.5702 19.6945 28.5702 20.3611C28.5702 20.6423 28.6847 20.8871 28.9139 21.0954C29.143 21.2933 29.5075 21.3922 30.0075 21.3922C30.5178 21.3922 30.9345 21.2256 31.2573 20.8923C31.5906 20.5486 31.7677 20.1215 31.7885 19.6112ZM36.4752 14.9711H38.3188V22.5796H36.4752V14.9711ZM36.2565 12.5339C36.2565 12.2006 36.3555 11.9402 36.5534 11.7527C36.7513 11.5548 37.0325 11.4559 37.397 11.4559C37.7511 11.4559 38.0271 11.5548 38.225 11.7527C38.4334 11.9402 38.5375 12.2006 38.5375 12.5339C38.5375 12.8672 38.4334 13.1328 38.225 13.3307C38.0271 13.5181 37.7511 13.6119 37.397 13.6119C37.0325 13.6119 36.7513 13.5181 36.5534 13.3307C36.3555 13.1328 36.2565 12.8672 36.2565 12.5339ZM43.2577 16.2991C43.7576 15.2888 44.5596 14.7836 45.6636 14.7836C46.601 14.7836 47.3041 15.0909 47.7728 15.7054C48.2519 16.3199 48.4914 17.1323 48.4914 18.1426V22.5796H46.6479V18.1426C46.6479 17.5802 46.5125 17.1583 46.2417 16.8771C45.9709 16.5855 45.5907 16.4397 45.1012 16.4397C44.6117 16.4397 44.1898 16.6584 43.8357 17.0959C43.492 17.5333 43.3097 18.1895 43.2889 19.0644V22.5796H41.4454V14.9867H43.0546L43.2577 16.2991ZM51.3356 14.9711H53.1791V22.5796H51.3356V14.9711ZM51.1169 12.5339C51.1169 12.2006 51.2158 11.9402 51.4137 11.7527C51.6116 11.5548 51.8928 11.4559 52.2573 11.4559C52.6115 11.4559 52.8875 11.5548 53.0854 11.7527C53.2937 11.9402 53.3978 12.2006 53.3978 12.5339C53.3978 12.8672 53.2937 13.1328 53.0854 13.3307C52.8875 13.5181 52.6115 13.6119 52.2573 13.6119C51.8928 13.6119 51.6116 13.5181 51.4137 13.3307C51.2158 13.1328 51.1169 12.8672 51.1169 12.5339ZM58.118 16.2991C58.6179 15.2888 59.4199 14.7836 60.524 14.7836C61.4614 14.7836 62.1644 15.0909 62.6331 15.7054C63.1122 16.3199 63.3518 17.1323 63.3518 18.1426V22.5796H61.5082V18.1426C61.5082 17.5802 61.3728 17.1583 61.102 16.8771C60.8312 16.5855 60.4511 16.4397 59.9615 16.4397C59.472 16.4397 59.0502 16.6584 58.6961 17.0959C58.3523 17.5333 58.1701 18.1895 58.1492 19.0644V22.5796H56.3057V14.9867H57.9149L58.118 16.2991ZM66.6959 19.4706C66.0813 18.9498 65.7741 18.2988 65.7741 17.5177C65.7741 16.6949 66.097 16.0283 66.7427 15.5179C67.3677 15.0284 68.0811 14.7836 68.8831 14.7836C69.6955 14.7836 70.3725 14.9346 70.9141 15.2367C70.9766 14.643 71.2318 14.1639 71.6797 13.7994C72.1171 13.4348 72.6327 13.2525 73.2264 13.2525L73.1326 15.018C72.2369 15.018 71.7734 15.3148 71.7422 15.9085C72.1275 16.3876 72.3202 16.8771 72.3202 17.3771C72.3202 17.877 72.2317 18.2988 72.0546 18.6425C71.8776 18.9758 71.638 19.2571 71.3359 19.4862C70.711 19.9861 69.9507 20.2361 69.055 20.2361C68.5446 20.2361 68.0811 20.158 67.6645 20.0018C67.2479 20.1267 67.0396 20.3767 67.0396 20.7517C67.0396 21.2204 67.4354 21.4547 68.2269 21.4547H70.7735C72.5025 21.4547 73.367 22.0588 73.367 23.267C73.367 23.6732 73.2628 24.069 73.0545 24.4544C72.8566 24.8502 72.565 25.1991 72.1796 25.5011C71.3255 26.1677 70.2527 26.501 68.9612 26.501C67.7114 26.501 66.6959 26.2458 65.9147 25.7355C65.1856 25.2459 64.8211 24.6471 64.8211 23.9388C64.8211 23.4701 64.9617 23.0952 65.2429 22.8139C65.5345 22.5431 65.9147 22.3713 66.3834 22.2984C65.7689 21.9234 65.4616 21.4599 65.4616 20.9079C65.4616 20.5434 65.5762 20.2413 65.8053 20.0018C66.0345 19.7518 66.3313 19.5747 66.6959 19.4706ZM68.1019 22.7514C67.1229 22.7931 66.6334 23.1629 66.6334 23.8607C66.6334 24.2148 66.8365 24.496 67.2427 24.7043C67.6593 24.9231 68.1488 25.0324 68.7113 25.0324C69.2737 25.0324 69.7111 24.9856 70.0236 24.8918C70.3465 24.7981 70.6173 24.6731 70.836 24.5169C71.3047 24.2044 71.539 23.8294 71.539 23.392C71.539 23.2045 71.4713 23.0483 71.3359 22.9233C71.211 22.8087 71.0235 22.7514 70.7735 22.7514H68.1019ZM70.4923 17.5021C70.4923 17.075 70.3725 16.7313 70.133 16.4709C69.9038 16.2001 69.5497 16.0647 69.0706 16.0647C68.5915 16.0647 68.2269 16.2001 67.977 16.4709C67.727 16.7313 67.602 17.075 67.602 17.5021C67.602 17.9187 67.727 18.2624 67.977 18.5332C68.2269 18.804 68.5915 18.9394 69.0706 18.9394C69.5497 18.9394 69.9038 18.804 70.133 18.5332C70.3725 18.2624 70.4923 17.9187 70.4923 17.5021ZM80.7717 16.0179C81.2509 15.195 81.9799 14.7836 82.959 14.7836C83.8964 14.7836 84.6984 15.1377 85.365 15.846C86.0732 16.5959 86.4273 17.575 86.4273 18.7832C86.4273 20.0018 86.068 20.986 85.3493 21.7359C84.6828 22.4442 83.886 22.7983 82.959 22.7983C82.032 22.7983 81.355 22.5223 80.928 21.9703V26.2823H79.0844V14.9867H80.5999L80.7717 16.0179ZM82.6309 21.1266C82.8496 21.1266 83.0736 21.0798 83.3027 20.986C83.5423 20.8923 83.7558 20.7465 83.9433 20.5486C84.3599 20.1111 84.5682 19.5279 84.5682 18.7988C84.5682 18.0593 84.3859 17.4812 84.0214 17.0646C83.6672 16.648 83.2298 16.4397 82.709 16.4397C82.1987 16.4397 81.7768 16.5907 81.4435 16.8927C81.1207 17.1844 80.9488 17.6062 80.928 18.1582V19.5174C80.928 20.007 81.0998 20.4028 81.4435 20.7048C81.7664 20.986 82.1622 21.1266 82.6309 21.1266ZM91.1198 18.1426C91.7239 18.1426 92.4217 18.2416 93.2133 18.4394V17.6895C93.2133 17.1583 93.1039 16.7678 92.8852 16.5178C92.6769 16.2574 92.328 16.1272 91.8384 16.1272C91.3593 16.1272 90.9896 16.2262 90.7292 16.4241C90.4688 16.6115 90.3386 16.8823 90.3386 17.2365H88.3232C88.3232 16.372 88.6253 15.747 89.2294 15.3617C89.8439 14.9763 90.698 14.7836 91.7916 14.7836C93.3539 14.7836 94.3642 15.3304 94.8225 16.4241C94.9787 16.799 95.0568 17.2417 95.0568 17.752V22.5796H93.4476L93.307 21.5641C92.8175 22.3869 92.0676 22.7983 91.0573 22.7983C90.0782 22.7983 89.3179 22.5588 88.7763 22.0796C88.2764 21.6214 88.0264 21.0433 88.0264 20.3455C88.0264 19.6372 88.3024 19.0956 88.8544 18.7207C89.4064 18.3353 90.1616 18.1426 91.1198 18.1426ZM93.2133 19.6112C92.5988 19.4445 92.0259 19.3612 91.4947 19.3612C90.4949 19.3612 89.9949 19.6945 89.9949 20.3611C89.9949 20.6423 90.1095 20.8871 90.3386 21.0954C90.5678 21.2933 90.9323 21.3922 91.4322 21.3922C91.9426 21.3922 92.3592 21.2256 92.6821 20.8923C93.0154 20.5486 93.1925 20.1215 93.2133 19.6112ZM100.634 14.7836C101.113 14.7836 101.54 14.8669 101.915 15.0336C102.301 15.1898 102.623 15.3981 102.884 15.6585C103.405 16.1585 103.712 16.7886 103.806 17.5489L101.946 17.5958C101.863 17.2625 101.707 16.9865 101.478 16.7678C101.259 16.549 101.004 16.4397 100.712 16.4397C100.421 16.4397 100.171 16.4865 99.9623 16.5803C99.754 16.6636 99.5717 16.799 99.4155 16.9865C99.0613 17.4239 98.8843 18.028 98.8843 18.7988C98.8843 19.5695 99.0509 20.1528 99.3842 20.5486C99.7175 20.9339 100.118 21.1266 100.587 21.1266C101.066 21.1266 101.41 21.0173 101.618 20.7985C101.837 20.5694 101.946 20.2622 101.946 19.8768H103.806C103.806 20.71 103.53 21.4026 102.978 21.9547C102.415 22.5171 101.629 22.7983 100.618 22.7983C99.6186 22.7983 98.7801 22.4338 98.1031 21.7047C97.3844 20.9235 97.0251 19.9497 97.0251 18.7832C97.0251 17.5541 97.3844 16.5699 98.1031 15.8304C98.7801 15.1325 99.6238 14.7836 100.634 14.7836ZM108.716 18.8769L107.872 19.5799V22.5796H106.028V11.8621H107.872V17.6583L110.872 14.9867H113.371L110.012 17.7989L113.559 22.5796H111.309L108.716 18.8769ZM117.514 18.1426C118.119 18.1426 118.816 18.2416 119.608 18.4394V17.6895C119.608 17.1583 119.499 16.7678 119.28 16.5178C119.072 16.2574 118.723 16.1272 118.233 16.1272C117.754 16.1272 117.384 16.2262 117.124 16.4241C116.863 16.6115 116.733 16.8823 116.733 17.2365H114.718C114.718 16.372 115.02 15.747 115.624 15.3617C116.239 14.9763 117.093 14.7836 118.186 14.7836C119.749 14.7836 120.759 15.3304 121.217 16.4241C121.373 16.799 121.451 17.2417 121.451 17.752V22.5796H119.842L119.702 21.5641C119.212 22.3869 118.462 22.7983 117.452 22.7983C116.473 22.7983 115.713 22.5588 115.171 22.0796C114.671 21.6214 114.421 21.0433 114.421 20.3455C114.421 19.6372 114.697 19.0956 115.249 18.7207C115.801 18.3353 116.556 18.1426 117.514 18.1426ZM119.608 19.6112C118.993 19.4445 118.421 19.3612 117.889 19.3612C116.89 19.3612 116.39 19.6945 116.39 20.3611C116.39 20.6423 116.504 20.8871 116.733 21.0954C116.962 21.2933 117.327 21.3922 117.827 21.3922C118.337 21.3922 118.754 21.2256 119.077 20.8923C119.41 20.5486 119.587 20.1215 119.608 19.6112ZM124.795 19.4706C124.18 18.9498 123.873 18.2988 123.873 17.5177C123.873 16.6949 124.196 16.0283 124.841 15.5179C125.466 15.0284 126.18 14.7836 126.982 14.7836C127.794 14.7836 128.471 14.9346 129.013 15.2367C129.075 14.643 129.331 14.1639 129.778 13.7994C130.216 13.4348 130.731 13.2525 131.325 13.2525L131.231 15.018C130.336 15.018 129.872 15.3148 129.841 15.9085C130.226 16.3876 130.419 16.8771 130.419 17.3771C130.419 17.877 130.33 18.2988 130.153 18.6425C129.976 18.9758 129.737 19.2571 129.435 19.4862C128.81 19.9861 128.049 20.2361 127.154 20.2361C126.643 20.2361 126.18 20.158 125.763 20.0018C125.347 20.1267 125.138 20.3767 125.138 20.7517C125.138 21.2204 125.534 21.4547 126.326 21.4547H128.872C130.601 21.4547 131.466 22.0588 131.466 23.267C131.466 23.6732 131.362 24.069 131.153 24.4544C130.955 24.8502 130.664 25.1991 130.278 25.5011C129.424 26.1677 128.351 26.501 127.06 26.501C125.81 26.501 124.795 26.2458 124.013 25.7355C123.284 25.2459 122.92 24.6471 122.92 23.9388C122.92 23.4701 123.06 23.0952 123.342 22.8139C123.633 22.5431 124.013 22.3713 124.482 22.2984C123.868 21.9234 123.56 21.4599 123.56 20.9079C123.56 20.5434 123.675 20.2413 123.904 20.0018C124.133 19.7518 124.43 19.5747 124.795 19.4706ZM126.201 22.7514C125.222 22.7931 124.732 23.1629 124.732 23.8607C124.732 24.2148 124.935 24.496 125.341 24.7043C125.758 24.9231 126.248 25.0324 126.81 25.0324C127.372 25.0324 127.81 24.9856 128.122 24.8918C128.445 24.7981 128.716 24.6731 128.935 24.5169C129.403 24.2044 129.638 23.8294 129.638 23.392C129.638 23.2045 129.57 23.0483 129.435 22.9233C129.31 22.8087 129.122 22.7514 128.872 22.7514H126.201ZM128.591 17.5021C128.591 17.075 128.471 16.7313 128.232 16.4709C128.003 16.2001 127.648 16.0647 127.169 16.0647C126.69 16.0647 126.326 16.2001 126.076 16.4709C125.826 16.7313 125.701 17.075 125.701 17.5021C125.701 17.9187 125.826 18.2624 126.076 18.5332C126.326 18.804 126.69 18.9394 127.169 18.9394C127.648 18.9394 128.003 18.804 128.232 18.5332C128.471 18.2624 128.591 17.9187 128.591 17.5021ZM138.528 15.8929C138.788 16.2262 138.981 16.6115 139.106 17.049C139.241 17.4864 139.309 17.8874 139.309 18.252C139.309 18.6165 139.288 18.9446 139.247 19.2362H134.341C134.362 19.8507 134.513 20.3507 134.794 20.7361C135.075 21.1214 135.502 21.3141 136.075 21.3141C136.835 21.3141 137.288 20.9808 137.434 20.3142H139.293C139.168 21.0746 138.819 21.6734 138.247 22.1109C137.653 22.5692 136.929 22.7983 136.075 22.7983C135.075 22.7983 134.237 22.4338 133.56 21.7047C132.862 20.9444 132.513 19.9705 132.513 18.7832C132.513 17.5645 132.862 16.5855 133.56 15.846C134.226 15.1377 135.065 14.7836 136.075 14.7836C137.127 14.7836 137.945 15.1534 138.528 15.8929ZM136.091 16.2522C135.57 16.2522 135.164 16.4241 134.872 16.7678C134.58 17.1011 134.409 17.5333 134.356 18.0645H137.59C137.59 17.2417 137.33 16.6896 136.809 16.4084C136.611 16.3043 136.372 16.2522 136.091 16.2522Z" fill="white"/>
</svg>
