<svg class="dollar" xmlns="http://www.w3.org/2000/svg">
  <path d="M19.6091 21.8812L9.48408 18.9188C8.31221 18.5813 7.49658 17.4844 7.49658 16.2656C7.49658 14.7375 8.73409 13.5 10.2622 13.5H16.4778C17.6216 13.5 18.7466 13.8469 19.6841 14.4844C20.256 14.8687 21.0247 14.775 21.5122 14.2969L24.7747 11.1094C25.4403 10.4625 25.3466 9.38437 24.606 8.8125C22.3091 7.0125 19.4403 6.00938 16.4966 6V1.5C16.4966 0.675 15.8216 0 14.9966 0H11.9966C11.1716 0 10.4966 0.675 10.4966 1.5V6H10.2622C4.29033 6 -0.509665 11.1281 0.0434595 17.2125C0.43721 21.5344 3.73721 25.05 7.89971 26.2688L17.5091 29.0813C18.681 29.4281 19.4966 30.5156 19.4966 31.7344C19.4966 33.2625 18.2591 34.5 16.731 34.5H10.5153C9.37158 34.5 8.24658 34.1531 7.30908 33.5156C6.73721 33.1312 5.96846 33.225 5.48096 33.7031L2.21846 36.8906C1.55283 37.5375 1.64658 38.6156 2.38721 39.1875C4.68408 40.9875 7.55283 41.9906 10.4966 42V46.5C10.4966 47.325 11.1716 48 11.9966 48H14.9966C15.8216 48 16.4966 47.325 16.4966 46.5V41.9812C20.8653 41.8969 24.9622 39.3 26.406 35.1656C28.4216 29.3906 25.0372 23.4656 19.6091 21.8812Z" />
</svg>
