<svg width="15" height="16" viewBox="0 0 15 16" fill="none" xmlns="http://www.w3.org/2000/svg">
<path d="M13.209 6H12.7611V2.56066C12.7611 2.36175 12.6903 2.17099 12.5643 2.03034L10.9421 0.219656C10.8161 0.0790133 10.6452 1.03999e-06 10.467 0L2.68242 0C2.31133 0 2.01051 0.335781 2.01051 0.75V6H1.56257C0.820391 6 0.21875 6.67156 0.21875 7.5V11.625C0.21875 11.8321 0.369174 12 0.554706 12H2.01051V15.25C2.01051 15.6642 2.31133 16 2.68242 16H12.0892C12.4603 16 12.7611 15.6642 12.7611 15.25V12H14.2169C14.4024 12 14.5529 11.8321 14.5529 11.625V7.5C14.5529 6.67156 13.9512 6 13.209 6ZM10.9693 14H3.80228V11H10.9693V14ZM3.80228 7V2H9.17757V3.25C9.17757 3.6625 9.47993 4 9.84948 4H10.9693V7H3.80228ZM12.3132 9.25C11.9421 9.25 11.6412 8.91419 11.6412 8.5C11.6412 8.08581 11.9421 7.75 12.3132 7.75C12.6842 7.75 12.9851 8.08581 12.9851 8.5C12.9851 8.91419 12.6842 9.25 12.3132 9.25Z" fill="#2D2D35"/>
</svg>
