<svg class="download" xmlns="http://www.w3.org/2000/svg">
  <path d="M6.9034 0H9.14311C9.51546 0 9.81502 0.334375 9.81502 0.75V6H12.2703C12.7686 6 13.0178 6.67188 12.665 7.06563L8.4068 11.8219C8.19683 12.0562 7.85248 12.0562 7.6425 11.8219L3.37867 7.06563C3.02591 6.67188 3.27508 6 3.77342 6H6.23149V0.75C6.23149 0.334375 6.53105 0 6.9034 0ZM15.1903 11.75V15.25C15.1903 15.6656 14.8907 16 14.5184 16H1.52811C1.15576 16 0.856201 15.6656 0.856201 15.25V11.75C0.856201 11.3344 1.15576 11 1.52811 11H5.63517L7.00699 12.5312C7.56971 13.1594 8.47679 13.1594 9.03952 12.5312L10.4113 11H14.5184C14.8907 11 15.1903 11.3344 15.1903 11.75ZM11.7188 14.5C11.7188 14.1562 11.4668 13.875 11.1588 13.875C10.8509 13.875 10.5989 14.1562 10.5989 14.5C10.5989 14.8438 10.8509 15.125 11.1588 15.125C11.4668 15.125 11.7188 14.8438 11.7188 14.5ZM13.5105 14.5C13.5105 14.1562 13.2586 13.875 12.9506 13.875C12.6426 13.875 12.3907 14.1562 12.3907 14.5C12.3907 14.8438 12.6426 15.125 12.9506 15.125C13.2586 15.125 13.5105 14.8438 13.5105 14.5Z" />
</svg>
