<svg class="print" xmlns="http://www.w3.org/2000/svg">
  <path d="M14.5 6H14V2.56066C14 2.36175 13.921 2.17099 13.7803 2.03034L11.9697 0.219656C11.829 0.0790133 11.6382 1.03999e-06 11.4393 0L2.75 0C2.33578 0 2 0.335781 2 0.75V6H1.5C0.671562 6 0 6.67156 0 7.5V11.625C0 11.8321 0.167906 12 0.375 12H2V15.25C2 15.6642 2.33578 16 2.75 16H13.25C13.6642 16 14 15.6642 14 15.25V12H15.625C15.8321 12 16 11.8321 16 11.625V7.5C16 6.67156 15.3284 6 14.5 6ZM12 14H4V11H12V14ZM4 7V2H10V3.25C10 3.6625 10.3375 4 10.75 4H12V7H4ZM13.5 9.25C13.0858 9.25 12.75 8.91419 12.75 8.5C12.75 8.08581 13.0858 7.75 13.5 7.75C13.9142 7.75 14.25 8.08581 14.25 8.5C14.25 8.91419 13.9142 9.25 13.5 9.25Z" />
</svg>
