<svg width="48" height="43" viewBox="0 0 48 43" fill="none" xmlns="http://www.w3.org/2000/svg">
<path d="M18.1808 35.5775C17.9349 35.081 17.5066 35.0306 17.3333 35.0306C17.1599 35.0306 16.7316 35.0801 16.4983 35.5499L15.8591 36.8366C15.3283 37.9086 13.7733 37.7903 13.4024 36.6613L11.9999 32.4278L11.1158 35.1019C10.625 36.5833 9.25079 37.5789 7.69913 37.5789H6.66664C5.92997 37.5789 5.33331 36.9784 5.33331 36.2368C5.33331 35.4953 5.92997 34.8947 6.66664 34.8947H7.69913C8.10163 34.8947 8.4583 34.6364 8.5858 34.2522L10.1016 29.6689C10.3766 28.846 11.1383 28.2924 11.9999 28.2924C12.8616 28.2924 13.6233 28.8452 13.8974 29.6689L15.0541 33.1617C16.6999 31.8037 19.5591 32.3481 20.5541 34.3495C20.7116 34.6666 21.0116 34.8486 21.3341 34.8746V27.9863L32.0007 17.3257V13.4211H20.6666C19.5666 13.4211 18.6666 12.5151 18.6666 11.4079V0H1.99999C0.891663 0 0 0.897533 0 2.01316V40.9342C0 42.0498 0.891663 42.9474 1.99999 42.9474H29.9999C31.1082 42.9474 31.9999 42.0498 31.9999 40.9342V37.5789L21.3332 37.5697C19.9899 37.5437 18.7849 36.7913 18.1808 35.5775V35.5775ZM31.9999 10.2252C31.9999 9.69671 31.7915 9.18503 31.4165 8.80757L23.2582 0.587171C22.8832 0.209704 22.3749 0 21.8416 0H21.3332V10.7368H31.9999V10.2252ZM23.9999 29.1036V34.8947H29.749L43.2223 21.2405L37.5657 15.5466L23.9999 29.1036V29.1036ZM47.3781 14.0359L44.7223 11.3626C43.894 10.5288 42.5498 10.5288 41.7215 11.3626L39.4507 13.6484L45.1073 19.3423L47.3781 17.0565C48.2073 16.2227 48.2073 14.8697 47.3781 14.0359Z" fill="#46B754"/>
</svg>
