<svg width="48" height="33" viewBox="0 0 48 33" fill="none" xmlns="http://www.w3.org/2000/svg">
<path d="M7.2 14.026C9.8475 14.026 12 11.9294 12 9.35065C12 6.77192 9.8475 4.67532 7.2 4.67532C4.5525 4.67532 2.4 6.77192 2.4 9.35065C2.4 11.9294 4.5525 14.026 7.2 14.026ZM40.8 14.026C43.4475 14.026 45.6 11.9294 45.6 9.35065C45.6 6.77192 43.4475 4.67532 40.8 4.67532C38.1525 4.67532 36 6.77192 36 9.35065C36 11.9294 38.1525 14.026 40.8 14.026ZM43.2 16.3636H38.4C37.08 16.3636 35.8875 16.8823 35.0175 17.7224C38.04 19.3369 40.185 22.2516 40.65 25.7143H45.6C46.9275 25.7143 48 24.6696 48 23.3766V21.039C48 18.4602 45.8475 16.3636 43.2 16.3636ZM24 16.3636C28.6425 16.3636 32.4 12.7037 32.4 8.18182C32.4 3.6599 28.6425 0 24 0C19.3575 0 15.6 3.6599 15.6 8.18182C15.6 12.7037 19.3575 16.3636 24 16.3636ZM29.76 18.7013H29.1375C27.5775 19.4318 25.845 19.8701 24 19.8701C22.155 19.8701 20.43 19.4318 18.8625 18.7013H18.24C13.47 18.7013 9.6 22.4708 9.6 27.1169V29.2208C9.6 31.1567 11.2125 32.7273 13.2 32.7273H34.8C36.7875 32.7273 38.4 31.1567 38.4 29.2208V27.1169C38.4 22.4708 34.53 18.7013 29.76 18.7013ZM12.9825 17.7224C12.1125 16.8823 10.92 16.3636 9.6 16.3636H4.8C2.1525 16.3636 0 18.4602 0 21.039V23.3766C0 24.6696 1.0725 25.7143 2.4 25.7143H7.3425C7.815 22.2516 9.96 19.3369 12.9825 17.7224Z" fill="#46B754"/>
</svg>
