<svg class="scales-of-justice" xmlns="http://www.w3.org/2000/svg">
  <path d="M19.2 25.2H19.1985C19.1985 23.9865 19.299 24.5453 12.8197 11.5868C11.496 8.94 7.7055 8.93475 6.3795 11.5868C-0.1545 24.6563 0.0015 24.0248 0.0015 25.2H0C0 28.5135 4.29825 31.2 9.6 31.2C14.9018 31.2 19.2 28.5135 19.2 25.2ZM9.6 13.2L15 24H4.2L9.6 13.2ZM47.9985 25.2C47.9985 23.9865 48.099 24.5453 41.6198 11.5868C40.296 8.94 36.5055 8.93475 35.1795 11.5868C28.6455 24.6563 28.8015 24.0248 28.8015 25.2H28.8C28.8 28.5135 33.0983 31.2 38.4 31.2C43.7018 31.2 48 28.5135 48 25.2H47.9985ZM33 24L38.4 13.2L43.8 24H33ZM39.6 33.6H26.4V11.4938C28.1633 10.722 29.487 9.13275 29.8793 7.2H39.6C40.263 7.2 40.8 6.663 40.8 6V3.6C40.8 2.937 40.263 2.4 39.6 2.4H28.773C27.678 0.951 25.9568 0 24 0C22.0433 0 20.322 0.951 19.227 2.4H8.4C7.737 2.4 7.2 2.937 7.2 3.6V6C7.2 6.663 7.737 7.2 8.4 7.2H18.1208C18.513 9.132 19.836 10.722 21.6 11.4938V33.6H8.4C7.737 33.6 7.2 34.137 7.2 34.8V37.2C7.2 37.863 7.737 38.4 8.4 38.4H39.6C40.263 38.4 40.8 37.863 40.8 37.2V34.8C40.8 34.137 40.263 33.6 39.6 33.6Z" />
</svg>
