<svg width="583" height="156" viewBox="0 0 583 156" fill="none" xmlns="http://www.w3.org/2000/svg">
<rect width="583" height="156" fill="#F2F2F2"/>
<rect x="0.5" y="0.5" width="582" height="155" stroke="#2D2D35" stroke-opacity="0.25"/>
<path d="M22.542 21.746C23.222 21.746 23.8113 21.831 24.31 22.001C24.8087 22.1597 25.2393 22.3863 25.602 22.681C26.316 23.259 26.7807 24.0693 26.996 25.112L24.854 25.503C24.6727 24.925 24.3893 24.4603 24.004 24.109C23.63 23.7463 23.1597 23.565 22.593 23.565C21.8223 23.565 21.199 23.888 20.723 24.534C20.213 25.2367 19.958 26.2113 19.958 27.458C19.958 28.6933 20.1847 29.6623 20.638 30.365C21.0913 31.0563 21.709 31.402 22.491 31.402C23.273 31.402 23.8623 31.215 24.259 30.841C24.6557 30.4557 24.854 29.9627 24.854 29.362H27.013C27.013 30.5973 26.6163 31.555 25.823 32.235C25.041 32.9037 23.9643 33.238 22.593 33.238C21.131 33.238 19.9693 32.728 19.108 31.708C18.2353 30.6653 17.799 29.2487 17.799 27.458C17.799 25.6447 18.2467 24.228 19.142 23.208C20.0033 22.2333 21.1367 21.746 22.542 21.746ZM32.0754 28.172C32.7327 28.172 33.4921 28.2797 34.3534 28.495V27.679C34.3534 27.101 34.2344 26.676 33.9964 26.404C33.7697 26.1207 33.3901 25.979 32.8574 25.979C32.3361 25.979 31.9337 26.0867 31.6504 26.302C31.3671 26.506 31.2254 26.8007 31.2254 27.186H29.0324C29.0324 26.2453 29.3611 25.5653 30.0184 25.146C30.6871 24.7267 31.6164 24.517 32.8064 24.517C34.5064 24.517 35.6057 25.112 36.1044 26.302C36.2744 26.71 36.3594 27.1917 36.3594 27.747V33H34.6084L34.4554 31.895C33.9227 32.7903 33.1067 33.238 32.0074 33.238C30.9421 33.238 30.1147 32.9773 29.5254 32.456C28.9814 31.9573 28.7094 31.3283 28.7094 30.569C28.7094 29.7983 29.0097 29.209 29.6104 28.801C30.2111 28.3817 31.0327 28.172 32.0754 28.172ZM34.3534 29.77C33.6847 29.5887 33.0614 29.498 32.4834 29.498C31.3954 29.498 30.8514 29.8607 30.8514 30.586C30.8514 30.892 30.9761 31.1583 31.2254 31.385C31.4747 31.6003 31.8714 31.708 32.4154 31.708C32.9707 31.708 33.4241 31.5267 33.7754 31.164C34.1381 30.79 34.3307 30.3253 34.3534 29.77ZM41.1191 25.86C41.6405 24.9647 42.4338 24.517 43.4991 24.517C44.5191 24.517 45.3918 24.9023 46.1171 25.673C46.8878 26.489 47.2731 27.5543 47.2731 28.869C47.2731 30.195 46.8821 31.266 46.1001 32.082C45.3748 32.8527 44.5078 33.238 43.4991 33.238C42.4905 33.238 41.7538 32.9377 41.2891 32.337V37.029H39.2831V24.738H40.9321L41.1191 25.86ZM43.1421 31.419C43.3801 31.419 43.6238 31.368 43.8731 31.266C44.1338 31.164 44.3661 31.0053 44.5701 30.79C45.0235 30.314 45.2501 29.6793 45.2501 28.886C45.2501 28.0813 45.0518 27.4523 44.6551 26.999C44.2698 26.5457 43.7938 26.319 43.2271 26.319C42.6718 26.319 42.2128 26.4833 41.8501 26.812C41.4988 27.1293 41.3118 27.5883 41.2891 28.189V29.668C41.2891 30.2007 41.4761 30.6313 41.8501 30.96C42.2015 31.266 42.6321 31.419 43.1421 31.419ZM52.3791 28.172C53.0365 28.172 53.7958 28.2797 54.6571 28.495V27.679C54.6571 27.101 54.5381 26.676 54.3001 26.404C54.0735 26.1207 53.6938 25.979 53.1611 25.979C52.6398 25.979 52.2375 26.0867 51.9541 26.302C51.6708 26.506 51.5291 26.8007 51.5291 27.186H49.3361C49.3361 26.2453 49.6648 25.5653 50.3221 25.146C50.9908 24.7267 51.9201 24.517 53.1101 24.517C54.8101 24.517 55.9095 25.112 56.4081 26.302C56.5781 26.71 56.6631 27.1917 56.6631 27.747V33H54.9121L54.7591 31.895C54.2265 32.7903 53.4105 33.238 52.3111 33.238C51.2458 33.238 50.4185 32.9773 49.8291 32.456C49.2851 31.9573 49.0131 31.3283 49.0131 30.569C49.0131 29.7983 49.3135 29.209 49.9141 28.801C50.5148 28.3817 51.3365 28.172 52.3791 28.172ZM54.6571 29.77C53.9885 29.5887 53.3651 29.498 52.7871 29.498C51.6991 29.498 51.1551 29.8607 51.1551 30.586C51.1551 30.892 51.2798 31.1583 51.5291 31.385C51.7785 31.6003 52.1751 31.708 52.7191 31.708C53.2745 31.708 53.7278 31.5267 54.0791 31.164C54.4418 30.79 54.6345 30.3253 54.6571 29.77ZM62.7319 24.517C63.2532 24.517 63.7179 24.6077 64.1259 24.789C64.5452 24.959 64.8965 25.1857 65.1799 25.469C65.7465 26.013 66.0809 26.6987 66.1829 27.526L64.1599 27.577C64.0692 27.2143 63.8992 26.914 63.6499 26.676C63.4119 26.438 63.1342 26.319 62.8169 26.319C62.4995 26.319 62.2275 26.37 62.0009 26.472C61.7742 26.5627 61.5759 26.71 61.4059 26.914C61.0205 27.39 60.8279 28.0473 60.8279 28.886C60.8279 29.7247 61.0092 30.3593 61.3719 30.79C61.7345 31.2093 62.1709 31.419 62.6809 31.419C63.2022 31.419 63.5762 31.3 63.8029 31.062C64.0409 30.8127 64.1599 30.4783 64.1599 30.059H66.1829C66.1829 30.9657 65.8825 31.7193 65.2819 32.32C64.6699 32.932 63.8142 33.238 62.7149 33.238C61.6269 33.238 60.7145 32.8413 59.9779 32.048C59.1959 31.198 58.8049 30.1383 58.8049 28.869C58.8049 27.5317 59.1959 26.4607 59.9779 25.656C60.7145 24.8967 61.6325 24.517 62.7319 24.517ZM68.7715 24.721H70.7775V33H68.7715V24.721ZM68.5335 22.069C68.5335 21.7063 68.6412 21.423 68.8565 21.219C69.0718 21.0037 69.3778 20.896 69.7745 20.896C70.1598 20.896 70.4602 21.0037 70.6755 21.219C70.9022 21.423 71.0155 21.7063 71.0155 22.069C71.0155 22.4317 70.9022 22.7207 70.6755 22.936C70.4602 23.14 70.1598 23.242 69.7745 23.242C69.3778 23.242 69.0718 23.14 68.8565 22.936C68.6412 22.7207 68.5335 22.4317 68.5335 22.069ZM78.8376 32.796C78.0896 33.0907 77.5003 33.238 77.0696 33.238C76.639 33.238 76.2593 33.187 75.9306 33.085C75.6133 32.983 75.33 32.83 75.0806 32.626C74.5593 32.1613 74.2986 31.521 74.2986 30.705V26.081H73.1426V24.738H74.2986V22.562H76.3046V24.738H78.5486V26.081H76.3046V30.637C76.3046 31.317 76.6276 31.657 77.2736 31.657C77.6023 31.657 78.0273 31.5663 78.5486 31.385L78.8376 32.796ZM81.9067 24.738L83.8957 30.688L85.6297 24.738H87.6697L84.5077 34.496C84.179 35.482 83.7767 36.1903 83.3007 36.621C82.836 37.0517 82.241 37.267 81.5157 37.267C80.779 37.267 80.0423 37.0857 79.3057 36.723V34.955C79.895 35.329 80.49 35.516 81.0907 35.516C81.4873 35.516 81.8103 35.3573 82.0597 35.04C82.3203 34.7227 82.53 34.309 82.6887 33.799L82.9437 33L79.6287 24.738H81.9067ZM99.5499 25.01C99.3685 24.0467 98.6885 23.565 97.5099 23.565C96.9319 23.565 96.4785 23.684 96.1499 23.922C95.8325 24.1487 95.6739 24.4263 95.6739 24.755C95.6739 25.0837 95.7759 25.3443 95.9799 25.537C96.1952 25.7183 96.5239 25.8883 96.9659 26.047L99.3629 26.982C100.179 27.2993 100.808 27.7017 101.25 28.189C101.692 28.665 101.913 29.2657 101.913 29.991C101.913 30.9883 101.539 31.7817 100.791 32.371C100.043 32.949 98.9775 33.238 97.5949 33.238C96.3709 33.238 95.3792 32.9377 94.6199 32.337C93.7699 31.6797 93.3222 30.7503 93.2769 29.549H95.2659C95.2659 30.4557 95.7362 31.028 96.6769 31.266C96.9602 31.3453 97.3342 31.385 97.7989 31.385C98.2635 31.385 98.6942 31.2717 99.0909 31.045C99.4875 30.807 99.6859 30.4953 99.6859 30.11C99.6859 29.7133 99.5782 29.413 99.3629 29.209C99.1475 28.9937 98.7962 28.7953 98.3089 28.614L96.1159 27.747C95.2659 27.4183 94.6142 27.033 94.1609 26.591C93.7075 26.149 93.4809 25.537 93.4809 24.755C93.4809 23.837 93.8379 23.1117 94.5519 22.579C95.2772 22.0237 96.2575 21.746 97.4929 21.746C98.7395 21.746 99.6972 22.035 100.366 22.613C101.046 23.1797 101.437 23.9787 101.539 25.01H99.5499ZM107.739 24.517C108.26 24.517 108.725 24.6077 109.133 24.789C109.552 24.959 109.903 25.1857 110.187 25.469C110.753 26.013 111.088 26.6987 111.19 27.526L109.167 27.577C109.076 27.2143 108.906 26.914 108.657 26.676C108.419 26.438 108.141 26.319 107.824 26.319C107.506 26.319 107.234 26.37 107.008 26.472C106.781 26.5627 106.583 26.71 106.413 26.914C106.027 27.39 105.835 28.0473 105.835 28.886C105.835 29.7247 106.016 30.3593 106.379 30.79C106.741 31.2093 107.178 31.419 107.688 31.419C108.209 31.419 108.583 31.3 108.81 31.062C109.048 30.8127 109.167 30.4783 109.167 30.059H111.19C111.19 30.9657 110.889 31.7193 110.289 32.32C109.677 32.932 108.821 33.238 107.722 33.238C106.634 33.238 105.721 32.8413 104.985 32.048C104.203 31.198 103.812 30.1383 103.812 28.869C103.812 27.5317 104.203 26.4607 104.985 25.656C105.721 24.8967 106.639 24.517 107.739 24.517ZM116.855 24.517C117.411 24.517 117.932 24.6077 118.419 24.789C118.907 24.959 119.326 25.2253 119.677 25.588C120.459 26.3813 120.85 27.4807 120.85 28.886C120.85 30.2687 120.459 31.3567 119.677 32.15C118.975 32.8753 118.034 33.238 116.855 33.238C115.677 33.238 114.725 32.8753 113.999 32.15C113.217 31.368 112.826 30.28 112.826 28.886C112.826 27.4693 113.217 26.37 113.999 25.588C114.713 24.874 115.665 24.517 116.855 24.517ZM118.844 28.869C118.844 27.9963 118.674 27.3447 118.334 26.914C117.994 26.472 117.518 26.251 116.906 26.251C116.306 26.251 115.813 26.472 115.427 26.914C115.042 27.3447 114.849 27.9963 114.849 28.869C114.849 29.7417 115.019 30.399 115.359 30.841C115.711 31.2717 116.187 31.487 116.787 31.487C117.388 31.487 117.881 31.2717 118.266 30.841C118.652 30.399 118.844 29.7417 118.844 28.869ZM125.243 26.37C125.742 25.18 126.49 24.585 127.487 24.585C127.68 24.585 127.924 24.6247 128.218 24.704L128.184 26.71C127.867 26.642 127.555 26.608 127.249 26.608C125.912 26.608 125.243 27.5317 125.243 29.379V33H123.237V24.721H125.243V26.37ZM136.073 25.724C136.356 26.0867 136.566 26.506 136.702 26.982C136.849 27.458 136.923 27.8943 136.923 28.291C136.923 28.6877 136.9 29.0447 136.855 29.362H131.517C131.539 30.0307 131.704 30.5747 132.01 30.994C132.316 31.4133 132.78 31.623 133.404 31.623C134.231 31.623 134.724 31.2603 134.883 30.535H136.906C136.77 31.3623 136.39 32.014 135.767 32.49C135.121 32.9887 134.333 33.238 133.404 33.238C132.316 33.238 131.403 32.8413 130.667 32.048C129.907 31.2207 129.528 30.161 129.528 28.869C129.528 27.543 129.907 26.4777 130.667 25.673C131.392 24.9023 132.304 24.517 133.404 24.517C134.548 24.517 135.438 24.9193 136.073 25.724ZM133.421 26.115C132.854 26.115 132.412 26.302 132.095 26.676C131.777 27.0387 131.59 27.509 131.534 28.087H135.053C135.053 27.1917 134.769 26.591 134.203 26.285C133.987 26.1717 133.727 26.115 133.421 26.115ZM145.63 31.249H150.169V33H143.624V21.967H145.63V31.249ZM157.787 25.724C158.071 26.0867 158.28 26.506 158.416 26.982C158.564 27.458 158.637 27.8943 158.637 28.291C158.637 28.6877 158.615 29.0447 158.569 29.362H153.231C153.254 30.0307 153.418 30.5747 153.724 30.994C154.03 31.4133 154.495 31.623 155.118 31.623C155.946 31.623 156.439 31.2603 156.597 30.535H158.62C158.484 31.3623 158.105 32.014 157.481 32.49C156.835 32.9887 156.048 33.238 155.118 33.238C154.03 33.238 153.118 32.8413 152.381 32.048C151.622 31.2207 151.242 30.161 151.242 28.869C151.242 27.543 151.622 26.4777 152.381 25.673C153.107 24.9023 154.019 24.517 155.118 24.517C156.263 24.517 157.153 24.9193 157.787 25.724ZM155.135 26.115C154.569 26.115 154.127 26.302 153.809 26.676C153.492 27.0387 153.305 27.509 153.248 28.087H156.767C156.767 27.1917 156.484 26.591 155.917 26.285C155.702 26.1717 155.441 26.115 155.135 26.115ZM161.974 24.738L163.861 31.011L165.765 24.738H168.077L165 33H162.739L159.662 24.738H161.974ZM175.617 25.724C175.901 26.0867 176.11 26.506 176.246 26.982C176.394 27.458 176.467 27.8943 176.467 28.291C176.467 28.6877 176.445 29.0447 176.399 29.362H171.061C171.084 30.0307 171.248 30.5747 171.554 30.994C171.86 31.4133 172.325 31.623 172.948 31.623C173.776 31.623 174.269 31.2603 174.427 30.535H176.45C176.314 31.3623 175.935 32.014 175.311 32.49C174.665 32.9887 173.878 33.238 172.948 33.238C171.86 33.238 170.948 32.8413 170.211 32.048C169.452 31.2207 169.072 30.161 169.072 28.869C169.072 27.543 169.452 26.4777 170.211 25.673C170.937 24.9023 171.849 24.517 172.948 24.517C174.093 24.517 174.983 24.9193 175.617 25.724ZM172.965 26.115C172.399 26.115 171.957 26.302 171.639 26.676C171.322 27.0387 171.135 27.509 171.078 28.087H174.597C174.597 27.1917 174.314 26.591 173.747 26.285C173.532 26.1717 173.271 26.115 172.965 26.115ZM178.869 21.338H180.875V33H178.869V21.338ZM185.154 30.484C185.177 31.266 185.749 31.657 186.871 31.657C187.302 31.657 187.653 31.5663 187.925 31.385C188.209 31.1923 188.35 30.9713 188.35 30.722C188.35 30.4727 188.265 30.28 188.095 30.144C187.925 30.008 187.659 29.8833 187.296 29.77L185.494 29.124C184.157 28.6593 183.488 27.9 183.488 26.846C183.488 26.1433 183.8 25.5823 184.423 25.163C185.058 24.7323 185.902 24.517 186.956 24.517C188.022 24.517 188.838 24.7493 189.404 25.214C189.982 25.6787 190.283 26.2623 190.305 26.965H188.418C188.396 26.693 188.265 26.4777 188.027 26.319C187.789 26.1603 187.449 26.081 187.007 26.081C186.565 26.081 186.22 26.1717 185.97 26.353C185.732 26.523 185.613 26.7213 185.613 26.948C185.613 27.3447 185.948 27.6393 186.616 27.832L188.571 28.563C189.217 28.7783 189.71 29.056 190.05 29.396C190.402 29.7247 190.577 30.1553 190.577 30.688C190.577 31.368 190.254 31.9573 189.608 32.456C188.94 32.9773 188.056 33.238 186.956 33.238C185.857 33.238 184.973 33 184.304 32.524C183.636 32.0367 183.296 31.3567 183.284 30.484H185.154Z" fill="black"/>
<line x1="48" y1="72.5" x2="531" y2="72.5" stroke="#2D2D35" stroke-opacity="0.25"/>
<circle cx="47" cy="73" r="14" fill="#E93939"/>
<circle cx="168" cy="73" r="14" fill="#FFCA1E"/>
<circle cx="291" cy="73" r="14" fill="#FFCA1E"/>
<circle cx="418" cy="73" r="14" fill="#46B754"/>
<circle cx="535" cy="73" r="14" fill="#46B754"/>
<path d="M45.3595 69.8C45.9595 69.712 46.4875 69.5 46.9435 69.164H48.0115V77H46.5955V70.856C46.1875 71.056 45.7755 71.156 45.3595 71.156V69.8Z" fill="white"/>
<path d="M166.503 75.704H170.955V77H165.087V75.668C165.087 74.732 165.419 74.052 166.083 73.628C166.307 73.484 166.567 73.356 166.863 73.244L168.459 72.632C168.811 72.496 169.067 72.328 169.227 72.128C169.395 71.92 169.479 71.664 169.479 71.36C169.479 71.056 169.371 70.804 169.155 70.604C168.939 70.396 168.631 70.292 168.231 70.292C167.831 70.292 167.499 70.388 167.235 70.58C166.979 70.772 166.831 71.056 166.791 71.432H165.219C165.235 70.672 165.527 70.076 166.095 69.644C166.615 69.252 167.315 69.056 168.195 69.056C169.003 69.056 169.671 69.272 170.199 69.704C170.735 70.152 171.003 70.7 171.003 71.348C171.003 71.996 170.839 72.516 170.511 72.908C170.191 73.292 169.691 73.616 169.011 73.88L167.391 74.504C167.079 74.624 166.851 74.76 166.707 74.912C166.571 75.056 166.503 75.244 166.503 75.476V75.704Z" fill="white"/>
<path d="M290.976 70.34C290.104 70.34 289.596 70.672 289.452 71.336H287.964C288.044 70.568 288.356 69.988 288.9 69.596C289.412 69.236 290.084 69.056 290.916 69.056C291.772 69.056 292.468 69.256 293.004 69.656C293.564 70.064 293.844 70.588 293.844 71.228C293.844 71.628 293.736 71.976 293.52 72.272C293.304 72.56 292.984 72.776 292.56 72.92C293.032 73.08 293.408 73.32 293.688 73.64C293.976 73.952 294.12 74.312 294.12 74.72C294.12 75.128 294.044 75.476 293.892 75.764C293.748 76.052 293.54 76.3 293.268 76.508C292.692 76.948 291.944 77.168 291.024 77.168C290.144 77.168 289.404 76.944 288.804 76.496C288.132 76.008 287.796 75.36 287.796 74.552H289.308C289.332 74.96 289.496 75.28 289.8 75.512C290.112 75.744 290.516 75.86 291.012 75.86C291.508 75.86 291.892 75.752 292.164 75.536C292.444 75.312 292.584 75.032 292.584 74.696C292.584 74.352 292.456 74.084 292.2 73.892C291.952 73.7 291.556 73.604 291.012 73.604H289.98V72.488H290.868C291.324 72.488 291.68 72.392 291.936 72.2C292.192 72 292.32 71.74 292.32 71.42C292.32 71.1 292.208 70.84 291.984 70.64C291.768 70.44 291.432 70.34 290.976 70.34Z" fill="white"/>
<path d="M420.048 69.128V74.06H421.404V75.272H420.048V77H418.644V75.272H414.696V74.204L418.68 69.128H420.048ZM416.376 74.204H418.716V71.228L416.376 74.204Z" fill="white"/>
<path d="M534.636 72.26C535.068 72.188 535.48 72.152 535.872 72.152C536.68 72.152 537.324 72.348 537.804 72.74C538.284 73.124 538.524 73.68 538.524 74.408C538.524 75.2 538.256 75.852 537.72 76.364C537.152 76.9 536.436 77.168 535.572 77.168C534.716 77.168 534.032 76.952 533.52 76.52C532.984 76.072 532.708 75.456 532.692 74.672H534.144C534.144 75.08 534.28 75.38 534.552 75.572C534.824 75.764 535.172 75.86 535.596 75.86C536.02 75.86 536.368 75.724 536.64 75.452C536.92 75.172 537.06 74.824 537.06 74.408C537.06 73.616 536.524 73.22 535.452 73.22H533.076L533.436 69.212H538.104V70.508H534.804L534.636 72.26Z" fill="white"/>
<path d="M41.4332 99.452L45.1772 105.512V99.452H46.1252V107H45.0692L41.2652 100.856V107H40.3052V99.452H41.4332ZM50.608 101.12C51.408 101.12 52.052 101.38 52.54 101.9C53.036 102.42 53.284 103.164 53.284 104.132C53.284 105.092 53.036 105.832 52.54 106.352C52.052 106.872 51.408 107.132 50.608 107.132C49.808 107.132 49.16 106.872 48.664 106.352C48.176 105.832 47.932 105.092 47.932 104.132C47.932 103.164 48.176 102.42 48.664 101.9C49.16 101.38 49.808 101.12 50.608 101.12ZM52.324 104.132C52.324 103.444 52.18 102.908 51.892 102.524C51.604 102.132 51.18 101.936 50.62 101.936C50.068 101.936 49.644 102.132 49.348 102.524C49.052 102.908 48.904 103.444 48.904 104.132C48.904 104.812 49.044 105.348 49.324 105.74C49.604 106.124 50.02 106.316 50.572 106.316C51.132 106.316 51.564 106.124 51.868 105.74C52.172 105.348 52.324 104.812 52.324 104.132ZM26.2118 115.12C26.8918 115.12 27.4318 115.296 27.8318 115.648C28.2318 115.992 28.4918 116.424 28.6118 116.944L27.6518 117.028C27.5478 116.692 27.3798 116.432 27.1478 116.248C26.9158 116.056 26.6598 115.96 26.3798 115.96C25.8678 115.96 25.4518 116.152 25.1318 116.536C24.8198 116.92 24.6638 117.444 24.6638 118.108C24.6638 118.764 24.8158 119.292 25.1198 119.692C25.4318 120.092 25.8158 120.292 26.2718 120.292C26.7358 120.292 27.0798 120.188 27.3038 119.98C27.5358 119.764 27.6518 119.46 27.6518 119.068H28.6238C28.6238 119.684 28.4078 120.184 27.9758 120.568C27.5518 120.944 26.9958 121.132 26.3078 121.132C25.5798 121.132 24.9598 120.856 24.4478 120.304C23.9438 119.752 23.6918 119.02 23.6918 118.108C23.6918 117.188 23.9438 116.46 24.4478 115.924C24.9518 115.388 25.5398 115.12 26.2118 115.12ZM34.0316 117.28C34.0316 116.76 33.9236 116.388 33.7076 116.164C33.4916 115.94 33.1756 115.828 32.7596 115.828C32.3516 115.828 32.0196 115.912 31.7636 116.08C31.5156 116.24 31.3916 116.496 31.3916 116.848H30.3476C30.3476 115.968 30.8196 115.424 31.7636 115.216C32.0516 115.152 32.3636 115.12 32.6996 115.12C33.4116 115.12 33.9676 115.3 34.3676 115.66C34.7676 116.02 34.9676 116.568 34.9676 117.304V121H34.1516L34.0556 120.04C33.7036 120.768 33.0676 121.132 32.1476 121.132C31.5316 121.132 31.0356 120.96 30.6596 120.616C30.2916 120.272 30.1076 119.844 30.1076 119.332C30.1076 118.82 30.3116 118.42 30.7196 118.132C31.1356 117.844 31.6516 117.7 32.2676 117.7C32.8836 117.7 33.4716 117.804 34.0316 118.012V117.28ZM34.0316 118.612C33.4636 118.452 32.9676 118.372 32.5436 118.372C32.1196 118.372 31.7756 118.448 31.5116 118.6C31.2476 118.752 31.1156 118.992 31.1156 119.32C31.1156 120.04 31.5236 120.4 32.3396 120.4C32.8036 120.4 33.1996 120.236 33.5276 119.908C33.8636 119.572 34.0316 119.14 34.0316 118.612ZM38.0824 116.14C38.4584 115.46 39.0184 115.12 39.7624 115.12C40.5144 115.12 41.1384 115.396 41.6344 115.948C42.1384 116.5 42.3904 117.228 42.3904 118.132C42.3904 119.036 42.1384 119.764 41.6344 120.316C41.1304 120.86 40.5104 121.132 39.7744 121.132C39.0384 121.132 38.4944 120.856 38.1424 120.304V123.82H37.1944V115.264H37.9744L38.0824 116.14ZM39.7264 120.292C40.1744 120.292 40.5664 120.1 40.9024 119.716C41.2464 119.332 41.4184 118.808 41.4184 118.144C41.4184 117.472 41.2544 116.94 40.9264 116.548C40.6064 116.156 40.2144 115.96 39.7504 115.96C39.2864 115.96 38.9064 116.108 38.6104 116.404C38.3144 116.692 38.1584 117.084 38.1424 117.58V118.672C38.1424 119.176 38.2944 119.572 38.5984 119.86C38.9024 120.148 39.2784 120.292 39.7264 120.292ZM47.8714 117.28C47.8714 116.76 47.7634 116.388 47.5474 116.164C47.3314 115.94 47.0154 115.828 46.5994 115.828C46.1914 115.828 45.8594 115.912 45.6034 116.08C45.3554 116.24 45.2314 116.496 45.2314 116.848H44.1874C44.1874 115.968 44.6594 115.424 45.6034 115.216C45.8914 115.152 46.2034 115.12 46.5394 115.12C47.2514 115.12 47.8074 115.3 48.2074 115.66C48.6074 116.02 48.8074 116.568 48.8074 117.304V121H47.9914L47.8954 120.04C47.5434 120.768 46.9074 121.132 45.9874 121.132C45.3714 121.132 44.8754 120.96 44.4994 120.616C44.1314 120.272 43.9474 119.844 43.9474 119.332C43.9474 118.82 44.1514 118.42 44.5594 118.132C44.9754 117.844 45.4914 117.7 46.1074 117.7C46.7234 117.7 47.3114 117.804 47.8714 118.012V117.28ZM47.8714 118.612C47.3034 118.452 46.8074 118.372 46.3834 118.372C45.9594 118.372 45.6154 118.448 45.3514 118.6C45.0874 118.752 44.9554 118.992 44.9554 119.32C44.9554 120.04 45.3634 120.4 46.1794 120.4C46.6434 120.4 47.0394 120.236 47.3674 119.908C47.7034 119.572 47.8714 119.14 47.8714 118.612ZM52.9423 115.12C53.6223 115.12 54.1623 115.296 54.5623 115.648C54.9623 115.992 55.2223 116.424 55.3423 116.944L54.3823 117.028C54.2783 116.692 54.1103 116.432 53.8783 116.248C53.6463 116.056 53.3903 115.96 53.1103 115.96C52.5983 115.96 52.1823 116.152 51.8623 116.536C51.5503 116.92 51.3943 117.444 51.3943 118.108C51.3943 118.764 51.5463 119.292 51.8503 119.692C52.1623 120.092 52.5463 120.292 53.0023 120.292C53.4663 120.292 53.8103 120.188 54.0343 119.98C54.2663 119.764 54.3823 119.46 54.3823 119.068H55.3543C55.3543 119.684 55.1383 120.184 54.7063 120.568C54.2823 120.944 53.7263 121.132 53.0383 121.132C52.3103 121.132 51.6903 120.856 51.1783 120.304C50.6743 119.752 50.4223 119.02 50.4223 118.108C50.4223 117.188 50.6743 116.46 51.1783 115.924C51.6823 115.388 52.2703 115.12 52.9423 115.12ZM57.27 115.252H58.218V121H57.27V115.252ZM57.738 113.908C57.546 113.908 57.394 113.856 57.282 113.752C57.178 113.64 57.126 113.496 57.126 113.32C57.126 113.136 57.178 112.992 57.282 112.888C57.394 112.776 57.546 112.72 57.738 112.72C57.93 112.72 58.082 112.776 58.194 112.888C58.314 112.992 58.374 113.136 58.374 113.32C58.374 113.496 58.314 113.64 58.194 113.752C58.082 113.856 57.93 113.908 57.738 113.908ZM63.796 120.832C63.108 121.152 62.48 121.22 61.912 121.036C61.504 120.908 61.216 120.64 61.048 120.232C60.96 120.032 60.916 119.792 60.916 119.512V115.984H59.992V115.264H60.916V113.668H61.852V115.264H63.652V115.984H61.852V119.5C61.852 120.084 62.124 120.376 62.668 120.376C62.964 120.376 63.296 120.304 63.664 120.16L63.796 120.832ZM64.1557 122.668C64.5477 122.972 64.9597 123.124 65.3917 123.124C65.7117 123.124 65.9877 122.964 66.2197 122.644C66.3877 122.412 66.5397 122.06 66.6757 121.588L66.8437 121L64.4917 115.264H65.5477L67.2877 119.836L68.6437 115.264H69.6037L67.4557 122.14C67.2717 122.724 67.0277 123.172 66.7237 123.484C66.4277 123.796 66.0477 123.952 65.5837 123.952C65.1277 123.952 64.6517 123.812 64.1557 123.532V122.668Z" fill="black"/>
<path d="M149.254 106.172H152.614V107H148.306V99.452H149.254V106.172ZM153.979 101.252H154.927V107H153.979V101.252ZM154.447 99.908C154.255 99.908 154.103 99.856 153.991 99.752C153.887 99.64 153.835 99.496 153.835 99.32C153.835 99.136 153.887 98.992 153.991 98.888C154.103 98.776 154.255 98.72 154.447 98.72C154.639 98.72 154.791 98.776 154.903 98.888C155.023 98.992 155.083 99.136 155.083 99.32C155.083 99.496 155.023 99.64 154.903 99.752C154.791 99.856 154.639 99.908 154.447 99.908ZM158.417 102.368C158.793 101.536 159.437 101.12 160.349 101.12C160.845 101.12 161.261 101.244 161.597 101.492C161.933 101.732 162.177 102.068 162.329 102.5C162.689 101.58 163.357 101.12 164.333 101.12C165.021 101.12 165.553 101.344 165.929 101.792C166.305 102.24 166.493 102.852 166.493 103.628V107H165.557V103.628C165.557 103.076 165.425 102.66 165.161 102.38C164.905 102.1 164.533 101.96 164.045 101.96C163.557 101.96 163.177 102.16 162.905 102.56C162.641 102.96 162.509 103.512 162.509 104.216V107H161.573V103.628C161.573 103.076 161.441 102.66 161.177 102.38C160.921 102.1 160.553 101.96 160.073 101.96C159.593 101.96 159.205 102.156 158.909 102.548C158.613 102.94 158.457 103.484 158.441 104.18V107H157.493V101.264H158.309L158.417 102.368ZM168.78 101.252H169.728V107H168.78V101.252ZM169.248 99.908C169.056 99.908 168.904 99.856 168.792 99.752C168.688 99.64 168.636 99.496 168.636 99.32C168.636 99.136 168.688 98.992 168.792 98.888C168.904 98.776 169.056 98.72 169.248 98.72C169.44 98.72 169.592 98.776 169.704 98.888C169.824 98.992 169.884 99.136 169.884 99.32C169.884 99.496 169.824 99.64 169.704 99.752C169.592 99.856 169.44 99.908 169.248 99.908ZM175.306 106.832C174.618 107.152 173.99 107.22 173.422 107.036C173.014 106.908 172.726 106.64 172.558 106.232C172.47 106.032 172.426 105.792 172.426 105.512V101.984H171.502V101.264H172.426V99.668H173.362V101.264H175.162V101.984H173.362V105.5C173.362 106.084 173.634 106.376 174.178 106.376C174.474 106.376 174.806 106.304 175.174 106.16L175.306 106.832ZM178.797 106.364C179.589 106.364 180.041 106.016 180.153 105.32H181.125C181.037 105.896 180.781 106.344 180.357 106.664C179.941 106.976 179.421 107.132 178.797 107.132C178.029 107.132 177.405 106.86 176.925 106.316C176.445 105.764 176.205 105.032 176.205 104.12C176.205 103.208 176.445 102.48 176.925 101.936C177.413 101.392 178.057 101.12 178.857 101.12C179.665 101.12 180.265 101.432 180.657 102.056C181.057 102.68 181.197 103.44 181.077 104.336H177.153C177.153 104.928 177.297 105.416 177.585 105.8C177.873 106.176 178.277 106.364 178.797 106.364ZM179.493 102.02C179.309 101.924 179.085 101.876 178.821 101.876C178.333 101.876 177.945 102.044 177.657 102.38C177.377 102.708 177.213 103.12 177.165 103.616H180.225C180.225 102.816 179.981 102.284 179.493 102.02ZM186.749 102.116V98.828H187.685V107H186.917L186.797 106.04C186.613 106.4 186.369 106.672 186.065 106.856C185.761 107.04 185.429 107.132 185.069 107.132C184.341 107.132 183.729 106.852 183.233 106.292C182.745 105.732 182.501 105.004 182.501 104.108C182.501 103.204 182.741 102.48 183.221 101.936C183.709 101.392 184.321 101.12 185.057 101.12C185.801 101.12 186.365 101.452 186.749 102.116ZM185.117 101.96C184.653 101.96 184.261 102.156 183.941 102.548C183.629 102.94 183.473 103.464 183.473 104.12C183.473 104.776 183.633 105.304 183.953 105.704C184.273 106.096 184.657 106.292 185.105 106.292C185.553 106.292 185.933 106.144 186.245 105.848C186.565 105.544 186.733 105.14 186.749 104.636V103.7C186.749 103.164 186.593 102.74 186.281 102.428C185.969 102.116 185.581 101.96 185.117 101.96ZM147.712 115.12C148.392 115.12 148.932 115.296 149.332 115.648C149.732 115.992 149.992 116.424 150.112 116.944L149.152 117.028C149.048 116.692 148.88 116.432 148.648 116.248C148.416 116.056 148.16 115.96 147.88 115.96C147.368 115.96 146.952 116.152 146.632 116.536C146.32 116.92 146.164 117.444 146.164 118.108C146.164 118.764 146.316 119.292 146.62 119.692C146.932 120.092 147.316 120.292 147.772 120.292C148.236 120.292 148.58 120.188 148.804 119.98C149.036 119.764 149.152 119.46 149.152 119.068H150.124C150.124 119.684 149.908 120.184 149.476 120.568C149.052 120.944 148.496 121.132 147.808 121.132C147.08 121.132 146.46 120.856 145.948 120.304C145.444 119.752 145.192 119.02 145.192 118.108C145.192 117.188 145.444 116.46 145.948 115.924C146.452 115.388 147.04 115.12 147.712 115.12ZM155.532 117.28C155.532 116.76 155.424 116.388 155.208 116.164C154.992 115.94 154.676 115.828 154.26 115.828C153.852 115.828 153.52 115.912 153.264 116.08C153.016 116.24 152.892 116.496 152.892 116.848H151.848C151.848 115.968 152.32 115.424 153.264 115.216C153.552 115.152 153.864 115.12 154.2 115.12C154.912 115.12 155.468 115.3 155.868 115.66C156.268 116.02 156.468 116.568 156.468 117.304V121H155.652L155.556 120.04C155.204 120.768 154.568 121.132 153.648 121.132C153.032 121.132 152.536 120.96 152.16 120.616C151.792 120.272 151.608 119.844 151.608 119.332C151.608 118.82 151.812 118.42 152.22 118.132C152.636 117.844 153.152 117.7 153.768 117.7C154.384 117.7 154.972 117.804 155.532 118.012V117.28ZM155.532 118.612C154.964 118.452 154.468 118.372 154.044 118.372C153.62 118.372 153.276 118.448 153.012 118.6C152.748 118.752 152.616 118.992 152.616 119.32C152.616 120.04 153.024 120.4 153.84 120.4C154.304 120.4 154.7 120.236 155.028 119.908C155.364 119.572 155.532 119.14 155.532 118.612ZM159.582 116.14C159.958 115.46 160.518 115.12 161.262 115.12C162.014 115.12 162.638 115.396 163.134 115.948C163.638 116.5 163.89 117.228 163.89 118.132C163.89 119.036 163.638 119.764 163.134 120.316C162.63 120.86 162.01 121.132 161.274 121.132C160.538 121.132 159.994 120.856 159.642 120.304V123.82H158.694V115.264H159.474L159.582 116.14ZM161.226 120.292C161.674 120.292 162.066 120.1 162.402 119.716C162.746 119.332 162.918 118.808 162.918 118.144C162.918 117.472 162.754 116.94 162.426 116.548C162.106 116.156 161.714 115.96 161.25 115.96C160.786 115.96 160.406 116.108 160.11 116.404C159.814 116.692 159.658 117.084 159.642 117.58V118.672C159.642 119.176 159.794 119.572 160.098 119.86C160.402 120.148 160.778 120.292 161.226 120.292ZM169.371 117.28C169.371 116.76 169.263 116.388 169.047 116.164C168.831 115.94 168.515 115.828 168.099 115.828C167.691 115.828 167.359 115.912 167.103 116.08C166.855 116.24 166.731 116.496 166.731 116.848H165.687C165.687 115.968 166.159 115.424 167.103 115.216C167.391 115.152 167.703 115.12 168.039 115.12C168.751 115.12 169.307 115.3 169.707 115.66C170.107 116.02 170.307 116.568 170.307 117.304V121H169.491L169.395 120.04C169.043 120.768 168.407 121.132 167.487 121.132C166.871 121.132 166.375 120.96 165.999 120.616C165.631 120.272 165.447 119.844 165.447 119.332C165.447 118.82 165.651 118.42 166.059 118.132C166.475 117.844 166.991 117.7 167.607 117.7C168.223 117.7 168.811 117.804 169.371 118.012V117.28ZM169.371 118.612C168.803 118.452 168.307 118.372 167.883 118.372C167.459 118.372 167.115 118.448 166.851 118.6C166.587 118.752 166.455 118.992 166.455 119.32C166.455 120.04 166.863 120.4 167.679 120.4C168.143 120.4 168.539 120.236 168.867 119.908C169.203 119.572 169.371 119.14 169.371 118.612ZM174.442 115.12C175.122 115.12 175.662 115.296 176.062 115.648C176.462 115.992 176.722 116.424 176.842 116.944L175.882 117.028C175.778 116.692 175.61 116.432 175.378 116.248C175.146 116.056 174.89 115.96 174.61 115.96C174.098 115.96 173.682 116.152 173.362 116.536C173.05 116.92 172.894 117.444 172.894 118.108C172.894 118.764 173.046 119.292 173.35 119.692C173.662 120.092 174.046 120.292 174.502 120.292C174.966 120.292 175.31 120.188 175.534 119.98C175.766 119.764 175.882 119.46 175.882 119.068H176.854C176.854 119.684 176.638 120.184 176.206 120.568C175.782 120.944 175.226 121.132 174.538 121.132C173.81 121.132 173.19 120.856 172.678 120.304C172.174 119.752 171.922 119.02 171.922 118.108C171.922 117.188 172.174 116.46 172.678 115.924C173.182 115.388 173.77 115.12 174.442 115.12ZM178.77 115.252H179.718V121H178.77V115.252ZM179.238 113.908C179.046 113.908 178.894 113.856 178.782 113.752C178.678 113.64 178.626 113.496 178.626 113.32C178.626 113.136 178.678 112.992 178.782 112.888C178.894 112.776 179.046 112.72 179.238 112.72C179.43 112.72 179.582 112.776 179.694 112.888C179.814 112.992 179.874 113.136 179.874 113.32C179.874 113.496 179.814 113.64 179.694 113.752C179.582 113.856 179.43 113.908 179.238 113.908ZM185.296 120.832C184.608 121.152 183.98 121.22 183.412 121.036C183.004 120.908 182.716 120.64 182.548 120.232C182.46 120.032 182.416 119.792 182.416 119.512V115.984H181.492V115.264H182.416V113.668H183.352V115.264H185.152V115.984H183.352V119.5C183.352 120.084 183.624 120.376 184.168 120.376C184.464 120.376 184.796 120.304 185.164 120.16L185.296 120.832ZM185.656 122.668C186.048 122.972 186.46 123.124 186.892 123.124C187.212 123.124 187.488 122.964 187.72 122.644C187.888 122.412 188.04 122.06 188.176 121.588L188.344 121L185.992 115.264H187.048L188.788 119.836L190.144 115.264H191.104L188.956 122.14C188.772 122.724 188.528 123.172 188.224 123.484C187.928 123.796 187.548 123.952 187.084 123.952C186.628 123.952 186.152 123.812 185.656 123.532V122.668Z" fill="black"/>
<path d="M266.09 99.452C267.226 99.452 268.134 99.796 268.814 100.484C269.502 101.164 269.846 102.08 269.846 103.232C269.846 104.376 269.502 105.292 268.814 105.98C268.134 106.66 267.226 107 266.09 107H263.87V99.452H266.09ZM264.818 106.172H266.09C266.93 106.172 267.598 105.896 268.094 105.344C268.59 104.784 268.838 104.076 268.838 103.22C268.838 102.364 268.586 101.664 268.082 101.12C267.586 100.568 266.922 100.292 266.09 100.292H264.818V106.172ZM273.796 106.364C274.588 106.364 275.04 106.016 275.152 105.32H276.124C276.036 105.896 275.78 106.344 275.356 106.664C274.94 106.976 274.42 107.132 273.796 107.132C273.028 107.132 272.404 106.86 271.924 106.316C271.444 105.764 271.204 105.032 271.204 104.12C271.204 103.208 271.444 102.48 271.924 101.936C272.412 101.392 273.056 101.12 273.856 101.12C274.664 101.12 275.264 101.432 275.656 102.056C276.056 102.68 276.196 103.44 276.076 104.336H272.152C272.152 104.928 272.296 105.416 272.584 105.8C272.872 106.176 273.276 106.364 273.796 106.364ZM274.492 102.02C274.308 101.924 274.084 101.876 273.82 101.876C273.332 101.876 272.944 102.044 272.656 102.38C272.376 102.708 272.212 103.12 272.164 103.616H275.224C275.224 102.816 274.98 102.284 274.492 102.02ZM278.063 101.264L279.791 106.004L281.531 101.264H282.599L280.319 107H279.275L276.995 101.264H278.063ZM286.006 106.364C286.798 106.364 287.25 106.016 287.362 105.32H288.334C288.246 105.896 287.99 106.344 287.566 106.664C287.15 106.976 286.63 107.132 286.006 107.132C285.238 107.132 284.614 106.86 284.134 106.316C283.654 105.764 283.414 105.032 283.414 104.12C283.414 103.208 283.654 102.48 284.134 101.936C284.622 101.392 285.266 101.12 286.066 101.12C286.874 101.12 287.474 101.432 287.866 102.056C288.266 102.68 288.406 103.44 288.286 104.336H284.362C284.362 104.928 284.506 105.416 284.794 105.8C285.082 106.176 285.486 106.364 286.006 106.364ZM286.702 102.02C286.518 101.924 286.294 101.876 286.03 101.876C285.542 101.876 285.154 102.044 284.866 102.38C284.586 102.708 284.422 103.12 284.374 103.616H287.434C287.434 102.816 287.19 102.284 286.702 102.02ZM290.202 98.828H291.15V107H290.202V98.828ZM295.63 101.12C296.43 101.12 297.074 101.38 297.562 101.9C298.058 102.42 298.306 103.164 298.306 104.132C298.306 105.092 298.058 105.832 297.562 106.352C297.074 106.872 296.43 107.132 295.63 107.132C294.83 107.132 294.182 106.872 293.686 106.352C293.198 105.832 292.954 105.092 292.954 104.132C292.954 103.164 293.198 102.42 293.686 101.9C294.182 101.38 294.83 101.12 295.63 101.12ZM297.346 104.132C297.346 103.444 297.202 102.908 296.914 102.524C296.626 102.132 296.202 101.936 295.642 101.936C295.09 101.936 294.666 102.132 294.37 102.524C294.074 102.908 293.926 103.444 293.926 104.132C293.926 104.812 294.066 105.348 294.346 105.74C294.626 106.124 295.042 106.316 295.594 106.316C296.154 106.316 296.586 106.124 296.89 105.74C297.194 105.348 297.346 104.812 297.346 104.132ZM301.004 102.14C301.38 101.46 301.94 101.12 302.684 101.12C303.436 101.12 304.06 101.396 304.556 101.948C305.06 102.5 305.312 103.228 305.312 104.132C305.312 105.036 305.06 105.764 304.556 106.316C304.052 106.86 303.432 107.132 302.696 107.132C301.96 107.132 301.416 106.856 301.064 106.304V109.82H300.116V101.264H300.896L301.004 102.14ZM302.648 106.292C303.096 106.292 303.488 106.1 303.824 105.716C304.168 105.332 304.34 104.808 304.34 104.144C304.34 103.472 304.176 102.94 303.848 102.548C303.528 102.156 303.136 101.96 302.672 101.96C302.208 101.96 301.828 102.108 301.532 102.404C301.236 102.692 301.08 103.084 301.064 103.58V104.672C301.064 105.176 301.216 105.572 301.52 105.86C301.824 106.148 302.2 106.292 302.648 106.292ZM309.221 106.364C310.013 106.364 310.465 106.016 310.577 105.32H311.549C311.461 105.896 311.205 106.344 310.781 106.664C310.365 106.976 309.845 107.132 309.221 107.132C308.453 107.132 307.829 106.86 307.349 106.316C306.869 105.764 306.629 105.032 306.629 104.12C306.629 103.208 306.869 102.48 307.349 101.936C307.837 101.392 308.481 101.12 309.281 101.12C310.089 101.12 310.689 101.432 311.081 102.056C311.481 102.68 311.621 103.44 311.501 104.336H307.577C307.577 104.928 307.721 105.416 308.009 105.8C308.297 106.176 308.701 106.364 309.221 106.364ZM309.917 102.02C309.733 101.924 309.509 101.876 309.245 101.876C308.757 101.876 308.369 102.044 308.081 102.38C307.801 102.708 307.637 103.12 307.589 103.616H310.649C310.649 102.816 310.405 102.284 309.917 102.02ZM317.173 102.116V98.828H318.109V107H317.341L317.221 106.04C317.037 106.4 316.793 106.672 316.489 106.856C316.185 107.04 315.853 107.132 315.493 107.132C314.765 107.132 314.153 106.852 313.657 106.292C313.169 105.732 312.925 105.004 312.925 104.108C312.925 103.204 313.165 102.48 313.645 101.936C314.133 101.392 314.745 101.12 315.481 101.12C316.225 101.12 316.789 101.452 317.173 102.116ZM315.541 101.96C315.077 101.96 314.685 102.156 314.365 102.548C314.053 102.94 313.897 103.464 313.897 104.12C313.897 104.776 314.057 105.304 314.377 105.704C314.697 106.096 315.081 106.292 315.529 106.292C315.977 106.292 316.357 106.144 316.669 105.848C316.989 105.544 317.157 105.14 317.173 104.636V103.7C317.173 103.164 317.017 102.74 316.705 102.428C316.393 102.116 316.005 101.96 315.541 101.96ZM270.712 115.12C271.392 115.12 271.932 115.296 272.332 115.648C272.732 115.992 272.992 116.424 273.112 116.944L272.152 117.028C272.048 116.692 271.88 116.432 271.648 116.248C271.416 116.056 271.16 115.96 270.88 115.96C270.368 115.96 269.952 116.152 269.632 116.536C269.32 116.92 269.164 117.444 269.164 118.108C269.164 118.764 269.316 119.292 269.62 119.692C269.932 120.092 270.316 120.292 270.772 120.292C271.236 120.292 271.58 120.188 271.804 119.98C272.036 119.764 272.152 119.46 272.152 119.068H273.124C273.124 119.684 272.908 120.184 272.476 120.568C272.052 120.944 271.496 121.132 270.808 121.132C270.08 121.132 269.46 120.856 268.948 120.304C268.444 119.752 268.192 119.02 268.192 118.108C268.192 117.188 268.444 116.46 268.948 115.924C269.452 115.388 270.04 115.12 270.712 115.12ZM278.532 117.28C278.532 116.76 278.424 116.388 278.208 116.164C277.992 115.94 277.676 115.828 277.26 115.828C276.852 115.828 276.52 115.912 276.264 116.08C276.016 116.24 275.892 116.496 275.892 116.848H274.848C274.848 115.968 275.32 115.424 276.264 115.216C276.552 115.152 276.864 115.12 277.2 115.12C277.912 115.12 278.468 115.3 278.868 115.66C279.268 116.02 279.468 116.568 279.468 117.304V121H278.652L278.556 120.04C278.204 120.768 277.568 121.132 276.648 121.132C276.032 121.132 275.536 120.96 275.16 120.616C274.792 120.272 274.608 119.844 274.608 119.332C274.608 118.82 274.812 118.42 275.22 118.132C275.636 117.844 276.152 117.7 276.768 117.7C277.384 117.7 277.972 117.804 278.532 118.012V117.28ZM278.532 118.612C277.964 118.452 277.468 118.372 277.044 118.372C276.62 118.372 276.276 118.448 276.012 118.6C275.748 118.752 275.616 118.992 275.616 119.32C275.616 120.04 276.024 120.4 276.84 120.4C277.304 120.4 277.7 120.236 278.028 119.908C278.364 119.572 278.532 119.14 278.532 118.612ZM282.582 116.14C282.958 115.46 283.518 115.12 284.262 115.12C285.014 115.12 285.638 115.396 286.134 115.948C286.638 116.5 286.89 117.228 286.89 118.132C286.89 119.036 286.638 119.764 286.134 120.316C285.63 120.86 285.01 121.132 284.274 121.132C283.538 121.132 282.994 120.856 282.642 120.304V123.82H281.694V115.264H282.474L282.582 116.14ZM284.226 120.292C284.674 120.292 285.066 120.1 285.402 119.716C285.746 119.332 285.918 118.808 285.918 118.144C285.918 117.472 285.754 116.94 285.426 116.548C285.106 116.156 284.714 115.96 284.25 115.96C283.786 115.96 283.406 116.108 283.11 116.404C282.814 116.692 282.658 117.084 282.642 117.58V118.672C282.642 119.176 282.794 119.572 283.098 119.86C283.402 120.148 283.778 120.292 284.226 120.292ZM292.371 117.28C292.371 116.76 292.263 116.388 292.047 116.164C291.831 115.94 291.515 115.828 291.099 115.828C290.691 115.828 290.359 115.912 290.103 116.08C289.855 116.24 289.731 116.496 289.731 116.848H288.687C288.687 115.968 289.159 115.424 290.103 115.216C290.391 115.152 290.703 115.12 291.039 115.12C291.751 115.12 292.307 115.3 292.707 115.66C293.107 116.02 293.307 116.568 293.307 117.304V121H292.491L292.395 120.04C292.043 120.768 291.407 121.132 290.487 121.132C289.871 121.132 289.375 120.96 288.999 120.616C288.631 120.272 288.447 119.844 288.447 119.332C288.447 118.82 288.651 118.42 289.059 118.132C289.475 117.844 289.991 117.7 290.607 117.7C291.223 117.7 291.811 117.804 292.371 118.012V117.28ZM292.371 118.612C291.803 118.452 291.307 118.372 290.883 118.372C290.459 118.372 290.115 118.448 289.851 118.6C289.587 118.752 289.455 118.992 289.455 119.32C289.455 120.04 289.863 120.4 290.679 120.4C291.143 120.4 291.539 120.236 291.867 119.908C292.203 119.572 292.371 119.14 292.371 118.612ZM297.442 115.12C298.122 115.12 298.662 115.296 299.062 115.648C299.462 115.992 299.722 116.424 299.842 116.944L298.882 117.028C298.778 116.692 298.61 116.432 298.378 116.248C298.146 116.056 297.89 115.96 297.61 115.96C297.098 115.96 296.682 116.152 296.362 116.536C296.05 116.92 295.894 117.444 295.894 118.108C295.894 118.764 296.046 119.292 296.35 119.692C296.662 120.092 297.046 120.292 297.502 120.292C297.966 120.292 298.31 120.188 298.534 119.98C298.766 119.764 298.882 119.46 298.882 119.068H299.854C299.854 119.684 299.638 120.184 299.206 120.568C298.782 120.944 298.226 121.132 297.538 121.132C296.81 121.132 296.19 120.856 295.678 120.304C295.174 119.752 294.922 119.02 294.922 118.108C294.922 117.188 295.174 116.46 295.678 115.924C296.182 115.388 296.77 115.12 297.442 115.12ZM301.77 115.252H302.718V121H301.77V115.252ZM302.238 113.908C302.046 113.908 301.894 113.856 301.782 113.752C301.678 113.64 301.626 113.496 301.626 113.32C301.626 113.136 301.678 112.992 301.782 112.888C301.894 112.776 302.046 112.72 302.238 112.72C302.43 112.72 302.582 112.776 302.694 112.888C302.814 112.992 302.874 113.136 302.874 113.32C302.874 113.496 302.814 113.64 302.694 113.752C302.582 113.856 302.43 113.908 302.238 113.908ZM308.296 120.832C307.608 121.152 306.98 121.22 306.412 121.036C306.004 120.908 305.716 120.64 305.548 120.232C305.46 120.032 305.416 119.792 305.416 119.512V115.984H304.492V115.264H305.416V113.668H306.352V115.264H308.152V115.984H306.352V119.5C306.352 120.084 306.624 120.376 307.168 120.376C307.464 120.376 307.796 120.304 308.164 120.16L308.296 120.832ZM308.656 122.668C309.048 122.972 309.46 123.124 309.892 123.124C310.212 123.124 310.488 122.964 310.72 122.644C310.888 122.412 311.04 122.06 311.176 121.588L311.344 121L308.992 115.264H310.048L311.788 119.836L313.144 115.264H314.104L311.956 122.14C311.772 122.724 311.528 123.172 311.224 123.484C310.928 123.796 310.548 123.952 310.084 123.952C309.628 123.952 309.152 123.812 308.656 123.532V122.668Z" fill="black"/>
<path d="M381.904 99.452C383.04 99.452 383.948 99.796 384.628 100.484C385.316 101.164 385.66 102.08 385.66 103.232C385.66 104.376 385.316 105.292 384.628 105.98C383.948 106.66 383.04 107 381.904 107H379.684V99.452H381.904ZM380.632 106.172H381.904C382.744 106.172 383.412 105.896 383.908 105.344C384.404 104.784 384.652 104.076 384.652 103.22C384.652 102.364 384.4 101.664 383.896 101.12C383.4 100.568 382.736 100.292 381.904 100.292H380.632V106.172ZM389.61 106.364C390.402 106.364 390.854 106.016 390.966 105.32H391.938C391.85 105.896 391.594 106.344 391.17 106.664C390.754 106.976 390.234 107.132 389.61 107.132C388.842 107.132 388.218 106.86 387.738 106.316C387.258 105.764 387.018 105.032 387.018 104.12C387.018 103.208 387.258 102.48 387.738 101.936C388.226 101.392 388.87 101.12 389.67 101.12C390.478 101.12 391.078 101.432 391.47 102.056C391.87 102.68 392.01 103.44 391.89 104.336H387.966C387.966 104.928 388.11 105.416 388.398 105.8C388.686 106.176 389.09 106.364 389.61 106.364ZM390.306 102.02C390.122 101.924 389.898 101.876 389.634 101.876C389.146 101.876 388.758 102.044 388.47 102.38C388.19 102.708 388.026 103.12 387.978 103.616H391.038C391.038 102.816 390.794 102.284 390.306 102.02ZM394.718 102.368C395.094 101.536 395.738 101.12 396.65 101.12C397.146 101.12 397.562 101.244 397.898 101.492C398.234 101.732 398.478 102.068 398.63 102.5C398.99 101.58 399.658 101.12 400.634 101.12C401.322 101.12 401.854 101.344 402.23 101.792C402.606 102.24 402.794 102.852 402.794 103.628V107H401.858V103.628C401.858 103.076 401.726 102.66 401.462 102.38C401.206 102.1 400.834 101.96 400.346 101.96C399.858 101.96 399.478 102.16 399.206 102.56C398.942 102.96 398.81 103.512 398.81 104.216V107H397.874V103.628C397.874 103.076 397.742 102.66 397.478 102.38C397.222 102.1 396.854 101.96 396.374 101.96C395.894 101.96 395.506 102.156 395.21 102.548C394.914 102.94 394.758 103.484 394.742 104.18V107H393.794V101.264H394.61L394.718 102.368ZM407.085 101.12C407.885 101.12 408.529 101.38 409.017 101.9C409.513 102.42 409.761 103.164 409.761 104.132C409.761 105.092 409.513 105.832 409.017 106.352C408.529 106.872 407.885 107.132 407.085 107.132C406.285 107.132 405.637 106.872 405.141 106.352C404.653 105.832 404.409 105.092 404.409 104.132C404.409 103.164 404.653 102.42 405.141 101.9C405.637 101.38 406.285 101.12 407.085 101.12ZM408.801 104.132C408.801 103.444 408.657 102.908 408.369 102.524C408.081 102.132 407.657 101.936 407.097 101.936C406.545 101.936 406.121 102.132 405.825 102.524C405.529 102.908 405.381 103.444 405.381 104.132C405.381 104.812 405.521 105.348 405.801 105.74C406.081 106.124 406.497 106.316 407.049 106.316C407.609 106.316 408.041 106.124 408.345 105.74C408.649 105.348 408.801 104.812 408.801 104.132ZM412.483 102.368C412.859 101.536 413.503 101.12 414.415 101.12C415.095 101.12 415.623 101.344 415.999 101.792C416.383 102.24 416.575 102.852 416.575 103.628V107H415.639V103.628C415.639 103.076 415.507 102.66 415.243 102.38C414.987 102.1 414.619 101.96 414.139 101.96C413.659 101.96 413.271 102.156 412.975 102.548C412.679 102.94 412.523 103.484 412.507 104.18V107H411.559V101.264H412.375L412.483 102.368ZM418.502 102.668C418.502 102.196 418.702 101.82 419.102 101.54C419.51 101.26 420.058 101.12 420.746 101.12C421.434 101.12 421.97 101.264 422.354 101.552C422.746 101.84 422.95 102.204 422.966 102.644H422.042C421.97 102.124 421.53 101.864 420.722 101.864C420.33 101.864 420.026 101.952 419.81 102.128C419.602 102.304 419.498 102.496 419.498 102.704C419.498 102.904 419.578 103.076 419.738 103.22C419.898 103.356 420.154 103.476 420.506 103.58L421.658 103.964C422.146 104.116 422.518 104.312 422.774 104.552C423.038 104.784 423.17 105.108 423.17 105.524C423.17 105.932 422.958 106.304 422.534 106.64C422.11 106.968 421.518 107.132 420.758 107.132C419.998 107.132 419.406 106.964 418.982 106.628C418.558 106.284 418.334 105.844 418.31 105.308H419.222C419.238 105.668 419.382 105.94 419.654 106.124C419.934 106.3 420.282 106.388 420.698 106.388C421.114 106.388 421.458 106.3 421.73 106.124C422.002 105.948 422.138 105.74 422.138 105.5C422.138 105.252 422.058 105.064 421.898 104.936C421.738 104.808 421.478 104.696 421.118 104.6L420.002 104.228C419.002 103.932 418.502 103.412 418.502 102.668ZM428.118 106.832C427.43 107.152 426.802 107.22 426.234 107.036C425.826 106.908 425.538 106.64 425.37 106.232C425.282 106.032 425.238 105.792 425.238 105.512V101.984H424.314V101.264H425.238V99.668H426.174V101.264H427.974V101.984H426.174V105.5C426.174 106.084 426.446 106.376 426.99 106.376C427.286 106.376 427.618 106.304 427.986 106.16L428.118 106.832ZM431.97 102.068C431.066 102.068 430.598 102.78 430.566 104.204V107H429.618V101.252H430.566V102.356C430.854 101.556 431.362 101.156 432.09 101.156C432.322 101.156 432.542 101.192 432.75 101.264L432.702 102.188C432.462 102.108 432.218 102.068 431.97 102.068ZM437.752 103.28C437.752 102.76 437.644 102.388 437.428 102.164C437.212 101.94 436.896 101.828 436.48 101.828C436.072 101.828 435.74 101.912 435.484 102.08C435.236 102.24 435.112 102.496 435.112 102.848H434.068C434.068 101.968 434.54 101.424 435.484 101.216C435.772 101.152 436.084 101.12 436.42 101.12C437.132 101.12 437.688 101.3 438.088 101.66C438.488 102.02 438.688 102.568 438.688 103.304V107H437.872L437.776 106.04C437.424 106.768 436.788 107.132 435.868 107.132C435.252 107.132 434.756 106.96 434.38 106.616C434.012 106.272 433.828 105.844 433.828 105.332C433.828 104.82 434.032 104.42 434.44 104.132C434.856 103.844 435.372 103.7 435.988 103.7C436.604 103.7 437.192 103.804 437.752 104.012V103.28ZM437.752 104.612C437.184 104.452 436.688 104.372 436.264 104.372C435.84 104.372 435.496 104.448 435.232 104.6C434.968 104.752 434.836 104.992 434.836 105.32C434.836 106.04 435.244 106.4 436.06 106.4C436.524 106.4 436.92 106.236 437.248 105.908C437.584 105.572 437.752 105.14 437.752 104.612ZM443.915 106.832C443.227 107.152 442.599 107.22 442.031 107.036C441.623 106.908 441.335 106.64 441.167 106.232C441.079 106.032 441.035 105.792 441.035 105.512V101.984H440.111V101.264H441.035V99.668H441.971V101.264H443.771V101.984H441.971V105.5C441.971 106.084 442.243 106.376 442.787 106.376C443.083 106.376 443.415 106.304 443.783 106.16L443.915 106.832ZM447.407 106.364C448.199 106.364 448.651 106.016 448.763 105.32H449.735C449.647 105.896 449.391 106.344 448.967 106.664C448.551 106.976 448.031 107.132 447.407 107.132C446.639 107.132 446.015 106.86 445.535 106.316C445.055 105.764 444.815 105.032 444.815 104.12C444.815 103.208 445.055 102.48 445.535 101.936C446.023 101.392 446.667 101.12 447.467 101.12C448.275 101.12 448.875 101.432 449.267 102.056C449.667 102.68 449.807 103.44 449.687 104.336H445.763C445.763 104.928 445.907 105.416 446.195 105.8C446.483 106.176 446.887 106.364 447.407 106.364ZM448.103 102.02C447.919 101.924 447.695 101.876 447.431 101.876C446.943 101.876 446.555 102.044 446.267 102.38C445.987 102.708 445.823 103.12 445.775 103.616H448.835C448.835 102.816 448.591 102.284 448.103 102.02ZM455.359 102.116V98.828H456.295V107H455.527L455.407 106.04C455.223 106.4 454.979 106.672 454.675 106.856C454.371 107.04 454.039 107.132 453.679 107.132C452.951 107.132 452.339 106.852 451.843 106.292C451.355 105.732 451.111 105.004 451.111 104.108C451.111 103.204 451.351 102.48 451.831 101.936C452.319 101.392 452.931 101.12 453.667 101.12C454.411 101.12 454.975 101.452 455.359 102.116ZM453.727 101.96C453.263 101.96 452.871 102.156 452.551 102.548C452.239 102.94 452.083 103.464 452.083 104.12C452.083 104.776 452.243 105.304 452.563 105.704C452.883 106.096 453.267 106.292 453.715 106.292C454.163 106.292 454.543 106.144 454.855 105.848C455.175 105.544 455.343 105.14 455.359 104.636V103.7C455.359 103.164 455.203 102.74 454.891 102.428C454.579 102.116 454.191 101.96 453.727 101.96ZM397.712 115.12C398.392 115.12 398.932 115.296 399.332 115.648C399.732 115.992 399.992 116.424 400.112 116.944L399.152 117.028C399.048 116.692 398.88 116.432 398.648 116.248C398.416 116.056 398.16 115.96 397.88 115.96C397.368 115.96 396.952 116.152 396.632 116.536C396.32 116.92 396.164 117.444 396.164 118.108C396.164 118.764 396.316 119.292 396.62 119.692C396.932 120.092 397.316 120.292 397.772 120.292C398.236 120.292 398.58 120.188 398.804 119.98C399.036 119.764 399.152 119.46 399.152 119.068H400.124C400.124 119.684 399.908 120.184 399.476 120.568C399.052 120.944 398.496 121.132 397.808 121.132C397.08 121.132 396.46 120.856 395.948 120.304C395.444 119.752 395.192 119.02 395.192 118.108C395.192 117.188 395.444 116.46 395.948 115.924C396.452 115.388 397.04 115.12 397.712 115.12ZM405.532 117.28C405.532 116.76 405.424 116.388 405.208 116.164C404.992 115.94 404.676 115.828 404.26 115.828C403.852 115.828 403.52 115.912 403.264 116.08C403.016 116.24 402.892 116.496 402.892 116.848H401.848C401.848 115.968 402.32 115.424 403.264 115.216C403.552 115.152 403.864 115.12 404.2 115.12C404.912 115.12 405.468 115.3 405.868 115.66C406.268 116.02 406.468 116.568 406.468 117.304V121H405.652L405.556 120.04C405.204 120.768 404.568 121.132 403.648 121.132C403.032 121.132 402.536 120.96 402.16 120.616C401.792 120.272 401.608 119.844 401.608 119.332C401.608 118.82 401.812 118.42 402.22 118.132C402.636 117.844 403.152 117.7 403.768 117.7C404.384 117.7 404.972 117.804 405.532 118.012V117.28ZM405.532 118.612C404.964 118.452 404.468 118.372 404.044 118.372C403.62 118.372 403.276 118.448 403.012 118.6C402.748 118.752 402.616 118.992 402.616 119.32C402.616 120.04 403.024 120.4 403.84 120.4C404.304 120.4 404.7 120.236 405.028 119.908C405.364 119.572 405.532 119.14 405.532 118.612ZM409.582 116.14C409.958 115.46 410.518 115.12 411.262 115.12C412.014 115.12 412.638 115.396 413.134 115.948C413.638 116.5 413.89 117.228 413.89 118.132C413.89 119.036 413.638 119.764 413.134 120.316C412.63 120.86 412.01 121.132 411.274 121.132C410.538 121.132 409.994 120.856 409.642 120.304V123.82H408.694V115.264H409.474L409.582 116.14ZM411.226 120.292C411.674 120.292 412.066 120.1 412.402 119.716C412.746 119.332 412.918 118.808 412.918 118.144C412.918 117.472 412.754 116.94 412.426 116.548C412.106 116.156 411.714 115.96 411.25 115.96C410.786 115.96 410.406 116.108 410.11 116.404C409.814 116.692 409.658 117.084 409.642 117.58V118.672C409.642 119.176 409.794 119.572 410.098 119.86C410.402 120.148 410.778 120.292 411.226 120.292ZM419.371 117.28C419.371 116.76 419.263 116.388 419.047 116.164C418.831 115.94 418.515 115.828 418.099 115.828C417.691 115.828 417.359 115.912 417.103 116.08C416.855 116.24 416.731 116.496 416.731 116.848H415.687C415.687 115.968 416.159 115.424 417.103 115.216C417.391 115.152 417.703 115.12 418.039 115.12C418.751 115.12 419.307 115.3 419.707 115.66C420.107 116.02 420.307 116.568 420.307 117.304V121H419.491L419.395 120.04C419.043 120.768 418.407 121.132 417.487 121.132C416.871 121.132 416.375 120.96 415.999 120.616C415.631 120.272 415.447 119.844 415.447 119.332C415.447 118.82 415.651 118.42 416.059 118.132C416.475 117.844 416.991 117.7 417.607 117.7C418.223 117.7 418.811 117.804 419.371 118.012V117.28ZM419.371 118.612C418.803 118.452 418.307 118.372 417.883 118.372C417.459 118.372 417.115 118.448 416.851 118.6C416.587 118.752 416.455 118.992 416.455 119.32C416.455 120.04 416.863 120.4 417.679 120.4C418.143 120.4 418.539 120.236 418.867 119.908C419.203 119.572 419.371 119.14 419.371 118.612ZM424.442 115.12C425.122 115.12 425.662 115.296 426.062 115.648C426.462 115.992 426.722 116.424 426.842 116.944L425.882 117.028C425.778 116.692 425.61 116.432 425.378 116.248C425.146 116.056 424.89 115.96 424.61 115.96C424.098 115.96 423.682 116.152 423.362 116.536C423.05 116.92 422.894 117.444 422.894 118.108C422.894 118.764 423.046 119.292 423.35 119.692C423.662 120.092 424.046 120.292 424.502 120.292C424.966 120.292 425.31 120.188 425.534 119.98C425.766 119.764 425.882 119.46 425.882 119.068H426.854C426.854 119.684 426.638 120.184 426.206 120.568C425.782 120.944 425.226 121.132 424.538 121.132C423.81 121.132 423.19 120.856 422.678 120.304C422.174 119.752 421.922 119.02 421.922 118.108C421.922 117.188 422.174 116.46 422.678 115.924C423.182 115.388 423.77 115.12 424.442 115.12ZM428.77 115.252H429.718V121H428.77V115.252ZM429.238 113.908C429.046 113.908 428.894 113.856 428.782 113.752C428.678 113.64 428.626 113.496 428.626 113.32C428.626 113.136 428.678 112.992 428.782 112.888C428.894 112.776 429.046 112.72 429.238 112.72C429.43 112.72 429.582 112.776 429.694 112.888C429.814 112.992 429.874 113.136 429.874 113.32C429.874 113.496 429.814 113.64 429.694 113.752C429.582 113.856 429.43 113.908 429.238 113.908ZM435.296 120.832C434.608 121.152 433.98 121.22 433.412 121.036C433.004 120.908 432.716 120.64 432.548 120.232C432.46 120.032 432.416 119.792 432.416 119.512V115.984H431.492V115.264H432.416V113.668H433.352V115.264H435.152V115.984H433.352V119.5C433.352 120.084 433.624 120.376 434.168 120.376C434.464 120.376 434.796 120.304 435.164 120.16L435.296 120.832ZM435.656 122.668C436.048 122.972 436.46 123.124 436.892 123.124C437.212 123.124 437.488 122.964 437.72 122.644C437.888 122.412 438.04 122.06 438.176 121.588L438.344 121L435.992 115.264H437.048L438.788 119.836L440.144 115.264H441.104L438.956 122.14C438.772 122.724 438.528 123.172 438.224 123.484C437.928 123.796 437.548 123.952 437.084 123.952C436.628 123.952 436.152 123.812 435.656 123.532V122.668Z" fill="black"/>
<path d="M507.15 101.288C507.014 100.552 506.474 100.184 505.53 100.184C505.026 100.184 504.638 100.296 504.366 100.52C504.094 100.736 503.958 101 503.958 101.312C503.958 101.616 504.042 101.848 504.21 102.008C504.378 102.168 504.65 102.308 505.026 102.428L506.598 102.968C507.134 103.152 507.558 103.404 507.87 103.724C508.19 104.044 508.35 104.496 508.35 105.08C508.35 105.656 508.102 106.144 507.606 106.544C507.11 106.936 506.446 107.132 505.614 107.132C504.782 107.132 504.098 106.924 503.562 106.508C503.034 106.084 502.762 105.492 502.746 104.732H503.67C503.67 105.228 503.842 105.608 504.186 105.872C504.538 106.136 504.986 106.268 505.53 106.268C506.082 106.268 506.518 106.148 506.838 105.908C507.158 105.66 507.318 105.372 507.318 105.044C507.318 104.708 507.218 104.444 507.018 104.252C506.826 104.06 506.538 103.9 506.154 103.772L504.822 103.28C504.198 103.072 503.726 102.824 503.406 102.536C503.086 102.248 502.926 101.828 502.926 101.276C502.926 100.716 503.15 100.252 503.598 99.884C504.046 99.508 504.674 99.32 505.482 99.32C506.29 99.32 506.906 99.5 507.33 99.86C507.762 100.212 508.01 100.688 508.074 101.288H507.15ZM514.296 105.86C513.904 106.692 513.268 107.108 512.388 107.108C511.74 107.108 511.216 106.928 510.816 106.568C510.424 106.208 510.228 105.652 510.228 104.9V101.252H511.176V104.828C511.176 105.796 511.624 106.28 512.52 106.28C513.04 106.28 513.46 106.08 513.78 105.68C514.108 105.28 514.28 104.768 514.296 104.144V101.252H515.244V107H514.296V105.86ZM517.373 102.668C517.373 102.196 517.573 101.82 517.973 101.54C518.381 101.26 518.929 101.12 519.617 101.12C520.305 101.12 520.841 101.264 521.225 101.552C521.617 101.84 521.821 102.204 521.837 102.644H520.913C520.841 102.124 520.401 101.864 519.593 101.864C519.201 101.864 518.897 101.952 518.681 102.128C518.473 102.304 518.369 102.496 518.369 102.704C518.369 102.904 518.449 103.076 518.609 103.22C518.769 103.356 519.025 103.476 519.377 103.58L520.529 103.964C521.017 104.116 521.389 104.312 521.645 104.552C521.909 104.784 522.041 105.108 522.041 105.524C522.041 105.932 521.829 106.304 521.405 106.64C520.981 106.968 520.389 107.132 519.629 107.132C518.869 107.132 518.277 106.964 517.853 106.628C517.429 106.284 517.205 105.844 517.181 105.308H518.093C518.109 105.668 518.253 105.94 518.525 106.124C518.805 106.3 519.153 106.388 519.569 106.388C519.985 106.388 520.329 106.3 520.601 106.124C520.873 105.948 521.009 105.74 521.009 105.5C521.009 105.252 520.929 105.064 520.769 104.936C520.609 104.808 520.349 104.696 519.989 104.6L518.873 104.228C517.873 103.932 517.373 103.412 517.373 102.668ZM526.989 106.832C526.301 107.152 525.673 107.22 525.105 107.036C524.697 106.908 524.409 106.64 524.241 106.232C524.153 106.032 524.109 105.792 524.109 105.512V101.984H523.185V101.264H524.109V99.668H525.045V101.264H526.845V101.984H525.045V105.5C525.045 106.084 525.317 106.376 525.861 106.376C526.157 106.376 526.489 106.304 526.857 106.16L526.989 106.832ZM532.053 103.28C532.053 102.76 531.945 102.388 531.729 102.164C531.513 101.94 531.197 101.828 530.781 101.828C530.373 101.828 530.041 101.912 529.785 102.08C529.537 102.24 529.413 102.496 529.413 102.848H528.369C528.369 101.968 528.841 101.424 529.785 101.216C530.073 101.152 530.385 101.12 530.721 101.12C531.433 101.12 531.989 101.3 532.389 101.66C532.789 102.02 532.989 102.568 532.989 103.304V107H532.173L532.077 106.04C531.725 106.768 531.089 107.132 530.169 107.132C529.553 107.132 529.057 106.96 528.681 106.616C528.313 106.272 528.129 105.844 528.129 105.332C528.129 104.82 528.333 104.42 528.741 104.132C529.157 103.844 529.673 103.7 530.289 103.7C530.905 103.7 531.493 103.804 532.053 104.012V103.28ZM532.053 104.612C531.485 104.452 530.989 104.372 530.565 104.372C530.141 104.372 529.797 104.448 529.533 104.6C529.269 104.752 529.137 104.992 529.137 105.32C529.137 106.04 529.545 106.4 530.361 106.4C530.825 106.4 531.221 106.236 531.549 105.908C531.885 105.572 532.053 105.14 532.053 104.612ZM535.276 101.252H536.224V107H535.276V101.252ZM535.744 99.908C535.552 99.908 535.4 99.856 535.288 99.752C535.184 99.64 535.132 99.496 535.132 99.32C535.132 99.136 535.184 98.992 535.288 98.888C535.4 98.776 535.552 98.72 535.744 98.72C535.936 98.72 536.088 98.776 536.2 98.888C536.32 98.992 536.38 99.136 536.38 99.32C536.38 99.496 536.32 99.64 536.2 99.752C536.088 99.856 535.936 99.908 535.744 99.908ZM539.714 102.368C540.09 101.536 540.734 101.12 541.646 101.12C542.326 101.12 542.854 101.344 543.23 101.792C543.614 102.24 543.806 102.852 543.806 103.628V107H542.87V103.628C542.87 103.076 542.738 102.66 542.474 102.38C542.218 102.1 541.85 101.96 541.37 101.96C540.89 101.96 540.502 102.156 540.206 102.548C539.91 102.94 539.754 103.484 539.738 104.18V107H538.79V101.264H539.606L539.714 102.368ZM549.584 103.28C549.584 102.76 549.476 102.388 549.26 102.164C549.044 101.94 548.728 101.828 548.312 101.828C547.904 101.828 547.572 101.912 547.316 102.08C547.068 102.24 546.944 102.496 546.944 102.848H545.9C545.9 101.968 546.372 101.424 547.316 101.216C547.604 101.152 547.916 101.12 548.252 101.12C548.964 101.12 549.52 101.3 549.92 101.66C550.32 102.02 550.52 102.568 550.52 103.304V107H549.704L549.608 106.04C549.256 106.768 548.62 107.132 547.7 107.132C547.084 107.132 546.588 106.96 546.212 106.616C545.844 106.272 545.66 105.844 545.66 105.332C545.66 104.82 545.864 104.42 546.272 104.132C546.688 103.844 547.204 103.7 547.82 103.7C548.436 103.7 549.024 103.804 549.584 104.012V103.28ZM549.584 104.612C549.016 104.452 548.52 104.372 548.096 104.372C547.672 104.372 547.328 104.448 547.064 104.6C546.8 104.752 546.668 104.992 546.668 105.32C546.668 106.04 547.076 106.4 547.892 106.4C548.356 106.4 548.752 106.236 549.08 105.908C549.416 105.572 549.584 105.14 549.584 104.612ZM553.695 102.116C554.079 101.452 554.639 101.12 555.375 101.12C556.111 101.12 556.723 101.396 557.211 101.948C557.699 102.492 557.943 103.216 557.943 104.12C557.943 105.016 557.695 105.744 557.199 106.304C556.703 106.856 556.099 107.132 555.387 107.132C555.003 107.132 554.655 107.036 554.343 106.844C554.039 106.652 553.799 106.368 553.623 105.992L553.407 107H552.747V98.828H553.695V102.116ZM555.315 101.96C554.859 101.96 554.479 102.108 554.175 102.404C553.871 102.692 553.711 103.096 553.695 103.616V104.552C553.695 105.08 553.851 105.504 554.163 105.824C554.483 106.136 554.867 106.292 555.315 106.292C555.763 106.292 556.151 106.096 556.479 105.704C556.807 105.304 556.971 104.776 556.971 104.12C556.971 103.464 556.807 102.94 556.479 102.548C556.159 102.156 555.771 101.96 555.315 101.96ZM559.755 98.828H560.703V107H559.755V98.828ZM565.098 106.364C565.89 106.364 566.342 106.016 566.454 105.32H567.426C567.338 105.896 567.082 106.344 566.658 106.664C566.242 106.976 565.722 107.132 565.098 107.132C564.33 107.132 563.706 106.86 563.226 106.316C562.746 105.764 562.506 105.032 562.506 104.12C562.506 103.208 562.746 102.48 563.226 101.936C563.714 101.392 564.358 101.12 565.158 101.12C565.966 101.12 566.566 101.432 566.958 102.056C567.358 102.68 567.498 103.44 567.378 104.336H563.454C563.454 104.928 563.598 105.416 563.886 105.8C564.174 106.176 564.578 106.364 565.098 106.364ZM565.794 102.02C565.61 101.924 565.386 101.876 565.122 101.876C564.634 101.876 564.246 102.044 563.958 102.38C563.678 102.708 563.514 103.12 563.466 103.616H566.526C566.526 102.816 566.282 102.284 565.794 102.02ZM514.712 115.12C515.392 115.12 515.932 115.296 516.332 115.648C516.732 115.992 516.992 116.424 517.112 116.944L516.152 117.028C516.048 116.692 515.88 116.432 515.648 116.248C515.416 116.056 515.16 115.96 514.88 115.96C514.368 115.96 513.952 116.152 513.632 116.536C513.32 116.92 513.164 117.444 513.164 118.108C513.164 118.764 513.316 119.292 513.62 119.692C513.932 120.092 514.316 120.292 514.772 120.292C515.236 120.292 515.58 120.188 515.804 119.98C516.036 119.764 516.152 119.46 516.152 119.068H517.124C517.124 119.684 516.908 120.184 516.476 120.568C516.052 120.944 515.496 121.132 514.808 121.132C514.08 121.132 513.46 120.856 512.948 120.304C512.444 119.752 512.192 119.02 512.192 118.108C512.192 117.188 512.444 116.46 512.948 115.924C513.452 115.388 514.04 115.12 514.712 115.12ZM522.532 117.28C522.532 116.76 522.424 116.388 522.208 116.164C521.992 115.94 521.676 115.828 521.26 115.828C520.852 115.828 520.52 115.912 520.264 116.08C520.016 116.24 519.892 116.496 519.892 116.848H518.848C518.848 115.968 519.32 115.424 520.264 115.216C520.552 115.152 520.864 115.12 521.2 115.12C521.912 115.12 522.468 115.3 522.868 115.66C523.268 116.02 523.468 116.568 523.468 117.304V121H522.652L522.556 120.04C522.204 120.768 521.568 121.132 520.648 121.132C520.032 121.132 519.536 120.96 519.16 120.616C518.792 120.272 518.608 119.844 518.608 119.332C518.608 118.82 518.812 118.42 519.22 118.132C519.636 117.844 520.152 117.7 520.768 117.7C521.384 117.7 521.972 117.804 522.532 118.012V117.28ZM522.532 118.612C521.964 118.452 521.468 118.372 521.044 118.372C520.62 118.372 520.276 118.448 520.012 118.6C519.748 118.752 519.616 118.992 519.616 119.32C519.616 120.04 520.024 120.4 520.84 120.4C521.304 120.4 521.7 120.236 522.028 119.908C522.364 119.572 522.532 119.14 522.532 118.612ZM526.582 116.14C526.958 115.46 527.518 115.12 528.262 115.12C529.014 115.12 529.638 115.396 530.134 115.948C530.638 116.5 530.89 117.228 530.89 118.132C530.89 119.036 530.638 119.764 530.134 120.316C529.63 120.86 529.01 121.132 528.274 121.132C527.538 121.132 526.994 120.856 526.642 120.304V123.82H525.694V115.264H526.474L526.582 116.14ZM528.226 120.292C528.674 120.292 529.066 120.1 529.402 119.716C529.746 119.332 529.918 118.808 529.918 118.144C529.918 117.472 529.754 116.94 529.426 116.548C529.106 116.156 528.714 115.96 528.25 115.96C527.786 115.96 527.406 116.108 527.11 116.404C526.814 116.692 526.658 117.084 526.642 117.58V118.672C526.642 119.176 526.794 119.572 527.098 119.86C527.402 120.148 527.778 120.292 528.226 120.292ZM536.371 117.28C536.371 116.76 536.263 116.388 536.047 116.164C535.831 115.94 535.515 115.828 535.099 115.828C534.691 115.828 534.359 115.912 534.103 116.08C533.855 116.24 533.731 116.496 533.731 116.848H532.687C532.687 115.968 533.159 115.424 534.103 115.216C534.391 115.152 534.703 115.12 535.039 115.12C535.751 115.12 536.307 115.3 536.707 115.66C537.107 116.02 537.307 116.568 537.307 117.304V121H536.491L536.395 120.04C536.043 120.768 535.407 121.132 534.487 121.132C533.871 121.132 533.375 120.96 532.999 120.616C532.631 120.272 532.447 119.844 532.447 119.332C532.447 118.82 532.651 118.42 533.059 118.132C533.475 117.844 533.991 117.7 534.607 117.7C535.223 117.7 535.811 117.804 536.371 118.012V117.28ZM536.371 118.612C535.803 118.452 535.307 118.372 534.883 118.372C534.459 118.372 534.115 118.448 533.851 118.6C533.587 118.752 533.455 118.992 533.455 119.32C533.455 120.04 533.863 120.4 534.679 120.4C535.143 120.4 535.539 120.236 535.867 119.908C536.203 119.572 536.371 119.14 536.371 118.612ZM541.442 115.12C542.122 115.12 542.662 115.296 543.062 115.648C543.462 115.992 543.722 116.424 543.842 116.944L542.882 117.028C542.778 116.692 542.61 116.432 542.378 116.248C542.146 116.056 541.89 115.96 541.61 115.96C541.098 115.96 540.682 116.152 540.362 116.536C540.05 116.92 539.894 117.444 539.894 118.108C539.894 118.764 540.046 119.292 540.35 119.692C540.662 120.092 541.046 120.292 541.502 120.292C541.966 120.292 542.31 120.188 542.534 119.98C542.766 119.764 542.882 119.46 542.882 119.068H543.854C543.854 119.684 543.638 120.184 543.206 120.568C542.782 120.944 542.226 121.132 541.538 121.132C540.81 121.132 540.19 120.856 539.678 120.304C539.174 119.752 538.922 119.02 538.922 118.108C538.922 117.188 539.174 116.46 539.678 115.924C540.182 115.388 540.77 115.12 541.442 115.12ZM545.77 115.252H546.718V121H545.77V115.252ZM546.238 113.908C546.046 113.908 545.894 113.856 545.782 113.752C545.678 113.64 545.626 113.496 545.626 113.32C545.626 113.136 545.678 112.992 545.782 112.888C545.894 112.776 546.046 112.72 546.238 112.72C546.43 112.72 546.582 112.776 546.694 112.888C546.814 112.992 546.874 113.136 546.874 113.32C546.874 113.496 546.814 113.64 546.694 113.752C546.582 113.856 546.43 113.908 546.238 113.908ZM552.296 120.832C551.608 121.152 550.98 121.22 550.412 121.036C550.004 120.908 549.716 120.64 549.548 120.232C549.46 120.032 549.416 119.792 549.416 119.512V115.984H548.492V115.264H549.416V113.668H550.352V115.264H552.152V115.984H550.352V119.5C550.352 120.084 550.624 120.376 551.168 120.376C551.464 120.376 551.796 120.304 552.164 120.16L552.296 120.832ZM552.656 122.668C553.048 122.972 553.46 123.124 553.892 123.124C554.212 123.124 554.488 122.964 554.72 122.644C554.888 122.412 555.04 122.06 555.176 121.588L555.344 121L552.992 115.264H554.048L555.788 119.836L557.144 115.264H558.104L555.956 122.14C555.772 122.724 555.528 123.172 555.224 123.484C554.928 123.796 554.548 123.952 554.084 123.952C553.628 123.952 553.152 123.812 552.656 123.532V122.668Z" fill="black"/>
</svg>
