<svg width="243" height="78" viewBox="0 0 243 78" fill="none" xmlns="http://www.w3.org/2000/svg">
<g clip-path="url(#clip0)">
<rect width="242" height="24.8182" transform="translate(0.5)" fill="#1A7EBB"/>
<path d="M111.155 11.2437C111.004 10.4401 110.436 10.0383 109.453 10.0383C108.971 10.0383 108.593 10.1375 108.319 10.3361C108.054 10.5252 107.921 10.7568 107.921 11.031C107.921 11.3052 108.007 11.5226 108.177 11.6834C108.356 11.8346 108.631 11.9765 108.999 12.1088L110.999 12.8888C111.68 13.1535 112.204 13.4892 112.573 13.8957C112.942 14.2928 113.126 14.7939 113.126 15.399C113.126 16.231 112.814 16.8928 112.19 17.3845C111.566 17.8666 110.677 18.1077 109.524 18.1077C108.503 18.1077 107.676 17.8572 107.042 17.3561C106.333 16.8077 105.96 16.0325 105.922 15.0303H107.581C107.581 15.7866 107.973 16.2641 108.758 16.4626C108.995 16.5288 109.307 16.5619 109.694 16.5619C110.082 16.5619 110.441 16.4674 110.772 16.2783C111.103 16.0797 111.268 15.8197 111.268 15.4983C111.268 15.1674 111.179 14.9168 110.999 14.7466C110.819 14.567 110.526 14.4015 110.12 14.2503L108.29 13.527C107.581 13.2528 107.037 12.9314 106.659 12.5626C106.281 12.1939 106.092 11.6834 106.092 11.031C106.092 10.2652 106.39 9.66009 106.985 9.21572C107.591 8.75245 108.408 8.52082 109.439 8.52082C110.479 8.52082 111.278 8.76191 111.836 9.24409C112.403 9.71682 112.729 10.3834 112.814 11.2437H111.155ZM117.986 10.8325C118.421 10.8325 118.809 10.9081 119.149 11.0594C119.499 11.2012 119.792 11.3903 120.028 11.6266C120.501 12.0805 120.78 12.6525 120.865 13.3426L119.177 13.3852C119.102 13.0826 118.96 12.8321 118.752 12.6335C118.553 12.435 118.322 12.3357 118.057 12.3357C117.792 12.3357 117.565 12.3783 117.376 12.4634C117.187 12.539 117.022 12.6619 116.88 12.8321C116.559 13.2292 116.398 13.7775 116.398 14.4772C116.398 15.1768 116.549 15.7063 116.852 16.0655C117.154 16.4154 117.518 16.5903 117.944 16.5903C118.379 16.5903 118.691 16.491 118.88 16.2925C119.078 16.0845 119.177 15.8055 119.177 15.4557H120.865C120.865 16.2121 120.615 16.8408 120.113 17.3419C119.603 17.8525 118.889 18.1077 117.972 18.1077C117.064 18.1077 116.303 17.7768 115.689 17.115C115.036 16.4059 114.71 15.5219 114.71 14.463C114.71 13.3474 115.036 12.4539 115.689 11.7826C116.303 11.1492 117.069 10.8325 117.986 10.8325ZM125.592 10.8325C126.055 10.8325 126.49 10.9081 126.896 11.0594C127.303 11.2012 127.653 11.4234 127.946 11.7259C128.598 12.3877 128.924 13.3048 128.924 14.4772C128.924 15.6306 128.598 16.5383 127.946 17.2001C127.36 17.8052 126.575 18.1077 125.592 18.1077C124.608 18.1077 123.814 17.8052 123.209 17.2001C122.557 16.5477 122.23 15.6401 122.23 14.4772C122.23 13.2954 122.557 12.3783 123.209 11.7259C123.805 11.1303 124.599 10.8325 125.592 10.8325ZM127.251 14.463C127.251 13.735 127.109 13.1914 126.825 12.8321C126.542 12.4634 126.145 12.279 125.634 12.279C125.133 12.279 124.722 12.4634 124.4 12.8321C124.079 13.1914 123.918 13.735 123.918 14.463C123.918 15.191 124.06 15.7394 124.344 16.1081C124.637 16.4674 125.034 16.647 125.535 16.647C126.036 16.647 126.447 16.4674 126.769 16.1081C127.09 15.7394 127.251 15.191 127.251 14.463ZM132.589 12.3783C133.005 11.3855 133.629 10.8892 134.461 10.8892C134.622 10.8892 134.825 10.9223 135.071 10.9885L135.042 12.6619C134.778 12.6052 134.518 12.5768 134.262 12.5768C133.147 12.5768 132.589 13.3474 132.589 14.8885V17.9092H130.915V11.0026H132.589V12.3783ZM141.623 11.8394C141.859 12.1419 142.034 12.4917 142.148 12.8888C142.271 13.2859 142.332 13.6499 142.332 13.9808C142.332 14.3117 142.313 14.6095 142.275 14.8743H137.822C137.841 15.4321 137.978 15.8859 138.234 16.2357C138.489 16.5855 138.876 16.7605 139.396 16.7605C140.087 16.7605 140.498 16.4579 140.63 15.8528H142.318C142.204 16.543 141.888 17.0866 141.368 17.4837C140.829 17.8997 140.172 18.1077 139.396 18.1077C138.489 18.1077 137.728 17.7768 137.113 17.115C136.48 16.4248 136.163 15.5408 136.163 14.463C136.163 13.3568 136.48 12.4681 137.113 11.7968C137.718 11.1539 138.479 10.8325 139.396 10.8325C140.351 10.8325 141.094 11.1681 141.623 11.8394ZM139.411 12.1655C138.938 12.1655 138.569 12.3215 138.304 12.6335C138.04 12.9361 137.884 13.3285 137.836 13.8106H140.772C140.772 13.0637 140.536 12.5626 140.063 12.3074C139.883 12.2128 139.666 12.1655 139.411 12.1655Z" fill="white"/>
<path d="M189.962 16.4485C189.565 17.5546 188.804 18.1077 187.679 18.1077C186.526 18.1077 185.575 17.6728 184.828 16.803C184.053 15.9048 183.666 14.7561 183.666 13.3568C183.666 11.8819 184.082 10.7001 184.914 9.81136C185.717 8.951 186.752 8.52082 188.019 8.52082C188.88 8.52082 189.598 8.70991 190.175 9.08809C190.761 9.45682 191.22 10.043 191.551 10.8466L189.835 11.2437C189.334 10.4401 188.7 10.0383 187.934 10.0383C187.235 10.0383 186.653 10.3361 186.19 10.9317C185.708 11.5368 185.467 12.3452 185.467 13.3568C185.467 14.3117 185.684 15.087 186.119 15.6826C186.544 16.2688 187.112 16.5619 187.821 16.5619C188.426 16.5619 188.922 16.3681 189.31 15.9805C189.707 15.5834 189.906 15.0397 189.906 14.3495V14.2928L187.835 14.2503V13.1725H191.508V17.9092H190.147L189.962 16.4485ZM196.624 10.8325C197.088 10.8325 197.522 10.9081 197.929 11.0594C198.336 11.2012 198.685 11.4234 198.978 11.7259C199.631 12.3877 199.957 13.3048 199.957 14.4772C199.957 15.6306 199.631 16.5383 198.978 17.2001C198.392 17.8052 197.608 18.1077 196.624 18.1077C195.641 18.1077 194.847 17.8052 194.242 17.2001C193.589 16.5477 193.263 15.6401 193.263 14.4772C193.263 13.2954 193.589 12.3783 194.242 11.7259C194.837 11.1303 195.632 10.8325 196.624 10.8325ZM198.284 14.463C198.284 13.735 198.142 13.1914 197.858 12.8321C197.574 12.4634 197.177 12.279 196.667 12.279C196.166 12.279 195.754 12.4634 195.433 12.8321C195.112 13.1914 194.951 13.735 194.951 14.463C194.951 15.191 195.093 15.7394 195.376 16.1081C195.669 16.4674 196.066 16.647 196.568 16.647C197.069 16.647 197.48 16.4674 197.801 16.1081C198.123 15.7394 198.284 15.191 198.284 14.463ZM204.217 13.8815C204.766 13.8815 205.399 13.9714 206.118 14.151V13.4703C206.118 12.9881 206.018 12.6335 205.82 12.4066C205.631 12.1703 205.314 12.0521 204.87 12.0521C204.435 12.0521 204.099 12.1419 203.863 12.3215C203.626 12.4917 203.508 12.7375 203.508 13.059H201.679C201.679 12.2743 201.953 11.707 202.501 11.3572C203.059 11.0074 203.834 10.8325 204.827 10.8325C206.245 10.8325 207.162 11.3288 207.578 12.3215C207.72 12.6619 207.791 13.0637 207.791 13.527V17.9092H206.33L206.203 16.9874C205.758 17.7343 205.078 18.1077 204.161 18.1077C203.272 18.1077 202.582 17.8903 202.09 17.4554C201.636 17.0394 201.409 16.5146 201.409 15.8812C201.409 15.2383 201.66 14.7466 202.161 14.4063C202.662 14.0565 203.348 13.8815 204.217 13.8815ZM206.118 15.2146C205.56 15.0634 205.04 14.9877 204.558 14.9877C203.65 14.9877 203.196 15.2903 203.196 15.8954C203.196 16.1506 203.3 16.3728 203.508 16.5619C203.716 16.7415 204.047 16.8314 204.501 16.8314C204.964 16.8314 205.342 16.6801 205.636 16.3775C205.938 16.0655 206.099 15.6779 206.118 15.2146ZM210.23 8.18045H211.904V17.9092H210.23V8.18045Z" fill="white"/>
<rect x="0.5" y="24.8181" width="242" height="1.18182" fill="#C5C6C8"/>
<g clip-path="url(#clip1)">
<rect width="242" height="52" transform="translate(0.5 26)" fill="#F8F9FA"/>
<rect x="105.591" y="36.0455" width="48.4545" height="33.0909" rx="11.2273" fill="white"/>
<path d="M127.733 56.4647H132.909V57.5H126.612V56.1811C126.612 55.1316 127.01 54.3611 127.804 53.8695C128.059 53.7087 128.343 53.5669 128.655 53.444L130.413 52.7349C131.321 52.3756 131.775 51.7847 131.775 50.9622C131.775 50.5084 131.619 50.1396 131.307 49.856C130.995 49.5629 130.555 49.4164 129.988 49.4164C129.43 49.4164 128.971 49.5345 128.612 49.7709C128.262 50.0073 128.059 50.3618 128.002 50.8345H126.768C126.816 50.0593 127.128 49.4636 127.704 49.0476C128.281 48.6316 129.019 48.4236 129.917 48.4236C130.824 48.4236 131.562 48.6695 132.129 49.1611C132.696 49.6527 132.98 50.2625 132.98 50.9905C132.98 51.7091 132.791 52.2811 132.413 52.7065C132.044 53.132 131.534 53.4724 130.881 53.7276L129.08 54.4509C128.626 54.64 128.286 54.8575 128.059 55.1033C127.842 55.3396 127.733 55.6516 127.733 56.0393V56.4647Z" fill="black"/>
<rect x="105.591" y="36.0455" width="48.4545" height="33.0909" rx="11.2273" stroke="#FFC107" stroke-width="1.18182"/>
<rect x="183.59" y="36.0455" width="48.4545" height="33.0909" rx="11.2273" fill="white"/>
<path d="M209.926 48.452V54.38H211.472V55.3444H209.926V57.5H208.834V55.3444H204.225V54.4793L208.891 48.452H209.926ZM205.558 54.4793H208.862V50.2247L205.558 54.4793Z" fill="black"/>
<rect x="183.59" y="36.0455" width="48.4545" height="33.0909" rx="11.2273" stroke="#28A745" stroke-width="1.18182"/>
<path d="M-290.216 36.72C-289.501 36.624 -288.877 36.352 -288.344 35.904H-287.32V46H-288.568V37.408C-289.101 37.7493 -289.651 37.936 -290.216 37.968V36.72ZM-284.295 46.144C-284.562 46.144 -284.786 46.0587 -284.967 45.888C-285.138 45.7067 -285.223 45.4933 -285.223 45.248C-285.223 44.992 -285.138 44.7787 -284.967 44.608C-284.786 44.4267 -284.562 44.336 -284.295 44.336C-284.018 44.336 -283.788 44.4267 -283.607 44.608C-283.426 44.7787 -283.335 44.992 -283.335 45.248C-283.335 45.4933 -283.426 45.7067 -283.607 45.888C-283.788 46.0587 -284.018 46.144 -284.295 46.144ZM-282.06 36.72C-281.345 36.624 -280.721 36.352 -280.188 35.904H-279.164V46H-280.412V37.408C-280.945 37.7493 -281.494 37.936 -282.06 37.968V36.72ZM-272.118 35.936H-270.854V46H-272.118V35.936ZM-262.626 39.488V35.104H-261.378V46H-262.402L-262.562 44.72C-262.807 45.2 -263.133 45.5627 -263.538 45.808C-263.943 46.0533 -264.386 46.176 -264.866 46.176C-265.837 46.176 -266.653 45.8027 -267.314 45.056C-267.965 44.3093 -268.29 43.3387 -268.29 42.144C-268.29 40.9387 -267.97 39.9733 -267.33 39.248C-266.679 38.5227 -265.863 38.16 -264.882 38.16C-263.89 38.16 -263.138 38.6027 -262.626 39.488ZM-264.802 39.28C-265.421 39.28 -265.943 39.5413 -266.37 40.064C-266.786 40.5867 -266.994 41.2853 -266.994 42.16C-266.994 43.0347 -266.781 43.7387 -266.354 44.272C-265.927 44.7947 -265.415 45.056 -264.818 45.056C-264.221 45.056 -263.714 44.8587 -263.298 44.464C-262.871 44.0587 -262.647 43.52 -262.626 42.848V41.6C-262.626 40.8853 -262.834 40.32 -263.25 39.904C-263.666 39.488 -264.183 39.28 -264.802 39.28ZM-255.494 45.152C-254.438 45.152 -253.835 44.688 -253.686 43.76H-252.39C-252.507 44.528 -252.849 45.1253 -253.414 45.552C-253.969 45.968 -254.662 46.176 -255.494 46.176C-256.518 46.176 -257.35 45.8133 -257.99 45.088C-258.63 44.352 -258.95 43.376 -258.95 42.16C-258.95 40.944 -258.63 39.9733 -257.99 39.248C-257.339 38.5227 -256.481 38.16 -255.414 38.16C-254.337 38.16 -253.537 38.576 -253.014 39.408C-252.481 40.24 -252.294 41.2533 -252.454 42.448H-257.686C-257.686 43.2373 -257.494 43.888 -257.11 44.4C-256.726 44.9013 -256.187 45.152 -255.494 45.152ZM-254.566 39.36C-254.811 39.232 -255.11 39.168 -255.462 39.168C-256.113 39.168 -256.63 39.392 -257.014 39.84C-257.387 40.2773 -257.606 40.8267 -257.67 41.488H-253.59C-253.59 40.4213 -253.915 39.712 -254.566 39.36ZM-248.684 39.824C-248.182 38.7147 -247.324 38.16 -246.108 38.16C-245.201 38.16 -244.497 38.4587 -243.996 39.056C-243.484 39.6533 -243.228 40.4693 -243.228 41.504V46H-244.476V41.504C-244.476 40.768 -244.652 40.2133 -245.004 39.84C-245.345 39.4667 -245.836 39.28 -246.476 39.28C-247.116 39.28 -247.633 39.5413 -248.028 40.064C-248.422 40.5867 -248.63 41.312 -248.652 42.24V46H-249.916V38.352H-248.828L-248.684 39.824ZM-236.259 45.776C-237.176 46.2027 -238.014 46.2933 -238.771 46.048C-239.315 45.8773 -239.699 45.52 -239.923 44.976C-240.04 44.7093 -240.099 44.3893 -240.099 44.016V39.312H-241.331V38.352H-240.099V36.224H-238.851V38.352H-236.451V39.312H-238.851V44C-238.851 44.7787 -238.488 45.168 -237.763 45.168C-237.368 45.168 -236.926 45.072 -236.435 44.88L-236.259 45.776ZM-234.163 38.336H-232.899V46H-234.163V38.336ZM-233.539 36.544C-233.795 36.544 -233.998 36.4747 -234.147 36.336C-234.286 36.1867 -234.355 35.9947 -234.355 35.76C-234.355 35.5147 -234.286 35.3227 -234.147 35.184C-233.998 35.0347 -233.795 34.96 -233.539 34.96C-233.283 34.96 -233.081 35.0347 -232.931 35.184C-232.771 35.3227 -232.691 35.5147 -232.691 35.76C-232.691 35.9947 -232.771 36.1867 -232.931 36.336C-233.081 36.4747 -233.283 36.544 -233.539 36.544ZM-225.75 36.176C-226.102 36.0373 -226.379 35.968 -226.582 35.968C-226.955 35.968 -227.249 36.0587 -227.462 36.24C-227.675 36.4213 -227.782 36.7413 -227.782 37.2V38.352H-226.198V39.216H-227.782V46H-229.03V39.216H-230.294V38.352H-229.03V37.184C-229.03 36.4267 -228.822 35.872 -228.406 35.52C-227.99 35.1573 -227.51 34.976 -226.966 34.976C-226.422 34.976 -225.942 35.0453 -225.526 35.184L-225.75 36.176ZM-225.514 48.224C-224.991 48.6293 -224.442 48.832 -223.866 48.832C-223.439 48.832 -223.071 48.6187 -222.762 48.192C-222.538 47.8827 -222.335 47.4133 -222.154 46.784L-221.93 46L-225.066 38.352H-223.658L-221.338 44.448L-219.53 38.352H-218.25L-221.114 47.52C-221.359 48.2987 -221.684 48.896 -222.09 49.312C-222.484 49.728 -222.991 49.936 -223.61 49.936C-224.218 49.936 -224.852 49.7493 -225.514 49.376V48.224ZM-207.679 41.04C-207.679 40.3467 -207.823 39.8507 -208.111 39.552C-208.399 39.2533 -208.821 39.104 -209.375 39.104C-209.919 39.104 -210.362 39.216 -210.703 39.44C-211.034 39.6533 -211.199 39.9947 -211.199 40.464H-212.591C-212.591 39.2907 -211.962 38.5653 -210.703 38.288C-210.319 38.2027 -209.903 38.16 -209.455 38.16C-208.506 38.16 -207.765 38.4 -207.231 38.88C-206.698 39.36 -206.431 40.0907 -206.431 41.072V46H-207.519L-207.647 44.72C-208.117 45.6907 -208.965 46.176 -210.191 46.176C-211.013 46.176 -211.674 45.9467 -212.175 45.488C-212.666 45.0293 -212.911 44.4587 -212.911 43.776C-212.911 43.0933 -212.639 42.56 -212.095 42.176C-211.541 41.792 -210.853 41.6 -210.031 41.6C-209.21 41.6 -208.426 41.7387 -207.679 42.016V41.04ZM-207.679 42.816C-208.437 42.6027 -209.098 42.496 -209.663 42.496C-210.229 42.496 -210.687 42.5973 -211.039 42.8C-211.391 43.0027 -211.567 43.3227 -211.567 43.76C-211.567 44.72 -211.023 45.2 -209.935 45.2C-209.317 45.2 -208.789 44.9813 -208.351 44.544C-207.903 44.096 -207.679 43.52 -207.679 42.816ZM-202.246 39.824C-201.745 38.7147 -200.886 38.16 -199.67 38.16C-198.763 38.16 -198.059 38.4587 -197.558 39.056C-197.046 39.6533 -196.79 40.4693 -196.79 41.504V46H-198.038V41.504C-198.038 40.768 -198.214 40.2133 -198.566 39.84C-198.907 39.4667 -199.398 39.28 -200.038 39.28C-200.678 39.28 -201.195 39.5413 -201.59 40.064C-201.985 40.5867 -202.193 41.312 -202.214 42.24V46H-203.478V38.352H-202.39L-202.246 39.824ZM-188.813 39.488V35.104H-187.565V46H-188.589L-188.749 44.72C-188.995 45.2 -189.32 45.5627 -189.725 45.808C-190.131 46.0533 -190.573 46.176 -191.053 46.176C-192.024 46.176 -192.84 45.8027 -193.501 45.056C-194.152 44.3093 -194.477 43.3387 -194.477 42.144C-194.477 40.9387 -194.157 39.9733 -193.517 39.248C-192.867 38.5227 -192.051 38.16 -191.069 38.16C-190.077 38.16 -189.325 38.6027 -188.813 39.488ZM-190.989 39.28C-191.608 39.28 -192.131 39.5413 -192.557 40.064C-192.973 40.5867 -193.181 41.2853 -193.181 42.16C-193.181 43.0347 -192.968 43.7387 -192.541 44.272C-192.115 44.7947 -191.603 45.056 -191.005 45.056C-190.408 45.056 -189.901 44.8587 -189.485 44.464C-189.059 44.0587 -188.835 43.52 -188.813 42.848V41.6C-188.813 40.8853 -189.021 40.32 -189.437 39.904C-189.853 39.488 -190.371 39.28 -190.989 39.28ZM-177.965 38.16C-177.058 38.16 -176.338 38.3947 -175.805 38.864C-175.272 39.3227 -174.925 39.8987 -174.765 40.592L-176.045 40.704C-176.184 40.256 -176.408 39.9093 -176.717 39.664C-177.026 39.408 -177.368 39.28 -177.741 39.28C-178.424 39.28 -178.978 39.536 -179.405 40.048C-179.821 40.56 -180.029 41.2587 -180.029 42.144C-180.029 43.0187 -179.826 43.7227 -179.421 44.256C-179.005 44.7893 -178.493 45.056 -177.885 45.056C-177.266 45.056 -176.808 44.9173 -176.509 44.64C-176.2 44.352 -176.045 43.9467 -176.045 43.424H-174.749C-174.749 44.2453 -175.037 44.912 -175.613 45.424C-176.178 45.9253 -176.92 46.176 -177.837 46.176C-178.808 46.176 -179.634 45.808 -180.317 45.072C-180.989 44.336 -181.325 43.36 -181.325 42.144C-181.325 40.9173 -180.989 39.9467 -180.317 39.232C-179.645 38.5173 -178.861 38.16 -177.965 38.16ZM-169.523 38.16C-168.456 38.16 -167.597 38.5067 -166.947 39.2C-166.285 39.8933 -165.955 40.8853 -165.955 42.176C-165.955 43.456 -166.285 44.4427 -166.947 45.136C-167.597 45.8293 -168.456 46.176 -169.523 46.176C-170.589 46.176 -171.453 45.8293 -172.115 45.136C-172.765 44.4427 -173.091 43.456 -173.091 42.176C-173.091 40.8853 -172.765 39.8933 -172.115 39.2C-171.453 38.5067 -170.589 38.16 -169.523 38.16ZM-167.235 42.176C-167.235 41.2587 -167.427 40.544 -167.811 40.032C-168.195 39.5093 -168.76 39.248 -169.507 39.248C-170.243 39.248 -170.808 39.5093 -171.203 40.032C-171.597 40.544 -171.795 41.2587 -171.795 42.176C-171.795 43.0827 -171.608 43.7973 -171.235 44.32C-170.861 44.832 -170.307 45.088 -169.571 45.088C-168.824 45.088 -168.248 44.832 -167.843 44.32C-167.437 43.7973 -167.235 43.0827 -167.235 42.176ZM-162.324 39.824C-161.823 38.7147 -160.964 38.16 -159.748 38.16C-158.842 38.16 -158.138 38.4587 -157.636 39.056C-157.124 39.6533 -156.868 40.4693 -156.868 41.504V46H-158.116V41.504C-158.116 40.768 -158.292 40.2133 -158.644 39.84C-158.986 39.4667 -159.476 39.28 -160.116 39.28C-160.756 39.28 -161.274 39.5413 -161.668 40.064C-162.063 40.5867 -162.271 41.312 -162.292 42.24V46H-163.556V38.352H-162.468L-162.324 39.824ZM-153.804 38.352L-151.5 44.672L-149.18 38.352H-147.756L-150.796 46H-152.188L-155.228 38.352H-153.804ZM-143.213 45.152C-142.157 45.152 -141.554 44.688 -141.405 43.76H-140.109C-140.226 44.528 -140.567 45.1253 -141.133 45.552C-141.687 45.968 -142.381 46.176 -143.213 46.176C-144.237 46.176 -145.069 45.8133 -145.709 45.088C-146.349 44.352 -146.669 43.376 -146.669 42.16C-146.669 40.944 -146.349 39.9733 -145.709 39.248C-145.058 38.5227 -144.199 38.16 -143.133 38.16C-142.055 38.16 -141.255 38.576 -140.733 39.408C-140.199 40.24 -140.013 41.2533 -140.173 42.448H-145.405C-145.405 43.2373 -145.213 43.888 -144.829 44.4C-144.445 44.9013 -143.906 45.152 -143.213 45.152ZM-142.285 39.36C-142.53 39.232 -142.829 39.168 -143.181 39.168C-143.831 39.168 -144.349 39.392 -144.733 39.84C-145.106 40.2773 -145.325 40.8267 -145.389 41.488H-141.309C-141.309 40.4213 -141.634 39.712 -142.285 39.36ZM-136.402 39.824C-135.901 38.7147 -135.042 38.16 -133.826 38.16C-132.92 38.16 -132.216 38.4587 -131.714 39.056C-131.202 39.6533 -130.946 40.4693 -130.946 41.504V46H-132.194V41.504C-132.194 40.768 -132.37 40.2133 -132.722 39.84C-133.064 39.4667 -133.554 39.28 -134.194 39.28C-134.834 39.28 -135.352 39.5413 -135.746 40.064C-136.141 40.5867 -136.349 41.312 -136.37 42.24V46H-137.634V38.352H-136.546L-136.402 39.824ZM-125.338 45.152C-124.282 45.152 -123.679 44.688 -123.53 43.76H-122.234C-122.351 44.528 -122.692 45.1253 -123.258 45.552C-123.812 45.968 -124.506 46.176 -125.338 46.176C-126.362 46.176 -127.194 45.8133 -127.834 45.088C-128.474 44.352 -128.794 43.376 -128.794 42.16C-128.794 40.944 -128.474 39.9733 -127.834 39.248C-127.183 38.5227 -126.324 38.16 -125.258 38.16C-124.18 38.16 -123.38 38.576 -122.858 39.408C-122.324 40.24 -122.138 41.2533 -122.298 42.448H-127.53C-127.53 43.2373 -127.338 43.888 -126.954 44.4C-126.57 44.9013 -126.031 45.152 -125.338 45.152ZM-124.41 39.36C-124.655 39.232 -124.954 39.168 -125.306 39.168C-125.956 39.168 -126.474 39.392 -126.858 39.84C-127.231 40.2773 -127.45 40.8267 -127.514 41.488H-123.434C-123.434 40.4213 -123.759 39.712 -124.41 39.36ZM-113.643 41.952L-114.667 42.784V46H-115.931V35.104H-114.667V41.44L-110.971 38.352H-109.211L-112.731 41.216L-109.035 46H-110.587L-113.643 41.952ZM-104.26 45.152C-103.204 45.152 -102.601 44.688 -102.452 43.76H-101.156C-101.273 44.528 -101.614 45.1253 -102.18 45.552C-102.734 45.968 -103.428 46.176 -104.26 46.176C-105.284 46.176 -106.116 45.8133 -106.756 45.088C-107.396 44.352 -107.716 43.376 -107.716 42.16C-107.716 40.944 -107.396 39.9733 -106.756 39.248C-106.105 38.5227 -105.246 38.16 -104.18 38.16C-103.102 38.16 -102.302 38.576 -101.78 39.408C-101.246 40.24 -101.06 41.2533 -101.22 42.448H-106.452C-106.452 43.2373 -106.26 43.888 -105.876 44.4C-105.492 44.9013 -104.953 45.152 -104.26 45.152ZM-103.332 39.36C-103.577 39.232 -103.876 39.168 -104.228 39.168C-104.878 39.168 -105.396 39.392 -105.78 39.84C-106.153 40.2773 -106.372 40.8267 -106.436 41.488H-102.356C-102.356 40.4213 -102.681 39.712 -103.332 39.36ZM-100.201 48.224C-99.6786 48.6293 -99.1292 48.832 -98.5532 48.832C-98.1266 48.832 -97.7586 48.6187 -97.4492 48.192C-97.2252 47.8827 -97.0226 47.4133 -96.8412 46.784L-96.6172 46L-99.7533 38.352H-98.3452L-96.0252 44.448L-94.2172 38.352H-92.9372L-95.8012 47.52C-96.0466 48.2987 -96.3719 48.896 -96.7772 49.312C-97.1719 49.728 -97.6786 49.936 -98.2972 49.936C-98.9052 49.936 -99.5399 49.7493 -100.201 49.376V48.224ZM-87.5027 40.224C-87.5027 39.5947 -87.2361 39.0933 -86.7027 38.72C-86.1587 38.3467 -85.4281 38.16 -84.5107 38.16C-83.5934 38.16 -82.8787 38.352 -82.3667 38.736C-81.8441 39.12 -81.5721 39.6053 -81.5507 40.192H-82.7827C-82.8787 39.4987 -83.4654 39.152 -84.5427 39.152C-85.0654 39.152 -85.4707 39.2693 -85.7587 39.504C-86.0361 39.7387 -86.1747 39.9947 -86.1747 40.272C-86.1747 40.5387 -86.0681 40.768 -85.8547 40.96C-85.6414 41.1413 -85.3001 41.3013 -84.8307 41.44L-83.2947 41.952C-82.6441 42.1547 -82.1481 42.416 -81.8067 42.736C-81.4547 43.0453 -81.2787 43.4773 -81.2787 44.032C-81.2787 44.576 -81.5614 45.072 -82.1267 45.52C-82.6921 45.9573 -83.4814 46.176 -84.4948 46.176C-85.5081 46.176 -86.2974 45.952 -86.8627 45.504C-87.4281 45.0453 -87.7267 44.4587 -87.7587 43.744H-86.5427C-86.5214 44.224 -86.3294 44.5867 -85.9667 44.832C-85.5934 45.0667 -85.1294 45.184 -84.5747 45.184C-84.0201 45.184 -83.5614 45.0667 -83.1987 44.832C-82.8361 44.5973 -82.6547 44.32 -82.6547 44C-82.6547 43.6693 -82.7614 43.4187 -82.9747 43.248C-83.1881 43.0773 -83.5347 42.928 -84.0148 42.8L-85.5027 42.304C-86.8361 41.9093 -87.5027 41.216 -87.5027 40.224ZM-74.6809 45.776C-75.5982 46.2027 -76.4355 46.2933 -77.1929 46.048C-77.7369 45.8773 -78.1209 45.52 -78.3449 44.976C-78.4622 44.7093 -78.5209 44.3893 -78.5209 44.016V39.312H-79.7529V38.352H-78.5209V36.224H-77.2729V38.352H-74.8729V39.312H-77.2729V44C-77.2729 44.7787 -76.9102 45.168 -76.1849 45.168C-75.7902 45.168 -75.3475 45.072 -74.8569 44.88L-74.6809 45.776ZM-67.9292 41.04C-67.9292 40.3467 -68.0732 39.8507 -68.3612 39.552C-68.6492 39.2533 -69.0706 39.104 -69.6252 39.104C-70.1692 39.104 -70.6119 39.216 -70.9532 39.44C-71.2839 39.6533 -71.4492 39.9947 -71.4492 40.464H-72.8412C-72.8412 39.2907 -72.2119 38.5653 -70.9532 38.288C-70.5692 38.2027 -70.1532 38.16 -69.7052 38.16C-68.7559 38.16 -68.0146 38.4 -67.4812 38.88C-66.9479 39.36 -66.6812 40.0907 -66.6812 41.072V46H-67.7692L-67.8972 44.72C-68.3666 45.6907 -69.2146 46.176 -70.4412 46.176C-71.2626 46.176 -71.9239 45.9467 -72.4252 45.488C-72.9159 45.0293 -73.1612 44.4587 -73.1612 43.776C-73.1612 43.0933 -72.8892 42.56 -72.3452 42.176C-71.7906 41.792 -71.1026 41.6 -70.2812 41.6C-69.4599 41.6 -68.6759 41.7387 -67.9292 42.016V41.04ZM-67.9292 42.816C-68.6866 42.6027 -69.3479 42.496 -69.9132 42.496C-70.4786 42.496 -70.9372 42.5973 -71.2892 42.8C-71.6412 43.0027 -71.8172 43.3227 -71.8172 43.76C-71.8172 44.72 -71.2732 45.2 -70.1852 45.2C-69.5666 45.2 -69.0386 44.9813 -68.6012 44.544C-68.1532 44.096 -67.9292 43.52 -67.9292 42.816ZM-61.4241 41.952L-62.4481 42.784V46H-63.7121V35.104H-62.4481V41.44L-58.7521 38.352H-56.9921L-60.5121 41.216L-56.8161 46H-58.3681L-61.4241 41.952ZM-52.0409 45.152C-50.9849 45.152 -50.3822 44.688 -50.2329 43.76H-48.9369C-49.0542 44.528 -49.3955 45.1253 -49.9609 45.552C-50.5155 45.968 -51.2089 46.176 -52.0409 46.176C-53.0649 46.176 -53.8969 45.8133 -54.5369 45.088C-55.1769 44.352 -55.4969 43.376 -55.4969 42.16C-55.4969 40.944 -55.1769 39.9733 -54.5369 39.248C-53.8862 38.5227 -53.0275 38.16 -51.9609 38.16C-50.8835 38.16 -50.0835 38.576 -49.5609 39.408C-49.0275 40.24 -48.8409 41.2533 -49.0009 42.448H-54.2329C-54.2329 43.2373 -54.0409 43.888 -53.6569 44.4C-53.2729 44.9013 -52.7342 45.152 -52.0409 45.152ZM-51.1129 39.36C-51.3582 39.232 -51.6569 39.168 -52.0089 39.168C-52.6595 39.168 -53.1769 39.392 -53.5609 39.84C-53.9342 40.2773 -54.1529 40.8267 -54.2169 41.488H-50.1369C-50.1369 40.4213 -50.4622 39.712 -51.1129 39.36ZM-45.1825 39.76C-44.6705 38.6933 -43.8225 38.16 -42.6385 38.16C-41.7318 38.16 -41.0278 38.4587 -40.5265 39.056C-40.0145 39.6533 -39.7585 40.4693 -39.7585 41.504V46H-41.0065V41.504C-41.0065 40.768 -41.1825 40.2133 -41.5345 39.84C-41.8758 39.4667 -42.3718 39.28 -43.0225 39.28C-43.6732 39.28 -44.1958 39.5573 -44.5905 40.112C-44.9852 40.656 -45.1825 41.4133 -45.1825 42.384V46H-46.4465V35.104H-45.1825V39.76ZM-34.0382 38.16C-32.9716 38.16 -32.1129 38.5067 -31.4622 39.2C-30.8009 39.8933 -30.4702 40.8853 -30.4702 42.176C-30.4702 43.456 -30.8009 44.4427 -31.4622 45.136C-32.1129 45.8293 -32.9716 46.176 -34.0382 46.176C-35.1049 46.176 -35.9689 45.8293 -36.6302 45.136C-37.2809 44.4427 -37.6062 43.456 -37.6062 42.176C-37.6062 40.8853 -37.2809 39.8933 -36.6302 39.2C-35.9689 38.5067 -35.1049 38.16 -34.0382 38.16ZM-31.7502 42.176C-31.7502 41.2587 -31.9422 40.544 -32.3262 40.032C-32.7102 39.5093 -33.2756 39.248 -34.0222 39.248C-34.7582 39.248 -35.3236 39.5093 -35.7182 40.032C-36.1129 40.544 -36.3102 41.2587 -36.3102 42.176C-36.3102 43.0827 -36.1236 43.7973 -35.7502 44.32C-35.3769 44.832 -34.8222 45.088 -34.0862 45.088C-33.3396 45.088 -32.7636 44.832 -32.3582 44.32C-31.9529 43.7973 -31.7502 43.0827 -31.7502 42.176ZM-28.0559 35.104H-26.7919V46H-28.0559V35.104ZM-18.5635 39.488V35.104H-17.3155V46H-18.3395L-18.4995 44.72C-18.7448 45.2 -19.0702 45.5627 -19.4755 45.808C-19.8808 46.0533 -20.3235 46.176 -20.8035 46.176C-21.7742 46.176 -22.5902 45.8027 -23.2515 45.056C-23.9022 44.3093 -24.2275 43.3387 -24.2275 42.144C-24.2275 40.9387 -23.9075 39.9733 -23.2675 39.248C-22.6168 38.5227 -21.8008 38.16 -20.8195 38.16C-19.8275 38.16 -19.0755 38.6027 -18.5635 39.488ZM-20.7395 39.28C-21.3582 39.28 -21.8808 39.5413 -22.3075 40.064C-22.7235 40.5867 -22.9315 41.2853 -22.9315 42.16C-22.9315 43.0347 -22.7182 43.7387 -22.2915 44.272C-21.8648 44.7947 -21.3528 45.056 -20.7555 45.056C-20.1582 45.056 -19.6515 44.8587 -19.2355 44.464C-18.8088 44.0587 -18.5848 43.52 -18.5635 42.848V41.6C-18.5635 40.8853 -18.7715 40.32 -19.1875 39.904C-19.6035 39.488 -20.1208 39.28 -20.7395 39.28ZM-11.4315 45.152C-10.3755 45.152 -9.77283 44.688 -9.6235 43.76H-8.3275C-8.44483 44.528 -8.78617 45.1253 -9.3515 45.552C-9.90617 45.968 -10.5995 46.176 -11.4315 46.176C-12.4555 46.176 -13.2875 45.8133 -13.9275 45.088C-14.5675 44.352 -14.8875 43.376 -14.8875 42.16C-14.8875 40.944 -14.5675 39.9733 -13.9275 39.248C-13.2768 38.5227 -12.4182 38.16 -11.3515 38.16C-10.2742 38.16 -9.47417 38.576 -8.9515 39.408C-8.41817 40.24 -8.2315 41.2533 -8.3915 42.448H-13.6235C-13.6235 43.2373 -13.4315 43.888 -13.0475 44.4C-12.6635 44.9013 -12.1248 45.152 -11.4315 45.152ZM-10.5035 39.36C-10.7488 39.232 -11.0475 39.168 -11.3995 39.168C-12.0502 39.168 -12.5675 39.392 -12.9515 39.84C-13.3248 40.2773 -13.5435 40.8267 -13.6075 41.488H-9.5275C-9.5275 40.4213 -9.85283 39.712 -10.5035 39.36ZM-2.71712 39.424C-3.92246 39.424 -4.54646 40.3733 -4.58912 42.272V46H-5.85312V38.336H-4.58912V39.808C-4.20512 38.7413 -3.52779 38.208 -2.55712 38.208C-2.24779 38.208 -1.95446 38.256 -1.67712 38.352L-1.74112 39.584C-2.06112 39.4773 -2.38646 39.424 -2.71712 39.424ZM-0.143375 40.224C-0.143375 39.5947 0.123292 39.0933 0.656625 38.72C1.20063 38.3467 1.93129 38.16 2.84863 38.16C3.76596 38.16 4.48063 38.352 4.99263 38.736C5.51529 39.12 5.78729 39.6053 5.80863 40.192H4.57663C4.48063 39.4987 3.89396 39.152 2.81663 39.152C2.29396 39.152 1.88863 39.2693 1.60063 39.504C1.32329 39.7387 1.18463 39.9947 1.18463 40.272C1.18463 40.5387 1.29129 40.768 1.50463 40.96C1.71796 41.1413 2.05929 41.3013 2.52863 41.44L4.06463 41.952C4.71529 42.1547 5.21129 42.416 5.55263 42.736C5.90463 43.0453 6.08063 43.4773 6.08063 44.032C6.08063 44.576 5.79796 45.072 5.23263 45.52C4.66729 45.9573 3.87796 46.176 2.86462 46.176C1.85129 46.176 1.06196 45.952 0.496625 45.504C-0.0687083 45.0453 -0.367375 44.4587 -0.399375 43.744H0.816625C0.837958 44.224 1.02996 44.5867 1.39263 44.832C1.76596 45.0667 2.22996 45.184 2.78463 45.184C3.33929 45.184 3.79796 45.0667 4.16063 44.832C4.52329 44.5973 4.70463 44.32 4.70463 44C4.70463 43.6693 4.59796 43.4187 4.38463 43.248C4.17129 43.0773 3.82463 42.928 3.34462 42.8L1.85663 42.304C0.523292 41.9093 -0.143375 41.216 -0.143375 40.224ZM15.611 39.424C14.4057 39.424 13.7817 40.3733 13.739 42.272V46H12.475V38.336H13.739V39.808C14.123 38.7413 14.8003 38.208 15.771 38.208C16.0803 38.208 16.3737 38.256 16.651 38.352L16.587 39.584C16.267 39.4773 15.9417 39.424 15.611 39.424ZM21.2248 45.152C22.2808 45.152 22.8834 44.688 23.0328 43.76H24.3288C24.2114 44.528 23.8701 45.1253 23.3048 45.552C22.7501 45.968 22.0568 46.176 21.2248 46.176C20.2008 46.176 19.3688 45.8133 18.7288 45.088C18.0888 44.352 17.7688 43.376 17.7688 42.16C17.7688 40.944 18.0888 39.9733 18.7288 39.248C19.3794 38.5227 20.2381 38.16 21.3048 38.16C22.3821 38.16 23.1821 38.576 23.7048 39.408C24.2381 40.24 24.4248 41.2533 24.2648 42.448H19.0328C19.0328 43.2373 19.2248 43.888 19.6088 44.4C19.9928 44.9013 20.5314 45.152 21.2248 45.152ZM22.1528 39.36C21.9074 39.232 21.6088 39.168 21.2568 39.168C20.6061 39.168 20.0888 39.392 19.7048 39.84C19.3314 40.2773 19.1128 40.8267 19.0488 41.488H23.1288C23.1288 40.4213 22.8034 39.712 22.1528 39.36ZM26.8191 35.104H28.0831V46H26.8191V35.104ZM36.0395 41.04C36.0395 40.3467 35.8955 39.8507 35.6075 39.552C35.3195 39.2533 34.8982 39.104 34.3435 39.104C33.7995 39.104 33.3568 39.216 33.0155 39.44C32.6848 39.6533 32.5195 39.9947 32.5195 40.464H31.1275C31.1275 39.2907 31.7568 38.5653 33.0155 38.288C33.3995 38.2027 33.8155 38.16 34.2635 38.16C35.2128 38.16 35.9542 38.4 36.4875 38.88C37.0208 39.36 37.2875 40.0907 37.2875 41.072V46H36.1995L36.0715 44.72C35.6022 45.6907 34.7542 46.176 33.5275 46.176C32.7062 46.176 32.0448 45.9467 31.5435 45.488C31.0528 45.0293 30.8075 44.4587 30.8075 43.776C30.8075 43.0933 31.0795 42.56 31.6235 42.176C32.1782 41.792 32.8662 41.6 33.6875 41.6C34.5088 41.6 35.2928 41.7387 36.0395 42.016V41.04ZM36.0395 42.816C35.2822 42.6027 34.6208 42.496 34.0555 42.496C33.4902 42.496 33.0315 42.5973 32.6795 42.8C32.3275 43.0027 32.1515 43.3227 32.1515 43.76C32.1515 44.72 32.6955 45.2 33.7835 45.2C34.4022 45.2 34.9302 44.9813 35.3675 44.544C35.8155 44.096 36.0395 43.52 36.0395 42.816ZM44.2566 45.776C43.3393 46.2027 42.502 46.2933 41.7446 46.048C41.2006 45.8773 40.8166 45.52 40.5926 44.976C40.4753 44.7093 40.4166 44.3893 40.4166 44.016V39.312H39.1846V38.352H40.4166V36.224H41.6646V38.352H44.0646V39.312H41.6646V44C41.6646 44.7787 42.0273 45.168 42.7526 45.168C43.1473 45.168 43.59 45.072 44.0806 44.88L44.2566 45.776ZM48.9123 45.152C49.9683 45.152 50.5709 44.688 50.7203 43.76H52.0163C51.8989 44.528 51.5576 45.1253 50.9923 45.552C50.4376 45.968 49.7443 46.176 48.9123 46.176C47.8883 46.176 47.0563 45.8133 46.4163 45.088C45.7763 44.352 45.4563 43.376 45.4563 42.16C45.4563 40.944 45.7763 39.9733 46.4163 39.248C47.0669 38.5227 47.9256 38.16 48.9923 38.16C50.0696 38.16 50.8696 38.576 51.3923 39.408C51.9256 40.24 52.1123 41.2533 51.9523 42.448H46.7203C46.7203 43.2373 46.9123 43.888 47.2963 44.4C47.6803 44.9013 48.2189 45.152 48.9123 45.152ZM49.8403 39.36C49.5949 39.232 49.2963 39.168 48.9443 39.168C48.2936 39.168 47.7763 39.392 47.3923 39.84C47.0189 40.2773 46.8003 40.8267 46.7363 41.488H50.8163C50.8163 40.4213 50.4909 39.712 49.8403 39.36ZM59.5146 39.488V35.104H60.7626V46H59.7386L59.5786 44.72C59.3333 45.2 59.008 45.5627 58.6026 45.808C58.1973 46.0533 57.7546 46.176 57.2746 46.176C56.304 46.176 55.488 45.8027 54.8266 45.056C54.176 44.3093 53.8506 43.3387 53.8506 42.144C53.8506 40.9387 54.1706 39.9733 54.8106 39.248C55.4613 38.5227 56.2773 38.16 57.2586 38.16C58.2506 38.16 59.0026 38.6027 59.5146 39.488ZM57.3386 39.28C56.72 39.28 56.1973 39.5413 55.7706 40.064C55.3546 40.5867 55.1466 41.2853 55.1466 42.16C55.1466 43.0347 55.36 43.7387 55.7866 44.272C56.2133 44.7947 56.7253 45.056 57.3226 45.056C57.92 45.056 58.4266 44.8587 58.8426 44.464C59.2693 44.0587 59.4933 43.52 59.5146 42.848V41.6C59.5146 40.8853 59.3066 40.32 58.8906 39.904C58.4746 39.488 57.9573 39.28 57.3386 39.28ZM71.8191 45.776C70.9018 46.2027 70.0645 46.2933 69.3071 46.048C68.7631 45.8773 68.3791 45.52 68.1551 44.976C68.0378 44.7093 67.9791 44.3893 67.9791 44.016V39.312H66.7471V38.352H67.9791V36.224H69.2271V38.352H71.6271V39.312H69.2271V44C69.2271 44.7787 69.5898 45.168 70.3151 45.168C70.7098 45.168 71.1525 45.072 71.6431 44.88L71.8191 45.776ZM76.5868 38.16C77.6534 38.16 78.5121 38.5067 79.1628 39.2C79.8241 39.8933 80.1548 40.8853 80.1548 42.176C80.1548 43.456 79.8241 44.4427 79.1628 45.136C78.5121 45.8293 77.6534 46.176 76.5868 46.176C75.5201 46.176 74.6561 45.8293 73.9948 45.136C73.3441 44.4427 73.0188 43.456 73.0188 42.176C73.0188 40.8853 73.3441 39.8933 73.9948 39.2C74.6561 38.5067 75.5201 38.16 76.5868 38.16ZM78.8748 42.176C78.8748 41.2587 78.6828 40.544 78.2988 40.032C77.9148 39.5093 77.3494 39.248 76.6028 39.248C75.8668 39.248 75.3014 39.5093 74.9068 40.032C74.5121 40.544 74.3148 41.2587 74.3148 42.176C74.3148 43.0827 74.5014 43.7973 74.8748 44.32C75.2481 44.832 75.8028 45.088 76.5388 45.088C77.2854 45.088 77.8614 44.832 78.2668 44.32C78.6721 43.7973 78.8748 43.0827 78.8748 42.176ZM-285.384 63.776C-286.301 64.2027 -287.139 64.2933 -287.896 64.048C-288.44 63.8773 -288.824 63.52 -289.048 62.976C-289.165 62.7093 -289.224 62.3893 -289.224 62.016V57.312H-290.456V56.352H-289.224V54.224H-287.976V56.352H-285.576V57.312H-287.976V62C-287.976 62.7787 -287.613 63.168 -286.888 63.168C-286.493 63.168 -286.051 63.072 -285.56 62.88L-285.384 63.776ZM-282.104 57.76C-281.592 56.6933 -280.744 56.16 -279.56 56.16C-278.654 56.16 -277.95 56.4587 -277.448 57.056C-276.936 57.6533 -276.68 58.4693 -276.68 59.504V64H-277.928V59.504C-277.928 58.768 -278.104 58.2133 -278.456 57.84C-278.798 57.4667 -279.294 57.28 -279.944 57.28C-280.595 57.28 -281.118 57.5573 -281.512 58.112C-281.907 58.656 -282.104 59.4133 -282.104 60.384V64H-283.368V53.104H-282.104V57.76ZM-271.072 63.152C-270.016 63.152 -269.413 62.688 -269.264 61.76H-267.968C-268.085 62.528 -268.427 63.1253 -268.992 63.552C-269.547 63.968 -270.24 64.176 -271.072 64.176C-272.096 64.176 -272.928 63.8133 -273.568 63.088C-274.208 62.352 -274.528 61.376 -274.528 60.16C-274.528 58.944 -274.208 57.9733 -273.568 57.248C-272.917 56.5227 -272.059 56.16 -270.992 56.16C-269.915 56.16 -269.115 56.576 -268.592 57.408C-268.059 58.24 -267.872 59.2533 -268.032 60.448H-273.264C-273.264 61.2373 -273.072 61.888 -272.688 62.4C-272.304 62.9013 -271.765 63.152 -271.072 63.152ZM-270.144 57.36C-270.389 57.232 -270.688 57.168 -271.04 57.168C-271.691 57.168 -272.208 57.392 -272.592 57.84C-272.965 58.2773 -273.184 58.8267 -273.248 59.488H-269.168C-269.168 58.4213 -269.493 57.712 -270.144 57.36ZM-258.545 57.424C-259.751 57.424 -260.375 58.3733 -260.417 60.272V64H-261.681V56.336H-260.417V57.808C-260.033 56.7413 -259.356 56.208 -258.385 56.208C-258.076 56.208 -257.783 56.256 -257.505 56.352L-257.569 57.584C-257.889 57.4773 -258.215 57.424 -258.545 57.424ZM-252.931 63.152C-251.875 63.152 -251.273 62.688 -251.123 61.76H-249.827C-249.945 62.528 -250.286 63.1253 -250.851 63.552C-251.406 63.968 -252.099 64.176 -252.931 64.176C-253.955 64.176 -254.787 63.8133 -255.427 63.088C-256.067 62.352 -256.387 61.376 -256.387 60.16C-256.387 58.944 -256.067 57.9733 -255.427 57.248C-254.777 56.5227 -253.918 56.16 -252.851 56.16C-251.774 56.16 -250.974 56.576 -250.451 57.408C-249.918 58.24 -249.731 59.2533 -249.891 60.448H-255.123C-255.123 61.2373 -254.931 61.888 -254.547 62.4C-254.163 62.9013 -253.625 63.152 -252.931 63.152ZM-252.003 57.36C-252.249 57.232 -252.547 57.168 -252.899 57.168C-253.55 57.168 -254.067 57.392 -254.451 57.84C-254.825 58.2773 -255.043 58.8267 -255.107 59.488H-251.027C-251.027 58.4213 -251.353 57.712 -252.003 57.36ZM-247.241 56.352L-244.937 62.672L-242.617 56.352H-241.193L-244.233 64H-245.625L-248.665 56.352H-247.241ZM-239.21 56.336H-237.946V64H-239.21V56.336ZM-238.586 54.544C-238.842 54.544 -239.045 54.4747 -239.194 54.336C-239.333 54.1867 -239.402 53.9947 -239.402 53.76C-239.402 53.5147 -239.333 53.3227 -239.194 53.184C-239.045 53.0347 -238.842 52.96 -238.586 52.96C-238.33 52.96 -238.128 53.0347 -237.978 53.184C-237.818 53.3227 -237.738 53.5147 -237.738 53.76C-237.738 53.9947 -237.818 54.1867 -237.978 54.336C-238.128 54.4747 -238.33 54.544 -238.586 54.544ZM-231.869 63.152C-230.813 63.152 -230.21 62.688 -230.061 61.76H-228.765C-228.882 62.528 -229.224 63.1253 -229.789 63.552C-230.344 63.968 -231.037 64.176 -231.869 64.176C-232.893 64.176 -233.725 63.8133 -234.365 63.088C-235.005 62.352 -235.325 61.376 -235.325 60.16C-235.325 58.944 -235.005 57.9733 -234.365 57.248C-233.714 56.5227 -232.856 56.16 -231.789 56.16C-230.712 56.16 -229.912 56.576 -229.389 57.408C-228.856 58.24 -228.669 59.2533 -228.829 60.448H-234.061C-234.061 61.2373 -233.869 61.888 -233.485 62.4C-233.101 62.9013 -232.562 63.152 -231.869 63.152ZM-230.941 57.36C-231.186 57.232 -231.485 57.168 -231.837 57.168C-232.488 57.168 -233.005 57.392 -233.389 57.84C-233.762 58.2773 -233.981 58.8267 -234.045 59.488H-229.965C-229.965 58.4213 -230.29 57.712 -230.941 57.36ZM-226.291 56.352L-224.435 62.448L-222.611 56.72H-221.555L-219.747 62.512L-217.875 56.352H-216.627L-219.123 64H-220.355L-222.115 58.64L-223.843 64H-225.059L-227.603 56.352H-226.291ZM-214.617 64.08C-214.862 64.0587 -215.065 63.9787 -215.225 63.84C-215.385 63.7013 -215.465 63.5147 -215.465 63.28C-215.465 63.0453 -215.385 62.848 -215.225 62.688C-215.054 62.528 -214.82 62.448 -214.521 62.448C-214.212 62.448 -213.956 62.5707 -213.753 62.816C-213.55 63.0507 -213.449 63.3493 -213.449 63.712C-213.449 64.0747 -213.566 64.4427 -213.801 64.816C-214.036 65.2 -214.393 65.5093 -214.873 65.744L-215.817 65.28C-215.156 64.96 -214.756 64.56 -214.617 64.08ZM-203.797 54.176C-204.149 54.0373 -204.426 53.968 -204.629 53.968C-205.002 53.968 -205.296 54.0587 -205.509 54.24C-205.722 54.4213 -205.829 54.7413 -205.829 55.2V56.352H-204.245V57.216H-205.829V64H-207.077V57.216H-208.341V56.352H-207.077V55.184C-207.077 54.4267 -206.869 53.872 -206.453 53.52C-206.037 53.1573 -205.557 52.976 -205.013 52.976C-204.469 52.976 -203.989 53.0453 -203.573 53.184L-203.797 54.176ZM-199.273 56.16C-198.206 56.16 -197.347 56.5067 -196.697 57.2C-196.035 57.8933 -195.705 58.8853 -195.705 60.176C-195.705 61.456 -196.035 62.4427 -196.697 63.136C-197.347 63.8293 -198.206 64.176 -199.273 64.176C-200.339 64.176 -201.203 63.8293 -201.865 63.136C-202.515 62.4427 -202.841 61.456 -202.841 60.176C-202.841 58.8853 -202.515 57.8933 -201.865 57.2C-201.203 56.5067 -200.339 56.16 -199.273 56.16ZM-196.985 60.176C-196.985 59.2587 -197.177 58.544 -197.561 58.032C-197.945 57.5093 -198.51 57.248 -199.257 57.248C-199.993 57.248 -200.558 57.5093 -200.953 58.032C-201.347 58.544 -201.545 59.2587 -201.545 60.176C-201.545 61.0827 -201.358 61.7973 -200.985 62.32C-200.611 62.832 -200.057 63.088 -199.321 63.088C-198.574 63.088 -197.998 62.832 -197.593 62.32C-197.187 61.7973 -196.985 61.0827 -196.985 60.176ZM-190.17 57.424C-191.376 57.424 -192 58.3733 -192.042 60.272V64H-193.306V56.336H-192.042V57.808C-191.658 56.7413 -190.981 56.208 -190.01 56.208C-189.701 56.208 -189.408 56.256 -189.13 56.352L-189.194 57.584C-189.514 57.4773 -189.84 57.424 -190.17 57.424ZM-185.98 57.824C-185.479 56.7147 -184.62 56.16 -183.404 56.16C-182.743 56.16 -182.188 56.3253 -181.74 56.656C-181.292 56.976 -180.967 57.424 -180.764 58C-180.284 56.7733 -179.394 56.16 -178.092 56.16C-177.175 56.16 -176.466 56.4587 -175.964 57.056C-175.463 57.6533 -175.212 58.4693 -175.212 59.504V64H-176.46V59.504C-176.46 58.768 -176.636 58.2133 -176.988 57.84C-177.33 57.4667 -177.826 57.28 -178.476 57.28C-179.127 57.28 -179.634 57.5467 -179.997 58.08C-180.348 58.6133 -180.524 59.3493 -180.524 60.288V64H-181.772V59.504C-181.772 58.768 -181.948 58.2133 -182.3 57.84C-182.642 57.4667 -183.132 57.28 -183.772 57.28C-184.412 57.28 -184.93 57.5413 -185.324 58.064C-185.719 58.5867 -185.927 59.312 -185.948 60.24V64H-187.212V56.352H-186.124L-185.98 57.824ZM-167.043 62.48C-167.566 63.5893 -168.414 64.144 -169.587 64.144C-170.451 64.144 -171.15 63.904 -171.683 63.424C-172.206 62.944 -172.467 62.2027 -172.467 61.2V56.336H-171.203V61.104C-171.203 62.3947 -170.606 63.04 -169.411 63.04C-168.718 63.04 -168.158 62.7733 -167.731 62.24C-167.294 61.7067 -167.065 61.024 -167.043 60.192V56.336H-165.779V64H-167.043V62.48ZM-162.54 53.104H-161.276V64H-162.54V53.104ZM-153.32 59.04C-153.32 58.3467 -153.464 57.8507 -153.752 57.552C-154.04 57.2533 -154.461 57.104 -155.016 57.104C-155.56 57.104 -156.003 57.216 -156.344 57.44C-156.675 57.6533 -156.84 57.9947 -156.84 58.464H-158.232C-158.232 57.2907 -157.603 56.5653 -156.344 56.288C-155.96 56.2027 -155.544 56.16 -155.096 56.16C-154.147 56.16 -153.405 56.4 -152.872 56.88C-152.339 57.36 -152.072 58.0907 -152.072 59.072V64H-153.16L-153.288 62.72C-153.757 63.6907 -154.605 64.176 -155.832 64.176C-156.653 64.176 -157.315 63.9467 -157.816 63.488C-158.307 63.0293 -158.552 62.4587 -158.552 61.776C-158.552 61.0933 -158.28 60.56 -157.736 60.176C-157.181 59.792 -156.493 59.6 -155.672 59.6C-154.851 59.6 -154.067 59.7387 -153.32 60.016V59.04ZM-153.32 60.816C-154.077 60.6027 -154.739 60.496 -155.304 60.496C-155.869 60.496 -156.328 60.5973 -156.68 60.8C-157.032 61.0027 -157.208 61.3227 -157.208 61.76C-157.208 62.72 -156.664 63.2 -155.576 63.2C-154.957 63.2 -154.429 62.9813 -153.992 62.544C-153.544 62.096 -153.32 61.52 -153.32 60.816ZM-145.103 63.776C-146.02 64.2027 -146.857 64.2933 -147.615 64.048C-148.159 63.8773 -148.543 63.52 -148.767 62.976C-148.884 62.7093 -148.943 62.3893 -148.943 62.016V57.312H-150.175V56.352H-148.943V54.224H-147.695V56.352H-145.295V57.312H-147.695V62C-147.695 62.7787 -147.332 63.168 -146.607 63.168C-146.212 63.168 -145.769 63.072 -145.279 62.88L-145.103 63.776ZM-143.007 56.336H-141.743V64H-143.007V56.336ZM-142.383 54.544C-142.639 54.544 -142.842 54.4747 -142.991 54.336C-143.13 54.1867 -143.199 53.9947 -143.199 53.76C-143.199 53.5147 -143.13 53.3227 -142.991 53.184C-142.842 53.0347 -142.639 52.96 -142.383 52.96C-142.127 52.96 -141.924 53.0347 -141.775 53.184C-141.615 53.3227 -141.535 53.5147 -141.535 53.76C-141.535 53.9947 -141.615 54.1867 -141.775 54.336C-141.924 54.4747 -142.127 54.544 -142.383 54.544ZM-135.554 56.16C-134.487 56.16 -133.629 56.5067 -132.978 57.2C-132.317 57.8933 -131.986 58.8853 -131.986 60.176C-131.986 61.456 -132.317 62.4427 -132.978 63.136C-133.629 63.8293 -134.487 64.176 -135.554 64.176C-136.621 64.176 -137.485 63.8293 -138.146 63.136C-138.797 62.4427 -139.122 61.456 -139.122 60.176C-139.122 58.8853 -138.797 57.8933 -138.146 57.2C-137.485 56.5067 -136.621 56.16 -135.554 56.16ZM-133.266 60.176C-133.266 59.2587 -133.458 58.544 -133.842 58.032C-134.226 57.5093 -134.791 57.248 -135.538 57.248C-136.274 57.248 -136.839 57.5093 -137.234 58.032C-137.629 58.544 -137.826 59.2587 -137.826 60.176C-137.826 61.0827 -137.639 61.7973 -137.266 62.32C-136.893 62.832 -136.338 63.088 -135.602 63.088C-134.855 63.088 -134.279 62.832 -133.874 62.32C-133.469 61.7973 -133.266 61.0827 -133.266 60.176ZM-128.355 57.824C-127.854 56.7147 -126.995 56.16 -125.779 56.16C-124.873 56.16 -124.169 56.4587 -123.667 57.056C-123.155 57.6533 -122.899 58.4693 -122.899 59.504V64H-124.147V59.504C-124.147 58.768 -124.323 58.2133 -124.675 57.84C-125.017 57.4667 -125.507 57.28 -126.147 57.28C-126.787 57.28 -127.305 57.5413 -127.699 58.064C-128.094 58.5867 -128.302 59.312 -128.323 60.24V64H-129.587V56.352H-128.499L-128.355 57.824ZM-111.382 59.04C-111.382 58.3467 -111.526 57.8507 -111.814 57.552C-112.102 57.2533 -112.524 57.104 -113.078 57.104C-113.622 57.104 -114.065 57.216 -114.406 57.44C-114.737 57.6533 -114.902 57.9947 -114.902 58.464H-116.294C-116.294 57.2907 -115.665 56.5653 -114.406 56.288C-114.022 56.2027 -113.606 56.16 -113.158 56.16C-112.209 56.16 -111.468 56.4 -110.934 56.88C-110.401 57.36 -110.134 58.0907 -110.134 59.072V64H-111.222L-111.35 62.72C-111.82 63.6907 -112.668 64.176 -113.894 64.176C-114.716 64.176 -115.377 63.9467 -115.878 63.488C-116.369 63.0293 -116.614 62.4587 -116.614 61.776C-116.614 61.0933 -116.342 60.56 -115.798 60.176C-115.244 59.792 -114.556 59.6 -113.734 59.6C-112.913 59.6 -112.129 59.7387 -111.382 60.016V59.04ZM-111.382 60.816C-112.14 60.6027 -112.801 60.496 -113.366 60.496C-113.932 60.496 -114.39 60.5973 -114.742 60.8C-115.094 61.0027 -115.27 61.3227 -115.27 61.76C-115.27 62.72 -114.726 63.2 -113.638 63.2C-113.02 63.2 -112.492 62.9813 -112.054 62.544C-111.606 62.096 -111.382 61.52 -111.382 60.816ZM-105.949 57.824C-105.448 56.7147 -104.589 56.16 -103.373 56.16C-102.467 56.16 -101.763 56.4587 -101.261 57.056C-100.749 57.6533 -100.493 58.4693 -100.493 59.504V64H-101.741V59.504C-101.741 58.768 -101.917 58.2133 -102.269 57.84C-102.611 57.4667 -103.101 57.28 -103.741 57.28C-104.381 57.28 -104.899 57.5413 -105.293 58.064C-105.688 58.5867 -105.896 59.312 -105.917 60.24V64H-107.181V56.352H-106.093L-105.949 57.824ZM-92.5166 57.488V53.104H-91.2686V64H-92.2926L-92.4526 62.72C-92.698 63.2 -93.0233 63.5627 -93.4286 63.808C-93.834 64.0533 -94.2766 64.176 -94.7566 64.176C-95.7273 64.176 -96.5433 63.8027 -97.2046 63.056C-97.8553 62.3093 -98.1806 61.3387 -98.1806 60.144C-98.1806 58.9387 -97.8606 57.9733 -97.2206 57.248C-96.57 56.5227 -95.754 56.16 -94.7726 56.16C-93.7806 56.16 -93.0286 56.6027 -92.5166 57.488ZM-94.6926 57.28C-95.3113 57.28 -95.834 57.5413 -96.2606 58.064C-96.6766 58.5867 -96.8846 59.2853 -96.8846 60.16C-96.8846 61.0347 -96.6713 61.7387 -96.2446 62.272C-95.818 62.7947 -95.306 63.056 -94.7086 63.056C-94.1113 63.056 -93.6046 62.8587 -93.1886 62.464C-92.762 62.0587 -92.538 61.52 -92.5166 60.848V59.6C-92.5166 58.8853 -92.7246 58.32 -93.1406 57.904C-93.5566 57.488 -94.074 57.28 -94.6926 57.28ZM-88.0246 53.104H-86.7606V64H-88.0246V53.104ZM-80.9002 63.152C-79.8442 63.152 -79.2416 62.688 -79.0922 61.76H-77.7962C-77.9136 62.528 -78.2549 63.1253 -78.8202 63.552C-79.3749 63.968 -80.0682 64.176 -80.9002 64.176C-81.9242 64.176 -82.7562 63.8133 -83.3962 63.088C-84.0362 62.352 -84.3562 61.376 -84.3562 60.16C-84.3562 58.944 -84.0362 57.9733 -83.3962 57.248C-82.7456 56.5227 -81.8869 56.16 -80.8202 56.16C-79.7429 56.16 -78.9429 56.576 -78.4202 57.408C-77.8869 58.24 -77.7002 59.2533 -77.8602 60.448H-83.0922C-83.0922 61.2373 -82.9002 61.888 -82.5162 62.4C-82.1322 62.9013 -81.5936 63.152 -80.9002 63.152ZM-79.9722 57.36C-80.2176 57.232 -80.5162 57.168 -80.8682 57.168C-81.5189 57.168 -82.0362 57.392 -82.4202 57.84C-82.7936 58.2773 -83.0122 58.8267 -83.0762 59.488H-78.9962C-78.9962 58.4213 -79.3216 57.712 -79.9722 57.36ZM-74.9859 63.76C-75.6259 63.4507 -75.9459 62.976 -75.9459 62.336C-75.9459 62.0053 -75.8232 61.7173 -75.5779 61.472C-75.3219 61.216 -75.0072 61.0453 -74.6339 60.96C-75.2099 60.448 -75.4979 59.776 -75.4979 58.944C-75.4979 58.112 -75.2045 57.44 -74.6179 56.928C-74.0205 56.416 -73.3165 56.16 -72.5059 56.16C-71.6952 56.16 -71.0072 56.352 -70.4419 56.736C-70.3672 56.1707 -70.1432 55.7173 -69.7699 55.376C-69.3859 55.0347 -68.8845 54.864 -68.2659 54.864L-68.3779 56.112C-69.3165 56.112 -69.8072 56.5067 -69.8499 57.296C-69.4765 57.7547 -69.2899 58.304 -69.2899 58.944C-69.2899 59.7653 -69.5885 60.4427 -70.1859 60.976C-70.7725 61.4987 -71.5085 61.76 -72.3939 61.76C-73.0019 61.76 -73.5405 61.6373 -74.0099 61.392C-74.2232 61.4347 -74.4152 61.536 -74.5859 61.696C-74.7565 61.8453 -74.8419 62.0533 -74.8419 62.32C-74.8419 62.8853 -74.3725 63.168 -73.4339 63.168H-70.4579C-69.7432 63.168 -69.1779 63.3227 -68.7619 63.632C-68.3459 63.9307 -68.1379 64.352 -68.1379 64.896C-68.1379 65.7067 -68.5485 66.416 -69.3699 67.024C-70.1805 67.632 -71.2099 67.936 -72.4579 67.936C-73.7059 67.936 -74.6872 67.7013 -75.4019 67.232C-76.1165 66.7733 -76.4739 66.192 -76.4739 65.488C-76.4739 65.0293 -76.3405 64.656 -76.0739 64.368C-75.7965 64.08 -75.4339 63.8773 -74.9859 63.76ZM-75.2259 65.44C-75.2259 65.8453 -75.0072 66.192 -74.5699 66.48C-74.1219 66.7787 -73.4499 66.928 -72.5539 66.928C-71.6472 66.928 -70.8952 66.7307 -70.2979 66.336C-69.6899 65.952 -69.3859 65.4987 -69.3859 64.976C-69.3859 64.7307 -69.4765 64.5173 -69.6579 64.336C-69.8285 64.1653 -70.0952 64.08 -70.4579 64.08H-73.5459C-74.0899 64.1013 -74.5059 64.2293 -74.7939 64.464C-75.0819 64.7093 -75.2259 65.0347 -75.2259 65.44ZM-70.5219 58.944C-70.5219 58.3893 -70.6872 57.9413 -71.0179 57.6C-71.3485 57.248 -71.8072 57.072 -72.3939 57.072C-72.9699 57.072 -73.4232 57.248 -73.7539 57.6C-74.0845 57.9413 -74.2499 58.3893 -74.2499 58.944C-74.2499 59.4987 -74.0845 59.9573 -73.7539 60.32C-73.4125 60.672 -72.9539 60.848 -72.3779 60.848C-71.8019 60.848 -71.3485 60.6667 -71.0179 60.304C-70.6872 59.9413 -70.5219 59.488 -70.5219 58.944ZM-66.179 56.336H-64.915V64H-66.179V56.336ZM-65.555 54.544C-65.811 54.544 -66.0137 54.4747 -66.163 54.336C-66.3017 54.1867 -66.371 53.9947 -66.371 53.76C-66.371 53.5147 -66.3017 53.3227 -66.163 53.184C-66.0137 53.0347 -65.811 52.96 -65.555 52.96C-65.299 52.96 -65.0963 53.0347 -64.947 53.184C-64.787 53.3227 -64.707 53.5147 -64.707 53.76C-64.707 53.9947 -64.787 54.1867 -64.947 54.336C-65.0963 54.4747 -65.299 54.544 -65.555 54.544ZM-61.8777 58.224C-61.8777 57.5947 -61.6111 57.0933 -61.0777 56.72C-60.5337 56.3467 -59.8031 56.16 -58.8857 56.16C-57.9684 56.16 -57.2537 56.352 -56.7417 56.736C-56.2191 57.12 -55.9471 57.6053 -55.9257 58.192H-57.1577C-57.2537 57.4987 -57.8404 57.152 -58.9177 57.152C-59.4404 57.152 -59.8457 57.2693 -60.1337 57.504C-60.4111 57.7387 -60.5497 57.9947 -60.5497 58.272C-60.5497 58.5387 -60.4431 58.768 -60.2297 58.96C-60.0164 59.1413 -59.6751 59.3013 -59.2057 59.44L-57.6697 59.952C-57.0191 60.1547 -56.5231 60.416 -56.1817 60.736C-55.8297 61.0453 -55.6537 61.4773 -55.6537 62.032C-55.6537 62.576 -55.9364 63.072 -56.5017 63.52C-57.0671 63.9573 -57.8564 64.176 -58.8698 64.176C-59.8831 64.176 -60.6724 63.952 -61.2377 63.504C-61.8031 63.0453 -62.1017 62.4587 -62.1337 61.744H-60.9177C-60.8964 62.224 -60.7044 62.5867 -60.3417 62.832C-59.9684 63.0667 -59.5044 63.184 -58.9497 63.184C-58.3951 63.184 -57.9364 63.0667 -57.5737 62.832C-57.2111 62.5973 -57.0297 62.32 -57.0297 62C-57.0297 61.6693 -57.1364 61.4187 -57.3497 61.248C-57.5631 61.0773 -57.9097 60.928 -58.3898 60.8L-59.8777 60.304C-61.2111 59.9093 -61.8777 59.216 -61.8777 58.224ZM-53.0559 53.104H-51.7919V64H-53.0559V53.104ZM-43.8355 59.04C-43.8355 58.3467 -43.9795 57.8507 -44.2675 57.552C-44.5555 57.2533 -44.9768 57.104 -45.5315 57.104C-46.0755 57.104 -46.5182 57.216 -46.8595 57.44C-47.1902 57.6533 -47.3555 57.9947 -47.3555 58.464H-48.7475C-48.7475 57.2907 -48.1182 56.5653 -46.8595 56.288C-46.4755 56.2027 -46.0595 56.16 -45.6115 56.16C-44.6622 56.16 -43.9208 56.4 -43.3875 56.88C-42.8542 57.36 -42.5875 58.0907 -42.5875 59.072V64H-43.6755L-43.8035 62.72C-44.2728 63.6907 -45.1208 64.176 -46.3475 64.176C-47.1688 64.176 -47.8302 63.9467 -48.3315 63.488C-48.8222 63.0293 -49.0675 62.4587 -49.0675 61.776C-49.0675 61.0933 -48.7955 60.56 -48.2515 60.176C-47.6968 59.792 -47.0088 59.6 -46.1875 59.6C-45.3662 59.6 -44.5822 59.7387 -43.8355 60.016V59.04ZM-43.8355 60.816C-44.5928 60.6027 -45.2542 60.496 -45.8195 60.496C-46.3848 60.496 -46.8435 60.5973 -47.1955 60.8C-47.5475 61.0027 -47.7235 61.3227 -47.7235 61.76C-47.7235 62.72 -47.1795 63.2 -46.0915 63.2C-45.4728 63.2 -44.9448 62.9813 -44.5075 62.544C-44.0595 62.096 -43.8355 61.52 -43.8355 60.816ZM-35.6184 63.776C-36.5357 64.2027 -37.373 64.2933 -38.1304 64.048C-38.6744 63.8773 -39.0584 63.52 -39.2824 62.976C-39.3997 62.7093 -39.4584 62.3893 -39.4584 62.016V57.312H-40.6904V56.352H-39.4584V54.224H-38.2104V56.352H-35.8104V57.312H-38.2104V62C-38.2104 62.7787 -37.8477 63.168 -37.1224 63.168C-36.7277 63.168 -36.285 63.072 -35.7944 62.88L-35.6184 63.776ZM-33.5227 56.336H-32.2587V64H-33.5227V56.336ZM-32.8987 54.544C-33.1547 54.544 -33.3574 54.4747 -33.5067 54.336C-33.6454 54.1867 -33.7147 53.9947 -33.7147 53.76C-33.7147 53.5147 -33.6454 53.3227 -33.5067 53.184C-33.3574 53.0347 -33.1547 52.96 -32.8987 52.96C-32.6427 52.96 -32.4401 53.0347 -32.2907 53.184C-32.1307 53.3227 -32.0507 53.5147 -32.0507 53.76C-32.0507 53.9947 -32.1307 54.1867 -32.2907 54.336C-32.4401 54.4747 -32.6427 54.544 -32.8987 54.544ZM-26.0695 56.16C-25.0028 56.16 -24.1442 56.5067 -23.4935 57.2C-22.8322 57.8933 -22.5015 58.8853 -22.5015 60.176C-22.5015 61.456 -22.8322 62.4427 -23.4935 63.136C-24.1442 63.8293 -25.0028 64.176 -26.0695 64.176C-27.1362 64.176 -28.0002 63.8293 -28.6615 63.136C-29.3122 62.4427 -29.6375 61.456 -29.6375 60.176C-29.6375 58.8853 -29.3122 57.8933 -28.6615 57.2C-28.0002 56.5067 -27.1362 56.16 -26.0695 56.16ZM-23.7815 60.176C-23.7815 59.2587 -23.9735 58.544 -24.3575 58.032C-24.7415 57.5093 -25.3068 57.248 -26.0535 57.248C-26.7895 57.248 -27.3548 57.5093 -27.7495 58.032C-28.1442 58.544 -28.3415 59.2587 -28.3415 60.176C-28.3415 61.0827 -28.1548 61.7973 -27.7815 62.32C-27.4082 62.832 -26.8535 63.088 -26.1175 63.088C-25.3708 63.088 -24.7948 62.832 -24.3895 62.32C-23.9842 61.7973 -23.7815 61.0827 -23.7815 60.176ZM-18.8711 57.824C-18.3698 56.7147 -17.5111 56.16 -16.2951 56.16C-15.3885 56.16 -14.6845 56.4587 -14.1831 57.056C-13.6711 57.6533 -13.4151 58.4693 -13.4151 59.504V64H-14.6631V59.504C-14.6631 58.768 -14.8391 58.2133 -15.1911 57.84C-15.5325 57.4667 -16.0231 57.28 -16.6631 57.28C-17.3031 57.28 -17.8205 57.5413 -18.2151 58.064C-18.6098 58.5867 -18.8178 59.312 -18.8391 60.24V64H-20.1031V56.352H-19.0151L-18.8711 57.824ZM-1.898 59.04C-1.898 58.3467 -2.042 57.8507 -2.33 57.552C-2.618 57.2533 -3.03933 57.104 -3.594 57.104C-4.138 57.104 -4.58067 57.216 -4.922 57.44C-5.25267 57.6533 -5.418 57.9947 -5.418 58.464H-6.81C-6.81 57.2907 -6.18067 56.5653 -4.922 56.288C-4.538 56.2027 -4.122 56.16 -3.674 56.16C-2.72467 56.16 -1.98333 56.4 -1.45 56.88C-0.916666 57.36 -0.65 58.0907 -0.65 59.072V64H-1.738L-1.866 62.72C-2.33533 63.6907 -3.18333 64.176 -4.41 64.176C-5.23133 64.176 -5.89267 63.9467 -6.394 63.488C-6.88467 63.0293 -7.13 62.4587 -7.13 61.776C-7.13 61.0933 -6.858 60.56 -6.314 60.176C-5.75933 59.792 -5.07133 59.6 -4.25 59.6C-3.42867 59.6 -2.64467 59.7387 -1.898 60.016V59.04ZM-1.898 60.816C-2.65533 60.6027 -3.31667 60.496 -3.882 60.496C-4.44733 60.496 -4.906 60.5973 -5.258 60.8C-5.61 61.0027 -5.786 61.3227 -5.786 61.76C-5.786 62.72 -5.242 63.2 -4.154 63.2C-3.53533 63.2 -3.00733 62.9813 -2.57 62.544C-2.122 62.096 -1.898 61.52 -1.898 60.816ZM3.53513 57.824C4.03646 56.7147 4.89513 56.16 6.11113 56.16C7.01779 56.16 7.72179 56.4587 8.22313 57.056C8.73513 57.6533 8.99113 58.4693 8.99113 59.504V64H7.74313V59.504C7.74313 58.768 7.56713 58.2133 7.21513 57.84C6.87379 57.4667 6.38313 57.28 5.74313 57.28C5.10313 57.28 4.58579 57.5413 4.19113 58.064C3.79646 58.5867 3.58846 59.312 3.56713 60.24V64H2.30313V56.352H3.39113L3.53513 57.824ZM16.9678 57.488V53.104H18.2158V64H17.1918L17.0318 62.72C16.7864 63.2 16.4611 63.5627 16.0558 63.808C15.6504 64.0533 15.2078 64.176 14.7278 64.176C13.7571 64.176 12.9411 63.8027 12.2798 63.056C11.6291 62.3093 11.3038 61.3387 11.3038 60.144C11.3038 58.9387 11.6238 57.9733 12.2638 57.248C12.9144 56.5227 13.7304 56.16 14.7118 56.16C15.7038 56.16 16.4558 56.6027 16.9678 57.488ZM14.7918 57.28C14.1731 57.28 13.6504 57.5413 13.2238 58.064C12.8078 58.5867 12.5998 59.2853 12.5998 60.16C12.5998 61.0347 12.8131 61.7387 13.2398 62.272C13.6664 62.7947 14.1784 63.056 14.7758 63.056C15.3731 63.056 15.8798 62.8587 16.2958 62.464C16.7224 62.0587 16.9464 61.52 16.9678 60.848V59.6C16.9678 58.8853 16.7598 58.32 16.3438 57.904C15.9278 57.488 15.4104 57.28 14.7918 57.28ZM26.4563 57.52C26.9576 56.6133 27.7043 56.16 28.6963 56.16C29.6989 56.16 30.5309 56.528 31.1923 57.264C31.8643 58 32.2003 58.9707 32.2003 60.176C32.2003 61.3813 31.8643 62.352 31.1923 63.088C30.5203 63.8133 29.6936 64.176 28.7123 64.176C27.7309 64.176 27.0056 63.808 26.5363 63.072V67.76H25.2723V56.352H26.3123L26.4563 57.52ZM28.6483 63.056C29.2456 63.056 29.7683 62.8 30.2163 62.288C30.6749 61.776 30.9043 61.0773 30.9043 60.192C30.9043 59.296 30.6856 58.5867 30.2483 58.064C29.8216 57.5413 29.2989 57.28 28.6803 57.28C28.0616 57.28 27.5549 57.4773 27.1603 57.872C26.7656 58.256 26.5576 58.7787 26.5363 59.44V60.896C26.5363 61.568 26.7389 62.096 27.1443 62.48C27.5496 62.864 28.0509 63.056 28.6483 63.056ZM37.5243 56.16C38.5909 56.16 39.4496 56.5067 40.1003 57.2C40.7616 57.8933 41.0923 58.8853 41.0923 60.176C41.0923 61.456 40.7616 62.4427 40.1003 63.136C39.4496 63.8293 38.5909 64.176 37.5243 64.176C36.4576 64.176 35.5936 63.8293 34.9323 63.136C34.2816 62.4427 33.9563 61.456 33.9563 60.176C33.9563 58.8853 34.2816 57.8933 34.9323 57.2C35.5936 56.5067 36.4576 56.16 37.5243 56.16ZM39.8123 60.176C39.8123 59.2587 39.6203 58.544 39.2363 58.032C38.8523 57.5093 38.2869 57.248 37.5403 57.248C36.8043 57.248 36.2389 57.5093 35.8443 58.032C35.4496 58.544 35.2523 59.2587 35.2523 60.176C35.2523 61.0827 35.4389 61.7973 35.8123 62.32C36.1856 62.832 36.7403 63.088 37.4763 63.088C38.2229 63.088 38.7989 62.832 39.2043 62.32C39.6096 61.7973 39.8123 61.0827 39.8123 60.176ZM43.5066 53.104H44.7706V64H43.5066V53.104ZM48.071 56.336H49.335V64H48.071V56.336ZM48.695 54.544C48.439 54.544 48.2363 54.4747 48.087 54.336C47.9483 54.1867 47.879 53.9947 47.879 53.76C47.879 53.5147 47.9483 53.3227 48.087 53.184C48.2363 53.0347 48.439 52.96 48.695 52.96C48.951 52.96 49.1537 53.0347 49.303 53.184C49.463 53.3227 49.543 53.5147 49.543 53.76C49.543 53.9947 49.463 54.1867 49.303 54.336C49.1537 54.4747 48.951 54.544 48.695 54.544ZM55.3163 56.16C56.2229 56.16 56.9429 56.3947 57.4763 56.864C58.0096 57.3227 58.3563 57.8987 58.5163 58.592L57.2363 58.704C57.0976 58.256 56.8736 57.9093 56.5643 57.664C56.2549 57.408 55.9136 57.28 55.5403 57.28C54.8576 57.28 54.3029 57.536 53.8763 58.048C53.4603 58.56 53.2523 59.2587 53.2523 60.144C53.2523 61.0187 53.4549 61.7227 53.8603 62.256C54.2763 62.7893 54.7883 63.056 55.3963 63.056C56.0149 63.056 56.4736 62.9173 56.7723 62.64C57.0816 62.352 57.2363 61.9467 57.2363 61.424H58.5323C58.5323 62.2453 58.2443 62.912 57.6683 63.424C57.1029 63.9253 56.3616 64.176 55.4443 64.176C54.4736 64.176 53.6469 63.808 52.9643 63.072C52.2923 62.336 51.9563 61.36 51.9563 60.144C51.9563 58.9173 52.2923 57.9467 52.9643 57.232C53.6363 56.5173 54.4203 56.16 55.3163 56.16ZM61.0866 56.336H62.3506V64H61.0866V56.336ZM61.7106 54.544C61.4546 54.544 61.252 54.4747 61.1026 54.336C60.964 54.1867 60.8946 53.9947 60.8946 53.76C60.8946 53.5147 60.964 53.3227 61.1026 53.184C61.252 53.0347 61.4546 52.96 61.7106 52.96C61.9666 52.96 62.1693 53.0347 62.3186 53.184C62.4786 53.3227 62.5586 53.5147 62.5586 53.76C62.5586 53.9947 62.4786 54.1867 62.3186 54.336C62.1693 54.4747 61.9666 54.544 61.7106 54.544ZM68.4279 63.152C69.4839 63.152 70.0865 62.688 70.2359 61.76H71.5319C71.4145 62.528 71.0732 63.1253 70.5079 63.552C69.9532 63.968 69.2599 64.176 68.4279 64.176C67.4039 64.176 66.5719 63.8133 65.9319 63.088C65.2919 62.352 64.9719 61.376 64.9719 60.16C64.9719 58.944 65.2919 57.9733 65.9319 57.248C66.5825 56.5227 67.4412 56.16 68.5079 56.16C69.5852 56.16 70.3852 56.576 70.9079 57.408C71.4412 58.24 71.6279 59.2533 71.4679 60.448H66.2359C66.2359 61.2373 66.4279 61.888 66.8119 62.4C67.1959 62.9013 67.7345 63.152 68.4279 63.152ZM69.3559 57.36C69.1105 57.232 68.8119 57.168 68.4599 57.168C67.8092 57.168 67.2919 57.392 66.9079 57.84C66.5345 58.2773 66.3159 58.8267 66.2519 59.488H70.3319C70.3319 58.4213 70.0065 57.712 69.3559 57.36ZM73.6223 58.224C73.6223 57.5947 73.8889 57.0933 74.4223 56.72C74.9663 56.3467 75.6969 56.16 76.6143 56.16C77.5316 56.16 78.2463 56.352 78.7583 56.736C79.2809 57.12 79.5529 57.6053 79.5743 58.192H78.3423C78.2463 57.4987 77.6596 57.152 76.5823 57.152C76.0596 57.152 75.6543 57.2693 75.3663 57.504C75.0889 57.7387 74.9503 57.9947 74.9503 58.272C74.9503 58.5387 75.0569 58.768 75.2703 58.96C75.4836 59.1413 75.8249 59.3013 76.2943 59.44L77.8303 59.952C78.4809 60.1547 78.9769 60.416 79.3183 60.736C79.6703 61.0453 79.8463 61.4773 79.8463 62.032C79.8463 62.576 79.5636 63.072 78.9983 63.52C78.4329 63.9573 77.6436 64.176 76.6302 64.176C75.6169 64.176 74.8276 63.952 74.2623 63.504C73.6969 63.0453 73.3983 62.4587 73.3663 61.744H74.5823C74.6036 62.224 74.7956 62.5867 75.1583 62.832C75.5316 63.0667 75.9956 63.184 76.5503 63.184C77.1049 63.184 77.5636 63.0667 77.9263 62.832C78.2889 62.5973 78.4703 62.32 78.4703 62C78.4703 61.6693 78.3636 61.4187 78.1503 61.248C77.9369 61.0773 77.5903 60.928 77.1102 60.8L75.6223 60.304C74.2889 59.9093 73.6223 59.216 73.6223 58.224Z" fill="#5B5B5B"/>
</g>
</g>
<defs>
<clipPath id="clip0">
<rect x="0.5" width="242" height="78" rx="11.8182" fill="white"/>
</clipPath>
<clipPath id="clip1">
<rect width="242" height="52" fill="white" transform="translate(0.5 26)"/>
</clipPath>
</defs>
</svg>
