<svg width="220" height="77" viewBox="0 0 220 77" fill="none" xmlns="http://www.w3.org/2000/svg">
<rect x="0.5" width="219" height="77" rx="10" fill="#F3F3F3"/>
<path d="M22.996 20.464C23.284 17.168 24.02 14.88 25.204 13.6C26.388 12.32 28.084 11.68 30.292 11.68C32.5 11.68 34.228 12.272 35.476 13.456C36.756 14.608 37.396 16.704 37.396 19.744C37.396 22.752 36.404 25.856 34.42 29.056L25.78 42.928H37.3V46H22.948V43.696C22.948 42.064 23.204 40.608 23.716 39.328C24.26 38.048 25.444 35.968 27.268 33.088L31.252 26.848C32.82 24.672 33.604 22.272 33.604 19.648C33.604 17.792 33.3 16.496 32.692 15.76C32.084 15.024 31.22 14.656 30.1 14.656C29.012 14.656 28.164 15.12 27.556 16.048C26.948 16.944 26.548 18.592 26.356 20.992L22.996 20.464ZM56.7588 20.464C56.7588 24.848 55.5748 27.568 53.2068 28.624C55.9908 29.744 57.3828 32.672 57.3828 37.408C57.3828 40.928 56.7108 43.36 55.3668 44.704C54.0548 46.048 52.1668 46.72 49.7028 46.72C47.2388 46.72 45.3508 46.048 44.0388 44.704C42.7268 43.36 42.0708 40.928 42.0708 37.408C42.0708 32.576 43.4468 29.648 46.1988 28.624C43.8948 27.536 42.7428 24.816 42.7428 20.464C42.7428 17.136 43.3348 14.848 44.5188 13.6C45.7348 12.32 47.4628 11.68 49.7028 11.68C51.9748 11.68 53.7188 12.32 54.9348 13.6C56.1508 14.848 56.7588 17.136 56.7588 20.464ZM53.5908 37.696V36.208C53.5908 33.936 53.2548 32.368 52.5828 31.504C51.9108 30.608 50.9508 30.16 49.7028 30.16C48.4868 30.16 47.5428 30.608 46.8708 31.504C46.1988 32.368 45.8628 33.936 45.8628 36.208V37.696C45.8628 39.968 46.1988 41.552 46.8708 42.448C47.5428 43.312 48.4868 43.744 49.7028 43.744C50.9508 43.744 51.9108 43.312 52.5828 42.448C53.2548 41.552 53.5908 39.968 53.5908 37.696ZM53.0628 21.808V20.08C53.0628 18 52.7748 16.576 52.1988 15.808C51.6228 15.04 50.7908 14.656 49.7028 14.656C48.6468 14.656 47.8308 15.04 47.2548 15.808C46.6788 16.576 46.3908 18 46.3908 20.08V21.808C46.3908 23.888 46.6788 25.312 47.2548 26.08C47.8308 26.848 48.6468 27.232 49.7028 27.232C50.7908 27.232 51.6228 26.848 52.1988 26.08C52.7748 25.312 53.0628 23.888 53.0628 21.808ZM77.1104 22.432V35.968C77.1104 40.032 76.4544 42.848 75.1424 44.416C73.8624 45.952 72.0064 46.72 69.5744 46.72C67.1744 46.72 65.3184 45.952 64.0064 44.416C62.7264 42.848 62.0864 40.032 62.0864 35.968V22.432C62.0864 18.368 62.7264 15.568 64.0064 14.032C65.3184 12.464 67.1744 11.68 69.5744 11.68C72.0064 11.68 73.8624 12.464 75.1424 14.032C76.4544 15.568 77.1104 18.368 77.1104 22.432ZM73.3184 36.688V21.712C73.3184 17.104 72.0864 14.8 69.6224 14.8C68.4384 14.8 67.5104 15.296 66.8384 16.288C66.1984 17.28 65.8784 19.088 65.8784 21.712V36.688C65.8784 39.312 66.1984 41.12 66.8384 42.112C67.5104 43.104 68.4384 43.6 69.6224 43.6C72.0864 43.6 73.3184 41.296 73.3184 36.688Z" fill="#2C8DC9"/>
<path d="M23.888 55.194H25.232L28.186 64H27.038L26.282 61.76H22.782L22.026 64H20.864L23.888 55.194ZM23.076 60.892H26.002L24.546 56.552L23.076 60.892ZM32.1927 57.14C32.9861 57.14 33.6161 57.3453 34.0827 57.756C34.5494 58.1573 34.8527 58.6613 34.9927 59.268L33.8727 59.366C33.7514 58.974 33.5554 58.6707 33.2847 58.456C33.0141 58.232 32.7154 58.12 32.3887 58.12C31.7914 58.12 31.3061 58.344 30.9327 58.792C30.5687 59.24 30.3867 59.8513 30.3867 60.626C30.3867 61.3913 30.5641 62.0073 30.9187 62.474C31.2827 62.9407 31.7307 63.174 32.2627 63.174C32.8041 63.174 33.2054 63.0527 33.4667 62.81C33.7374 62.558 33.8727 62.2033 33.8727 61.746H35.0067C35.0067 62.4647 34.7547 63.048 34.2507 63.496C33.7561 63.9347 33.1074 64.154 32.3047 64.154C31.4554 64.154 30.7321 63.832 30.1347 63.188C29.5467 62.544 29.2527 61.69 29.2527 60.626C29.2527 59.5527 29.5467 58.7033 30.1347 58.078C30.7227 57.4527 31.4087 57.14 32.1927 57.14ZM40.6718 63.804C39.8691 64.1773 39.1365 64.2567 38.4738 64.042C37.9978 63.8927 37.6618 63.58 37.4658 63.104C37.3631 62.8707 37.3118 62.5907 37.3118 62.264V58.148H36.2338V57.308H37.3118V55.446H38.4038V57.308H40.5038V58.148H38.4038V62.25C38.4038 62.9313 38.7211 63.272 39.3558 63.272C39.7011 63.272 40.0885 63.188 40.5178 63.02L40.6718 63.804ZM42.5055 57.294H43.6115V64H42.5055V57.294ZM43.0515 55.726C42.8275 55.726 42.6502 55.6653 42.5195 55.544C42.3982 55.4133 42.3375 55.2453 42.3375 55.04C42.3375 54.8253 42.3982 54.6573 42.5195 54.536C42.6502 54.4053 42.8275 54.34 43.0515 54.34C43.2755 54.34 43.4528 54.4053 43.5835 54.536C43.7235 54.6573 43.7935 54.8253 43.7935 55.04C43.7935 55.2453 43.7235 55.4133 43.5835 55.544C43.4528 55.6653 43.2755 55.726 43.0515 55.726ZM49.0271 57.14C49.9604 57.14 50.7117 57.4433 51.2811 58.05C51.8597 58.6567 52.1491 59.5247 52.1491 60.654C52.1491 61.774 51.8597 62.6373 51.2811 63.244C50.7117 63.8507 49.9604 64.154 49.0271 64.154C48.0937 64.154 47.3377 63.8507 46.7591 63.244C46.1897 62.6373 45.9051 61.774 45.9051 60.654C45.9051 59.5247 46.1897 58.6567 46.7591 58.05C47.3377 57.4433 48.0937 57.14 49.0271 57.14ZM51.0291 60.654C51.0291 59.8513 50.8611 59.226 50.5251 58.778C50.1891 58.3207 49.6944 58.092 49.0411 58.092C48.3971 58.092 47.9024 58.3207 47.5571 58.778C47.2117 59.226 47.0391 59.8513 47.0391 60.654C47.0391 61.4473 47.2024 62.0727 47.5291 62.53C47.8557 62.978 48.3411 63.202 48.9851 63.202C49.6384 63.202 50.1424 62.978 50.4971 62.53C50.8517 62.0727 51.0291 61.4473 51.0291 60.654ZM55.3257 58.596C55.7643 57.6253 56.5157 57.14 57.5797 57.14C58.373 57.14 58.989 57.4013 59.4277 57.924C59.8757 58.4467 60.0997 59.1607 60.0997 60.066V64H59.0077V60.066C59.0077 59.422 58.8537 58.9367 58.5457 58.61C58.247 58.2833 57.8177 58.12 57.2577 58.12C56.6977 58.12 56.245 58.3487 55.8997 58.806C55.5543 59.2633 55.3723 59.898 55.3537 60.71V64H54.2477V57.308H55.1997L55.3257 58.596ZM62.3472 58.946C62.3472 58.3953 62.5805 57.9567 63.0472 57.63C63.5232 57.3033 64.1625 57.14 64.9652 57.14C65.7679 57.14 66.3932 57.308 66.8412 57.644C67.2985 57.98 67.5365 58.4047 67.5552 58.918H66.4772C66.3932 58.3113 65.8799 58.008 64.9372 58.008C64.4799 58.008 64.1252 58.1107 63.8732 58.316C63.6305 58.5213 63.5092 58.7453 63.5092 58.988C63.5092 59.2213 63.6025 59.422 63.7892 59.59C63.9759 59.7487 64.2745 59.8887 64.6852 60.01L66.0292 60.458C66.5985 60.6353 67.0325 60.864 67.3312 61.144C67.6392 61.4147 67.7932 61.7927 67.7932 62.278C67.7932 62.754 67.5459 63.188 67.0512 63.58C66.5565 63.9627 65.8659 64.154 64.9792 64.154C64.0925 64.154 63.4019 63.958 62.9072 63.566C62.4125 63.1647 62.1512 62.6513 62.1232 62.026H63.1872C63.2059 62.446 63.3739 62.7633 63.6912 62.978C64.0179 63.1833 64.4239 63.286 64.9092 63.286C65.3945 63.286 65.7959 63.1833 66.1132 62.978C66.4305 62.7727 66.5892 62.53 66.5892 62.25C66.5892 61.9607 66.4959 61.7413 66.3092 61.592C66.1225 61.4427 65.8192 61.312 65.3992 61.2L64.0972 60.766C62.9305 60.4207 62.3472 59.814 62.3472 58.946Z" fill="#20313B"/>
<rect x="99.5" y="20.5" width="105" height="36" rx="10" fill="#D86422"/>
<path d="M115.944 34.212H120.96V35.436H117.36V37.488H120.732V38.712H117.36V40.764H120.96V42H115.944V34.212ZM128.315 42H126.587L125.147 40.128L123.803 42H122.063L124.331 39.096L122.063 36.156H123.803L125.231 38.028L126.587 36.156H128.315L126.059 39.096L128.315 42ZM130.928 36.96C131.296 36.328 131.856 36.012 132.608 36.012C133.328 36.012 133.944 36.284 134.456 36.828C135 37.404 135.272 38.156 135.272 39.084C135.272 40.02 134.996 40.776 134.444 41.352C133.932 41.896 133.32 42.168 132.608 42.168C131.896 42.168 131.376 41.956 131.048 41.532V44.844H129.632V36.168H130.796L130.928 36.96ZM132.356 40.884C132.524 40.884 132.696 40.848 132.872 40.776C133.056 40.704 133.22 40.592 133.364 40.44C133.684 40.104 133.844 39.656 133.844 39.096C133.844 38.528 133.704 38.084 133.424 37.764C133.152 37.444 132.816 37.284 132.416 37.284C132.024 37.284 131.7 37.4 131.444 37.632C131.196 37.856 131.064 38.18 131.048 38.604V39.648C131.048 40.024 131.18 40.328 131.444 40.56C131.692 40.776 131.996 40.884 132.356 40.884ZM139.248 36.012C139.64 36.012 140.008 36.076 140.352 36.204C140.696 36.324 140.992 36.512 141.24 36.768C141.792 37.328 142.068 38.104 142.068 39.096C142.068 40.072 141.792 40.84 141.24 41.4C140.744 41.912 140.08 42.168 139.248 42.168C138.416 42.168 137.744 41.912 137.232 41.4C136.68 40.848 136.404 40.08 136.404 39.096C136.404 38.096 136.68 37.32 137.232 36.768C137.736 36.264 138.408 36.012 139.248 36.012ZM140.652 39.084C140.652 38.468 140.532 38.008 140.292 37.704C140.052 37.392 139.716 37.236 139.284 37.236C138.86 37.236 138.512 37.392 138.24 37.704C137.968 38.008 137.832 38.468 137.832 39.084C137.832 39.7 137.952 40.164 138.192 40.476C138.44 40.78 138.776 40.932 139.2 40.932C139.624 40.932 139.972 40.78 140.244 40.476C140.516 40.164 140.652 39.7 140.652 39.084ZM145.169 37.32C145.521 36.48 146.049 36.06 146.753 36.06C146.889 36.06 147.061 36.088 147.269 36.144L147.245 37.56C147.021 37.512 146.801 37.488 146.585 37.488C145.641 37.488 145.169 38.14 145.169 39.444V42H143.753V36.156H145.169V37.32ZM152.033 41.856C151.505 42.064 151.089 42.168 150.785 42.168C150.481 42.168 150.213 42.132 149.981 42.06C149.757 41.988 149.557 41.88 149.381 41.736C149.013 41.408 148.829 40.956 148.829 40.38V37.116H148.013V36.168H148.829V34.632H150.245V36.168H151.829V37.116H150.245V40.332C150.245 40.812 150.473 41.052 150.929 41.052C151.161 41.052 151.461 40.988 151.829 40.86L152.033 41.856ZM159.802 41.856C159.274 42.064 158.858 42.168 158.554 42.168C158.25 42.168 157.982 42.132 157.75 42.06C157.526 41.988 157.326 41.88 157.15 41.736C156.782 41.408 156.598 40.956 156.598 40.38V37.116H155.782V36.168H156.598V34.632H158.014V36.168H159.598V37.116H158.014V40.332C158.014 40.812 158.242 41.052 158.698 41.052C158.93 41.052 159.23 40.988 159.598 40.86L159.802 41.856ZM163.541 36.012C163.933 36.012 164.301 36.076 164.645 36.204C164.989 36.324 165.285 36.512 165.533 36.768C166.085 37.328 166.361 38.104 166.361 39.096C166.361 40.072 166.085 40.84 165.533 41.4C165.037 41.912 164.373 42.168 163.541 42.168C162.709 42.168 162.037 41.912 161.525 41.4C160.973 40.848 160.697 40.08 160.697 39.096C160.697 38.096 160.973 37.32 161.525 36.768C162.029 36.264 162.701 36.012 163.541 36.012ZM164.945 39.084C164.945 38.468 164.825 38.008 164.585 37.704C164.345 37.392 164.009 37.236 163.577 37.236C163.153 37.236 162.805 37.392 162.533 37.704C162.261 38.008 162.125 38.468 162.125 39.084C162.125 39.7 162.245 40.164 162.485 40.476C162.733 40.78 163.069 40.932 163.493 40.932C163.917 40.932 164.265 40.78 164.537 40.476C164.809 40.164 164.945 39.7 164.945 39.084ZM171.237 42.108C170.949 42.108 170.713 42.02 170.529 41.844C170.345 41.668 170.253 41.444 170.253 41.172C170.253 40.9 170.345 40.672 170.529 40.488C170.713 40.304 170.949 40.212 171.237 40.212C171.525 40.212 171.765 40.304 171.957 40.488C172.149 40.672 172.245 40.9 172.245 41.172C172.245 41.444 172.149 41.668 171.957 41.844C171.765 42.02 171.525 42.108 171.237 42.108ZM178.987 42H177.259L175.819 40.128L174.475 42H172.735L175.003 39.096L172.735 36.156H174.475L175.903 38.028L177.259 36.156H178.987L176.731 39.096L178.987 42ZM180.304 33.768H181.72V42H180.304V33.768ZM184.74 40.224C184.756 40.776 185.16 41.052 185.952 41.052C186.256 41.052 186.504 40.988 186.696 40.86C186.896 40.724 186.996 40.568 186.996 40.392C186.996 40.216 186.936 40.08 186.816 39.984C186.696 39.888 186.508 39.8 186.252 39.72L184.98 39.264C184.036 38.936 183.564 38.4 183.564 37.656C183.564 37.16 183.784 36.764 184.224 36.468C184.672 36.164 185.268 36.012 186.012 36.012C186.764 36.012 187.34 36.176 187.74 36.504C188.148 36.832 188.36 37.244 188.376 37.74H187.044C187.028 37.548 186.936 37.396 186.768 37.284C186.6 37.172 186.36 37.116 186.048 37.116C185.736 37.116 185.492 37.18 185.316 37.308C185.148 37.428 185.064 37.568 185.064 37.728C185.064 38.008 185.3 38.216 185.772 38.352L187.152 38.868C187.608 39.02 187.956 39.216 188.196 39.456C188.444 39.688 188.568 39.992 188.568 40.368C188.568 40.848 188.34 41.264 187.884 41.616C187.412 41.984 186.788 42.168 186.012 42.168C185.236 42.168 184.612 42 184.14 41.664C183.668 41.32 183.428 40.84 183.42 40.224H184.74Z" fill="white"/>
</svg>
